SplineFontDB: 3.0
FontName: Dave
FullName: Dave Bold
FamilyName: Dave
Weight: Bold
Copyright: Copyright i-e-b 2018-2020\n"Computer says no" by "CMunk" (https://fontstruct.com/fontstructors/show/25776/cmunk)
Version: 1.0
ItalicAngle: 0
UnderlinePosition: -41
UnderlineWidth: 85
Ascent: 819
Descent: 205
InvalidEm: 0
sfntRevision: 0x00010000
LayerCount: 2
Layer: 0 1 "Back" 1
Layer: 1 1 "Fore" 0
XUID: [1021 81 -837077078 24771]
StyleMap: 0x0020
FSType: 0
OS2Version: 2
OS2_WeightWidthSlopeOnly: 1
OS2_UseTypoMetrics: 0
CreationTime: 1537189093
ModificationTime: 1596100490
PfmFamily: 49
TTFWeight: 400
TTFWidth: 5
LineGap: 0
VLineGap: 0
Panose: 0 0 0 0 0 0 0 0 0 0
OS2TypoAscent: 725
OS2TypoAOffset: 0
OS2TypoDescent: -161
OS2TypoDOffset: 0
OS2TypoLinegap: 0
OS2WinAscent: 1074
OS2WinAOffset: 0
OS2WinDescent: 242
OS2WinDOffset: 0
HheadAscent: 1074
HheadAOffset: 0
HheadDescent: -242
HheadDOffset: 0
OS2SubXSize: 859
OS2SubYSize: 859
OS2SubXOff: 0
OS2SubYOff: -81
OS2SupXSize: 859
OS2SupYSize: 859
OS2SupXOff: 0
OS2SupYOff: 859
OS2StrikeYSize: 86
OS2StrikeYPos: 342
OS2CapHeight: 432
OS2XHeight: 336
OS2FamilyClass: 1793
OS2Vendor: 'FSTR'
OS2CodePages: 400001ff.00000000
OS2UnicodeRanges: e50006bf.4000197b.00009020.00000000
MarkAttachClasses: 1
DEI: 91125

StartChar: .notdef
Encoding: 65536 -1 0
Width: 537
Flags: MW
LayerCount: 2
Fore
SplineSet
-15 0 m 1
 -15 725 l 1
 -15 740 l 1
 0 740 l 1
 483 740 l 1
 498 740 l 1
 498 725 l 1
 498 0 l 1
 498 -15 l 1
 483 -15 l 1
 0 -15 l 1
 -15 -15 l 1
 -15 0 l 1
173 215 m 1
 173 322 l 1
 173 328.180564007 l 1
 177.354042097 332.567098955 l 1
 307 463.180564007 l 1
 307 476.8413023 l 1
 235.73215042 549 l 1
 221.172374166 549 l 1
 117.557154494 446.344180511 l 1
 106.950781696 435.836014868 l 1
 96.3933982822 446.393398282 l 1
 43.3933982822 499.393398282 l 1
 42 500.786796564 l 1
 42 61.4602890581 l 1
 45.7787220812 64.9784096165 l 1
 50.0982080487 69 l 1
 56 69 l 1
 173 69 l 1
 173 81 l 1
 173 161 l 1
 173 176 l 1
 188 176 l 1
 269 176 l 1
 284 176 l 1
 284 161 l 1
 284 81 l 1
 284 69 l 1
 416.951298829 69 l 1
 415.808312145 421.611392258 l 1
 413.645957903 419.432901045 l 1
 284 288.819435993 l 1
 284 215 l 1
 284 200 l 1
 269 200 l 1
 188 200 l 1
 173 200 l 1
 173 215 l 1
415.493581855 518.705686765 m 1
 415.000078804 670.951377889 l 1
 414.97984648 677.193049915 l 1
 419.393398282 681.606601718 l 1
 420.786796564 683 l 1
 42 683 l 1
 42 519.202952066 l 1
 43.3540420972 520.567098955 l 1
 177.354042097 655.567098955 l 1
 181.754106838 660 l 1
 188 660 l 1
 269 660 l 1
 275.245893162 660 l 1
 279.645957903 655.567098955 l 1
 413.645957903 520.567098955 l 1
 415.493581855 518.705686765 l 1
EndSplineSet
Validated: 1
EndChar

StartChar: exclam
Encoding: 33 33 4
Width: 537
GlyphClass: 2
Flags: MW
LayerCount: 2
Fore
SplineSet
119 0 m 1
 119 134 l 1
 119 149 l 1
 134 149 l 1
 269 149 l 1
 284 149 l 1
 284 134 l 1
 284 0 l 1
 284 -15 l 1
 269 -15 l 1
 134 -15 l 1
 119 -15 l 1
 119 0 l 1
133.21246655 239.484278542 m 1
 92.2124665497 480.484278542 l 1
 92 481.733167285 l 1
 92 483 l 1
 92 725 l 1
 92 740 l 1
 107 740 l 1
 295 740 l 1
 310 740 l 1
 310 725 l 1
 310 483 l 1
 310 481.763643581 l 1
 309.797564985 480.543972617 l 1
 269.797564985 239.543972617 l 1
 267.715577829 227 l 1
 255 227 l 1
 148 227 l 1
 135.336347961 227 l 1
 133.21246655 239.484278542 l 1
EndSplineSet
Validated: 1
EndChar

StartChar: quotedbl
Encoding: 34 34 5
Width: 537
GlyphClass: 2
Flags: MW
LayerCount: 2
Fore
SplineSet
39 430 m 1
 39 725 l 1
 39 740 l 1
 54 740 l 1
 134 740 l 1
 149 740 l 1
 149 725 l 1
 149 537 l 1
 149 535.136680048 l 1
 148.544106696 533.329991768 l 1
 121.544106696 426.329991768 l 1
 118.68513681 415 l 1
 107 415 l 1
 54 415 l 1
 39 415 l 1
 39 430 l 1
254 430 m 1
 254 725 l 1
 254 740 l 1
 269 740 l 1
 349 740 l 1
 364 740 l 1
 364 725 l 1
 364 537 l 1
 364 535.136680048 l 1
 363.544106696 533.329991768 l 1
 336.544106696 426.329991768 l 1
 333.68513681 415 l 1
 322 415 l 1
 269 415 l 1
 254 415 l 1
 254 430 l 1
EndSplineSet
Validated: 1
EndChar

StartChar: numbersign
Encoding: 35 35 6
Width: 537
GlyphClass: 2
Flags: MW
LayerCount: 2
Fore
SplineSet
256.284422171 257 m 1
 291.305169059 468 l 1
 173.715577829 468 l 1
 138.694830941 257 l 1
 256.284422171 257 l 1
-14.7934179877 2.48088376192 m 1
 9.27500523232 146 l 1
 -54 146 l 1
 -69 146 l 1
 -69 161 l 1
 -69 242 l 1
 -69 257 l 1
 -54 257 l 1
 27.3363479613 257 l 1
 63.2326135215 468 l 1
 0 468 l 1
 -15 468 l 1
 -15 483 l 1
 -15 564 l 1
 -15 579 l 1
 0 579 l 1
 81.3060611329 579 l 1
 106.206582012 727.480883762 l 1
 108.306061133 740 l 1
 121 740 l 1
 201 740 l 1
 218.616695679 740 l 1
 215.808150118 722.60862172 l 1
 192.616695679 579 l 1
 309.306061133 579 l 1
 334.206582012 727.480883762 l 1
 336.306061133 740 l 1
 349 740 l 1
 430 740 l 1
 447.724994768 740 l 1
 444.793417988 722.519116238 l 1
 420.724994768 579 l 1
 483 579 l 1
 498 579 l 1
 498 564 l 1
 498 483 l 1
 498 468 l 1
 483 468 l 1
 401.715577829 468 l 1
 366.694830941 257 l 1
 430 257 l 1
 445 257 l 1
 445 242 l 1
 445 161 l 1
 445 146 l 1
 430 146 l 1
 348.693938867 146 l 1
 323.793417988 -2.48088376192 l 1
 321.693938867 -15 l 1
 309 -15 l 1
 228 -15 l 1
 210.275005232 -15 l 1
 213.206582012 2.48088376192 l 1
 237.275005232 146 l 1
 119.771975182 146 l 1
 95.8081501182 -2.39137827995 l 1
 93.771975182 -15 l 1
 81 -15 l 1
 0 -15 l 1
 -17.7249947677 -15 l 1
 -14.7934179877 2.48088376192 l 1
EndSplineSet
Validated: 1
EndChar

StartChar: dollar
Encoding: 36 36 7
Width: 537
GlyphClass: 2
Flags: MW
LayerCount: 2
Fore
SplineSet
307 167.213203436 m 1
 307 236 l 1
 257 288.5 l 1
 257 117.213203436 l 1
 307 167.213203436 l 1
146 608.4663023 m 1
 96 557.8413023 l 1
 96 489.439671336 l 1
 146 441.939671336 l 1
 146 608.4663023 l 1
146 -81 m 1
 146 -15 l 1
 134 -15 l 1
 127.786796564 -15 l 1
 123.393398282 -10.6066017178 l 1
 -10.6066017178 123.393398282 l 1
 -21.2132034356 134 l 1
 -10.6066017178 144.606601718 l 1
 43.3933982822 198.606601718 l 1
 54 209.213203436 l 1
 64.6066017178 198.606601718 l 1
 146 117.213203436 l 1
 146 311 l 1
 134 311 l 1
 127.886033881 311 l 1
 123.514144928 315.274010842 l 1
 -10.485855072 446.274010842 l 1
 -15 450.687092824 l 1
 -15 457 l 1
 -15 591 l 1
 -15 597.213203436 l 1
 -10.6066017178 601.606601718 l 1
 123.393398282 735.606601718 l 1
 127.786796564 740 l 1
 134 740 l 1
 146 740 l 1
 146 806 l 1
 146 821 l 1
 161 821 l 1
 242 821 l 1
 257 821 l 1
 257 806 l 1
 257 740 l 1
 269 740 l 1
 275.213203436 740 l 1
 279.606601718 735.606601718 l 1
 413.606601718 601.606601718 l 1
 424.213203436 591 l 1
 413.606601718 580.393398282 l 1
 359.606601718 526.393398282 l 1
 348.950552241 515.737348806 l 1
 338.344180511 526.442845506 l 1
 257 608.547252003 l 1
 257 422 l 1
 269 422 l 1
 275.342808763 422 l 1
 279.76141757 417.449492423 l 1
 413.76141757 279.449492423 l 1
 418 275.084385144 l 1
 418 269 l 1
 418 134 l 1
 418 127.786796564 l 1
 413.606601718 123.393398282 l 1
 279.606601718 -10.6066017178 l 1
 275.213203436 -15 l 1
 269 -15 l 1
 257 -15 l 1
 257 -81 l 1
 257 -96 l 1
 242 -96 l 1
 161 -96 l 1
 146 -96 l 1
 146 -81 l 1
EndSplineSet
Validated: 1
EndChar

StartChar: percent
Encoding: 37 37 8
Width: 537
GlyphClass: 2
Flags: MW
LayerCount: 2
Fore
SplineSet
288.868755731 69 m 1
 334 113.295480487 l 1
 334 127.786796564 l 1
 288.786796564 173 l 1
 275.213203436 173 l 1
 230 127.786796564 l 1
 230 113.295480487 l 1
 275.131244269 69 l 1
 288.868755731 69 l 1
231.393398282 -10.6066017178 m 1
 150.393398282 70.3933982822 l 1
 146 74.7867965644 l 1
 146 81 l 1
 146 161 l 1
 146 167.213203436 l 1
 150.393398282 171.606601718 l 1
 231.393398282 252.606601718 l 1
 235.786796564 257 l 1
 242 257 l 1
 322 257 l 1
 328.213203436 257 l 1
 332.606601718 252.606601718 l 1
 413.606601718 171.606601718 l 1
 418 167.213203436 l 1
 418 161 l 1
 418 81 l 1
 418 74.7867965644 l 1
 413.606601718 70.3933982822 l 1
 332.606601718 -10.6066017178 l 1
 328.213203436 -15 l 1
 322 -15 l 1
 242 -15 l 1
 235.786796564 -15 l 1
 231.393398282 -10.6066017178 l 1
-10.6066017178 225.606601718 m 1
 338.393398282 574.606601718 l 1
 349 585.213203436 l 1
 359.606601718 574.606601718 l 1
 413.606601718 520.606601718 l 1
 424.213203436 510 l 1
 413.606601718 499.393398282 l 1
 64.6066017178 150.393398282 l 1
 54 139.786796564 l 1
 43.3933982822 150.393398282 l 1
 -10.6066017178 204.393398282 l 1
 -21.2132034356 215 l 1
 -10.6066017178 225.606601718 l 1
127.786796564 552 m 1
 173 597.213203436 l 1
 173 611.704519513 l 1
 127.868755731 656 l 1
 113.213203436 656 l 1
 69 611.786796564 l 1
 69 597.131244269 l 1
 113.295480487 552 l 1
 127.786796564 552 l 1
70.3933982822 472.393398282 m 1
 -10.6066017178 553.393398282 l 1
 -15 557.786796564 l 1
 -15 564 l 1
 -15 645 l 1
 -15 651.26784958 l 1
 -10.5405188859 655.672275372 l 1
 70.4594811141 735.672275372 l 1
 74.8413022999 740 l 1
 81 740 l 1
 161 740 l 1
 167.1586977 740 l 1
 171.540518886 735.672275372 l 1
 252.540518886 655.672275372 l 1
 257 651.26784958 l 1
 257 645 l 1
 257 564 l 1
 257 557.786796564 l 1
 252.606601718 553.393398282 l 1
 171.606601718 472.393398282 l 1
 167.213203436 468 l 1
 161 468 l 1
 81 468 l 1
 74.7867965644 468 l 1
 70.3933982822 472.393398282 l 1
EndSplineSet
Validated: 1
EndChar

StartChar: ampersand
Encoding: 38 38 9
Width: 537
GlyphClass: 2
Flags: MW
LayerCount: 2
Fore
SplineSet
166.224061258 96.9891421779 m 1
 218.220330972 200.981681606 l 1
 138.924545424 358.711341989 l 1
 96 315.786796564 l 1
 96 167.213203436 l 1
 166.224061258 96.9891421779 l 1
154.786796564 525 m 1
 200 570.213203436 l 1
 200 584.786796564 l 1
 154.786796564 630 l 1
 140.295480487 630 l 1
 96 584.868755731 l 1
 96 570.131244269 l 1
 140.295480487 525 l 1
 154.786796564 525 l 1
123.393398282 -10.6066017178 m 1
 -10.6066017178 123.393398282 l 1
 -15 127.786796564 l 1
 -15 134 l 1
 -15 349 l 1
 -15 355.172374166 l 1
 -10.6558194893 359.557154494 l 1
 85.8360148683 456.950781696 l 1
 16.3933982822 526.393398282 l 1
 12 530.786796564 l 1
 12 537 l 1
 12 618 l 1
 12 624.213203436 l 1
 16.3933982822 628.606601718 l 1
 96.3933982822 708.606601718 l 1
 100.786796564 713 l 1
 107 713 l 1
 188 713 l 1
 194.1586977 713 l 1
 198.540518886 708.672275372 l 1
 279.540518886 628.672275372 l 1
 284 624.26784958 l 1
 284 618 l 1
 284 537 l 1
 284 530.73215042 l 1
 279.540518886 526.327724628 l 1
 206.264511582 453.95635939 l 1
 275.09362954 315.506984188 l 1
 322.605804368 409.752445732 l 1
 326.763662304 418 l 1
 336 418 l 1
 349 418 l 1
 352.541019662 418 l 1
 355.708203932 416.416407865 l 1
 409.708203932 389.416407865 l 1
 423.093945762 382.72353695 l 1
 416.431723279 369.322514713 l 1
 332.760921216 201.01917723 l 1
 416.416407865 33.7082039325 l 1
 423.124611797 20.2917960675 l 1
 409.708203932 13.583592135 l 1
 355.708203932 -13.416407865 l 1
 352.541019662 -15 l 1
 349 -15 l 1
 336 -15 l 1
 326.763662304 -15 l 1
 322.605804368 -6.75244573199 l 1
 275.110880313 87.4587970658 l 1
 228.438546788 -6.66374220892 l 1
 224.304865239 -15 l 1
 215 -15 l 1
 134 -15 l 1
 127.786796564 -15 l 1
 123.393398282 -10.6066017178 l 1
EndSplineSet
Validated: 1
EndChar

StartChar: quotesingle
Encoding: 39 39 10
Width: 537
GlyphClass: 2
Flags: MW
LayerCount: 2
Fore
SplineSet
146 457 m 1
 146 725 l 1
 146 740 l 1
 161 740 l 1
 295 740 l 1
 310 740 l 1
 310 725 l 1
 310 671 l 1
 310 669.17016506 l 1
 309.560106736 667.393992257 l 1
 256.560106736 453.393992257 l 1
 253.738230149 442 l 1
 242 442 l 1
 161 442 l 1
 146 442 l 1
 146 457 l 1
EndSplineSet
Validated: 1
EndChar

StartChar: parenleft
Encoding: 40 40 11
Width: 537
GlyphClass: 2
Flags: MW
LayerCount: 2
Fore
SplineSet
204.459481114 -144.672275372 m 1
 123.459481114 -64.672275372 l 1
 120.008742787 -61.2641387528 l 1
 119.206582012 -56.4808837619 l 1
 92.2065820123 104.519116238 l 1
 92 105.750957126 l 1
 92 107 l 1
 92 564 l 1
 92 565.249042874 l 1
 92.2065820123 566.480883762 l 1
 119.206582012 727.480883762 l 1
 120.000241307 732.213444743 l 1
 123.393398282 735.606601718 l 1
 204.393398282 816.606601718 l 1
 206.114612791 818.327816227 l 1
 208.291796068 819.416407865 l 1
 262.291796068 846.416407865 l 1
 272.15541722 851.348218441 l 1
 279.804803202 843.404625306 l 1
 305.804803202 816.404625306 l 1
 315.951731545 805.867430489 l 1
 305.672275372 795.459481114 l 1
 229.008243297 717.837148638 l 1
 203 562.750957126 l 1
 203 108.249042874 l 1
 228.999758693 -46.7865552572 l 1
 305.606601718 -123.393398282 l 1
 316.014966674 -133.801763239 l 1
 305.804803202 -144.404625306 l 1
 279.804803202 -171.404625306 l 1
 272.15541722 -179.348218441 l 1
 262.291796068 -174.416407865 l 1
 208.291796068 -147.416407865 l 1
 206.157353932 -146.349186797 l 1
 204.459481114 -144.672275372 l 1
EndSplineSet
Validated: 1
EndChar

StartChar: parenright
Encoding: 41 41 12
Width: 537
GlyphClass: 2
Flags: MW
LayerCount: 2
Fore
SplineSet
96.4594811141 -123.327724628 m 1
 174.008742787 -46.7358612472 l 1
 200 108.249042874 l 1
 200 562.750957126 l 1
 174.000241307 717.786555257 l 1
 96.3933982822 795.393398282 l 1
 85.7867965644 806 l 1
 96.3933982822 816.606601718 l 1
 123.393398282 843.606601718 l 1
 131.038204264 851.251407699 l 1
 140.708203932 846.416407865 l 1
 194.708203932 819.416407865 l 1
 196.885387209 818.327816227 l 1
 198.606601718 816.606601718 l 1
 279.606601718 735.606601718 l 1
 283.035146037 732.178057399 l 1
 283.808150118 727.39137828 l 1
 309.808150118 566.39137828 l 1
 310 565.203384781 l 1
 310 564 l 1
 310 107 l 1
 310 105.796615219 l 1
 309.808150118 104.60862172 l 1
 283.808150118 -56.39137828 l 1
 283.026935237 -61.2289011981 l 1
 279.540518886 -64.672275372 l 1
 198.540518886 -144.672275372 l 1
 196.842646068 -146.349186797 l 1
 194.708203932 -147.416407865 l 1
 140.708203932 -174.416407865 l 1
 131.038204264 -179.251407699 l 1
 123.393398282 -171.606601718 l 1
 96.3933982822 -144.606601718 l 1
 85.7207124578 -133.933915893 l 1
 96.4594811141 -123.327724628 l 1
EndSplineSet
Validated: 1
EndChar

StartChar: asterisk
Encoding: 42 42 13
Width: 537
GlyphClass: 2
Flags: MW
LayerCount: 2
Fore
SplineSet
100.393625095 255.533158848 m 1
 47.3936250952 281.533158848 l 1
 33.8840214565 288.160511576 l 1
 40.5541710438 301.649036297 l 1
 124.007106557 470.409417001 l 1
 -6.85603299754 537.658530383 l 1
 -15 541.843624537 l 1
 -15 551 l 1
 -15 564 l 1
 -15 567.541019662 l 1
 -13.416407865 570.708203932 l 1
 13.583592135 624.708203932 l 1
 20.2917960675 638.124611797 l 1
 33.7082039325 631.416407865 l 1
 146 575.270509831 l 1
 146 725 l 1
 146 740 l 1
 161 740 l 1
 242 740 l 1
 257 740 l 1
 257 725 l 1
 257 575.270509831 l 1
 369.291796068 631.416407865 l 1
 382.708203932 638.124611797 l 1
 389.416407865 624.708203932 l 1
 416.416407865 570.708203932 l 1
 418 567.541019662 l 1
 418 564 l 1
 418 551 l 1
 418 541.78603222 l 1
 409.781416389 537.620448746 l 1
 277.14654571 470.394555388 l 1
 362.386857159 301.76698274 l 1
 369.285789791 288.119094273 l 1
 355.507234282 281.484974954 l 1
 301.507234282 255.484974954 l 1
 298.423055532 254 l 1
 295 254 l 1
 282 254 l 1
 272.755189394 254 l 1
 268.600279055 262.258525487 l 1
 201.083332112 396.45887682 l 1
 134.433053378 262.325190868 l 1
 130.296312574 254 l 1
 121 254 l 1
 107 254 l 1
 103.518910439 254 l 1
 100.393625095 255.533158848 l 1
EndSplineSet
Validated: 1
EndChar

StartChar: plus
Encoding: 43 43 14
Width: 537
GlyphClass: 2
Flags: MW
LayerCount: 2
Fore
SplineSet
146 73 m 1
 146 227 l 1
 0 227 l 1
 -15 227 l 1
 -15 242 l 1
 -15 322 l 1
 -15 337 l 1
 0 337 l 1
 146 337 l 1
 146 489 l 1
 146 504 l 1
 161 504 l 1
 242 504 l 1
 257 504 l 1
 257 489 l 1
 257 337 l 1
 403 337 l 1
 418 337 l 1
 418 322 l 1
 418 242 l 1
 418 227 l 1
 403 227 l 1
 257 227 l 1
 257 73 l 1
 257 58 l 1
 242 58 l 1
 161 58 l 1
 146 58 l 1
 146 73 l 1
EndSplineSet
Validated: 1
EndChar

StartChar: comma
Encoding: 44 44 15
Width: 537
GlyphClass: 2
Flags: MW
LayerCount: 2
Fore
SplineSet
96.3933982822 -110.393398282 m 1
 173 -33.7867965644 l 1
 173 -28 l 1
 134 -28 l 1
 119 -28 l 1
 119 -13 l 1
 119 121 l 1
 119 136 l 1
 134 136 l 1
 269 136 l 1
 284 136 l 1
 284 121 l 1
 284 -67 l 1
 284 -73.2132034356 l 1
 279.606601718 -77.6066017178 l 1
 171.606601718 -185.606601718 l 1
 161 -196.213203436 l 1
 150.393398282 -185.606601718 l 1
 96.3933982822 -131.606601718 l 1
 85.7867965644 -121 l 1
 96.3933982822 -110.393398282 l 1
EndSplineSet
Validated: 1
EndChar

StartChar: hyphen
Encoding: 45 45 16
Width: 537
GlyphClass: 2
Flags: MW
LayerCount: 2
Fore
SplineSet
39 242 m 1
 39 322 l 1
 39 337 l 1
 54 337 l 1
 349 337 l 1
 364 337 l 1
 364 322 l 1
 364 242 l 1
 364 227 l 1
 349 227 l 1
 54 227 l 1
 39 227 l 1
 39 242 l 1
EndSplineSet
Validated: 1
EndChar

StartChar: period
Encoding: 46 46 17
Width: 537
GlyphClass: 2
Flags: MW
LayerCount: 2
Fore
SplineSet
119 27 m 1
 119 161 l 1
 119 176 l 1
 134 176 l 1
 269 176 l 1
 284 176 l 1
 284 161 l 1
 284 27 l 1
 284 12 l 1
 269 12 l 1
 134 12 l 1
 119 12 l 1
 119 27 l 1
EndSplineSet
Validated: 1
EndChar

StartChar: slash
Encoding: 47 47 18
Width: 537
GlyphClass: 2
Flags: MW
LayerCount: 2
Fore
SplineSet
-6.50723428159 -120.515025046 m 1
 -60.5072342816 -94.5150250464 l 1
 -74.2320695357 -87.9067710351 l 1
 -67.4131858661 -74.285355935 l 1
 349.586814134 758.714644065 l 1
 353.734465304 767 l 1
 363 767 l 1
 376 767 l 1
 379.541019662 767 l 1
 382.708203932 765.416407865 l 1
 436.708203932 738.416407865 l 1
 450.137512187 731.701753738 l 1
 443.409954575 718.278904978 l 1
 26.4099545753 -113.721095022 l 1
 22.2605514791 -122 l 1
 13 -122 l 1
 0 -122 l 1
 -3.42305553178 -122 l 1
 -6.50723428159 -120.515025046 l 1
EndSplineSet
Validated: 1
EndChar

StartChar: zero
Encoding: 48 48 19
Width: 537
GlyphClass: 2
Flags: MW
LayerCount: 2
Fore
SplineSet
235.786796564 96 m 1
 307 167.213203436 l 1
 307 433.598187391 l 1
 96 172.693623075 l 1
 96 167.213203436 l 1
 167.213203436 96 l 1
 235.786796564 96 l 1
307 548.306376925 m 1
 307 557.8413023 l 1
 235.73215042 630 l 1
 167.26784958 630 l 1
 96 557.8413023 l 1
 96 287.401812609 l 1
 307 548.306376925 l 1
123.393398282 -10.6066017178 m 1
 -10.6066017178 123.393398282 l 1
 -15 127.786796564 l 1
 -15 134 l 1
 -15 591 l 1
 -15 597.213203436 l 1
 -10.6066017178 601.606601718 l 1
 123.393398282 735.606601718 l 1
 127.786796564 740 l 1
 134 740 l 1
 269 740 l 1
 275.213203436 740 l 1
 279.606601718 735.606601718 l 1
 413.606601718 601.606601718 l 1
 418 597.213203436 l 1
 418 591 l 1
 418 134 l 1
 418 127.786796564 l 1
 413.606601718 123.393398282 l 1
 279.606601718 -10.6066017178 l 1
 275.213203436 -15 l 1
 269 -15 l 1
 134 -15 l 1
 127.786796564 -15 l 1
 123.393398282 -10.6066017178 l 1
EndSplineSet
Validated: 1
EndChar

StartChar: one
Encoding: 49 49 20
Width: 537
GlyphClass: 2
Flags: MW
LayerCount: 2
Fore
SplineSet
12 0 m 1
 12 81 l 1
 12 96 l 1
 27 96 l 1
 146 96 l 1
 146 554.547252003 l 1
 64.6558194893 472.442845506 l 1
 54.0494477586 461.737348806 l 1
 43.3933982822 472.393398282 l 1
 -10.6066017178 526.393398282 l 1
 -21.2132034356 537 l 1
 -10.6066017178 547.606601718 l 1
 177.393398282 735.606601718 l 1
 181.786796564 740 l 1
 188 740 l 1
 242 740 l 1
 257 740 l 1
 257 725 l 1
 257 96 l 1
 376 96 l 1
 391 96 l 1
 391 81 l 1
 391 0 l 1
 391 -15 l 1
 376 -15 l 1
 27 -15 l 1
 12 -15 l 1
 12 0 l 1
EndSplineSet
Validated: 1
EndChar

StartChar: two
Encoding: 50 50 21
Width: 537
GlyphClass: 2
Flags: MW
LayerCount: 2
Fore
SplineSet
-15 0 m 1
 -15 161 l 1
 -15 167.213203436 l 1
 -10.6066017178 171.606601718 l 1
 307 489.213203436 l 1
 307 557.8413023 l 1
 235.73215042 630 l 1
 167.254111442 630 l 1
 64.6558194893 526.442845506 l 1
 54.0494477586 515.737348806 l 1
 43.3933982822 526.393398282 l 1
 -10.6066017178 580.393398282 l 1
 -21.2132034356 591 l 1
 -10.6066017178 601.606601718 l 1
 123.393398282 735.606601718 l 1
 127.786796564 740 l 1
 134 740 l 1
 269 740 l 1
 275.213203436 740 l 1
 279.606601718 735.606601718 l 1
 413.606601718 601.606601718 l 1
 418 597.213203436 l 1
 418 591 l 1
 418 457 l 1
 418 450.800415124 l 1
 413.623033294 446.409855354 l 1
 96 127.800415124 l 1
 96 96 l 1
 403 96 l 1
 418 96 l 1
 418 81 l 1
 418 0 l 1
 418 -15 l 1
 403 -15 l 1
 0 -15 l 1
 -15 -15 l 1
 -15 0 l 1
EndSplineSet
Validated: 1
EndChar

StartChar: three
Encoding: 51 51 22
Width: 537
GlyphClass: 2
Flags: MW
LayerCount: 2
Fore
SplineSet
330.213203436 389 m 1
 413.606601718 305.606601718 l 1
 418 301.213203436 l 1
 418 295 l 1
 418 134 l 1
 418 127.786796564 l 1
 413.606601718 123.393398282 l 1
 279.606601718 -10.6066017178 l 1
 275.213203436 -15 l 1
 269 -15 l 1
 134 -15 l 1
 127.786796564 -15 l 1
 123.393398282 -10.6066017178 l 1
 -10.6066017178 123.393398282 l 1
 -21.2132034356 134 l 1
 -10.6066017178 144.606601718 l 1
 43.3933982822 198.606601718 l 1
 54 209.213203436 l 1
 64.6066017178 198.606601718 l 1
 167.213203436 96 l 1
 235.786796564 96 l 1
 307 167.213203436 l 1
 307 262.786796564 l 1
 235.786796564 334 l 1
 134 334 l 1
 119 334 l 1
 119 349 l 1
 119 430 l 1
 119 445 l 1
 134 445 l 1
 235.786796564 445 l 1
 307 516.213203436 l 1
 307 557.8413023 l 1
 235.73215042 630 l 1
 167.254111442 630 l 1
 64.6558194893 526.442845506 l 1
 54.0494477586 515.737348806 l 1
 43.3933982822 526.393398282 l 1
 -10.6066017178 580.393398282 l 1
 -21.2132034356 591 l 1
 -10.6066017178 601.606601718 l 1
 123.393398282 735.606601718 l 1
 127.786796564 740 l 1
 134 740 l 1
 269 740 l 1
 275.213203436 740 l 1
 279.606601718 735.606601718 l 1
 413.606601718 601.606601718 l 1
 418 597.213203436 l 1
 418 591 l 1
 418 483 l 1
 418 476.786796564 l 1
 413.606601718 472.393398282 l 1
 330.213203436 389 l 1
EndSplineSet
Validated: 1
EndChar

StartChar: four
Encoding: 52 52 23
Width: 537
GlyphClass: 2
Flags: MW
LayerCount: 2
Fore
SplineSet
227 257 m 1
 227 473.650952385 l 1
 118.307318804 257 l 1
 227 257 l 1
227 0 m 1
 227 146 l 1
 0 146 l 1
 -15 146 l 1
 -15 161 l 1
 -15 215 l 1
 -15 218.541019662 l 1
 -13.416407865 221.708203932 l 1
 241.583592135 731.708203932 l 1
 245.729490169 740 l 1
 255 740 l 1
 322 740 l 1
 337 740 l 1
 337 725 l 1
 337 257 l 1
 403 257 l 1
 418 257 l 1
 418 242 l 1
 418 161 l 1
 418 146 l 1
 403 146 l 1
 337 146 l 1
 337 0 l 1
 337 -15 l 1
 322 -15 l 1
 242 -15 l 1
 227 -15 l 1
 227 0 l 1
EndSplineSet
Validated: 1
EndChar

StartChar: five
Encoding: 53 53 24
Width: 537
GlyphClass: 2
Flags: MW
LayerCount: 2
Fore
SplineSet
123.393398282 -10.6066017178 m 1
 -10.6066017178 123.393398282 l 1
 -21.2132034356 134 l 1
 -10.6066017178 144.606601718 l 1
 43.3933982822 198.606601718 l 1
 54 209.213203436 l 1
 64.6066017178 198.606601718 l 1
 167.213203436 96 l 1
 235.786796564 96 l 1
 307 167.213203436 l 1
 307 315.8413023 l 1
 235.73215042 388 l 1
 167.26784958 388 l 1
 91.672275372 311.459481114 l 1
 87.2678495803 307 l 1
 81 307 l 1
 0 307 l 1
 -15 307 l 1
 -15 322 l 1
 -15 725 l 1
 -15 740 l 1
 0 740 l 1
 403 740 l 1
 418 740 l 1
 418 725 l 1
 418 645 l 1
 418 630 l 1
 403 630 l 1
 96 630 l 1
 96 466.213203436 l 1
 123.393398282 493.606601718 l 1
 127.786796564 498 l 1
 134 498 l 1
 269 498 l 1
 275.213203436 498 l 1
 279.606601718 493.606601718 l 1
 413.606601718 359.606601718 l 1
 418 355.213203436 l 1
 418 349 l 1
 418 134 l 1
 418 127.786796564 l 1
 413.606601718 123.393398282 l 1
 279.606601718 -10.6066017178 l 1
 275.213203436 -15 l 1
 269 -15 l 1
 134 -15 l 1
 127.786796564 -15 l 1
 123.393398282 -10.6066017178 l 1
EndSplineSet
Validated: 1
EndChar

StartChar: six
Encoding: 54 54 25
Width: 537
GlyphClass: 2
Flags: MW
LayerCount: 2
Fore
SplineSet
235.786796564 96 m 1
 307 167.213203436 l 1
 307 315.8413023 l 1
 235.73215042 388 l 1
 167.26784958 388 l 1
 96 315.8413023 l 1
 96 167.213203436 l 1
 167.213203436 96 l 1
 235.786796564 96 l 1
123.393398282 -10.6066017178 m 1
 -10.6066017178 123.393398282 l 1
 -15 127.786796564 l 1
 -15 134 l 1
 -15 591 l 1
 -15 597.213203436 l 1
 -10.6066017178 601.606601718 l 1
 123.393398282 735.606601718 l 1
 127.786796564 740 l 1
 134 740 l 1
 269 740 l 1
 275.213203436 740 l 1
 279.606601718 735.606601718 l 1
 413.606601718 601.606601718 l 1
 424.213203436 591 l 1
 413.606601718 580.393398282 l 1
 359.606601718 526.393398282 l 1
 348.950552241 515.737348806 l 1
 338.344180511 526.442845506 l 1
 235.745888558 630 l 1
 167.26784958 630 l 1
 96 557.8413023 l 1
 96 466.213203436 l 1
 123.393398282 493.606601718 l 1
 127.786796564 498 l 1
 134 498 l 1
 269 498 l 1
 275.213203436 498 l 1
 279.606601718 493.606601718 l 1
 413.606601718 359.606601718 l 1
 418 355.213203436 l 1
 418 349 l 1
 418 134 l 1
 418 127.786796564 l 1
 413.606601718 123.393398282 l 1
 279.606601718 -10.6066017178 l 1
 275.213203436 -15 l 1
 269 -15 l 1
 134 -15 l 1
 127.786796564 -15 l 1
 123.393398282 -10.6066017178 l 1
EndSplineSet
Validated: 1
EndChar

StartChar: seven
Encoding: 55 55 26
Width: 537
GlyphClass: 2
Flags: MW
LayerCount: 2
Fore
SplineSet
47.2917960675 -13.416407865 m 1
 -6.7082039325 13.583592135 l 1
 -20.1246117975 20.2917960675 l 1
 -13.416407865 33.7082039325 l 1
 284.729490169 630 l 1
 0 630 l 1
 -15 630 l 1
 -15 645 l 1
 -15 725 l 1
 -15 740 l 1
 0 740 l 1
 403 740 l 1
 418 740 l 1
 418 725 l 1
 418 671 l 1
 418 667.454261317 l 1
 416.412407746 664.283801785 l 1
 80.4124077455 -6.71619821534 l 1
 76.2643341246 -15 l 1
 67 -15 l 1
 54 -15 l 1
 50.4589803375 -15 l 1
 47.2917960675 -13.416407865 l 1
EndSplineSet
Validated: 1
EndChar

StartChar: eight
Encoding: 56 56 27
Width: 537
GlyphClass: 2
Flags: MW
LayerCount: 2
Fore
SplineSet
235.786796564 96 m 1
 307 167.213203436 l 1
 307 262.786796564 l 1
 235.786796564 334 l 1
 167.213203436 334 l 1
 96 262.786796564 l 1
 96 167.213203436 l 1
 167.213203436 96 l 1
 235.786796564 96 l 1
235.786796564 449 m 1
 307 520.213203436 l 1
 307 561.8413023 l 1
 235.73215042 634 l 1
 167.26784958 634 l 1
 96 561.8413023 l 1
 96 520.213203436 l 1
 167.213203436 449 l 1
 235.786796564 449 l 1
329.994534097 392.781330661 m 1
 413.825223618 305.383377756 l 1
 418 301.030951315 l 1
 418 295 l 1
 418 134 l 1
 418 127.786796564 l 1
 413.606601718 123.393398282 l 1
 279.606601718 -10.6066017178 l 1
 275.213203436 -15 l 1
 269 -15 l 1
 134 -15 l 1
 127.786796564 -15 l 1
 123.393398282 -10.6066017178 l 1
 -10.6066017178 123.393398282 l 1
 -15 127.786796564 l 1
 -15 134 l 1
 -15 295 l 1
 -15 301.030951315 l 1
 -10.8252236179 305.383377756 l 1
 73.0054659033 392.781330661 l 1
 -10.6066017178 476.393398282 l 1
 -15 480.786796564 l 1
 -15 487 l 1
 -15 595 l 1
 -15 601.213203436 l 1
 -10.6066017178 605.606601718 l 1
 123.393398282 739.606601718 l 1
 127.786796564 744 l 1
 134 744 l 1
 269 744 l 1
 275.213203436 744 l 1
 279.606601718 739.606601718 l 1
 413.606601718 605.606601718 l 1
 418 601.213203436 l 1
 418 595 l 1
 418 487 l 1
 418 480.786796564 l 1
 413.606601718 476.393398282 l 1
 329.994534097 392.781330661 l 1
EndSplineSet
Validated: 1
EndChar

StartChar: nine
Encoding: 57 57 28
Width: 537
GlyphClass: 2
Flags: MW
LayerCount: 2
Fore
SplineSet
235.73215042 391 m 1
 307 463.1586977 l 1
 307 557.8413023 l 1
 235.73215042 630 l 1
 167.26784958 630 l 1
 96 557.8413023 l 1
 96 463.1586977 l 1
 167.26784958 391 l 1
 235.73215042 391 l 1
123.393398282 -10.6066017178 m 1
 -10.6066017178 123.393398282 l 1
 -21.2132034356 134 l 1
 -10.6066017178 144.606601718 l 1
 43.3933982822 198.606601718 l 1
 54 209.213203436 l 1
 64.6066017178 198.606601718 l 1
 167.213203436 96 l 1
 235.786796564 96 l 1
 307 167.213203436 l 1
 307 312.302717995 l 1
 279.705261327 284.492984253 l 1
 275.295480487 280 l 1
 269 280 l 1
 134 280 l 1
 127.754106838 280 l 1
 123.354042097 284.432901045 l 1
 -10.6459579028 419.432901045 l 1
 -15 423.819435993 l 1
 -15 430 l 1
 -15 591 l 1
 -15 597.213203436 l 1
 -10.6066017178 601.606601718 l 1
 123.393398282 735.606601718 l 1
 127.786796564 740 l 1
 134 740 l 1
 269 740 l 1
 275.213203436 740 l 1
 279.606601718 735.606601718 l 1
 413.606601718 601.606601718 l 1
 418 597.213203436 l 1
 418 591 l 1
 418 134 l 1
 418 127.786796564 l 1
 413.606601718 123.393398282 l 1
 279.606601718 -10.6066017178 l 1
 275.213203436 -15 l 1
 269 -15 l 1
 134 -15 l 1
 127.786796564 -15 l 1
 123.393398282 -10.6066017178 l 1
EndSplineSet
Validated: 1
EndChar

StartChar: colon
Encoding: 58 58 29
Width: 537
GlyphClass: 2
Flags: MW
LayerCount: 2
Fore
SplineSet
119 0 m 1
 119 134 l 1
 119 149 l 1
 134 149 l 1
 269 149 l 1
 284 149 l 1
 284 134 l 1
 284 0 l 1
 284 -15 l 1
 269 -15 l 1
 134 -15 l 1
 119 -15 l 1
 119 0 l 1
119 430 m 1
 119 564 l 1
 119 579 l 1
 134 579 l 1
 269 579 l 1
 284 579 l 1
 284 564 l 1
 284 430 l 1
 284 415 l 1
 269 415 l 1
 134 415 l 1
 119 415 l 1
 119 430 l 1
EndSplineSet
Validated: 1
EndChar

StartChar: semicolon
Encoding: 59 59 30
Width: 537
GlyphClass: 2
Flags: MW
LayerCount: 2
Fore
SplineSet
96.4594811141 -96.327724628 m 1
 173 -20.7321504197 l 1
 173 -15 l 1
 134 -15 l 1
 119 -15 l 1
 119 0 l 1
 119 134 l 1
 119 149 l 1
 134 149 l 1
 269 149 l 1
 284 149 l 1
 284 134 l 1
 284 -54 l 1
 284 -60.2541114417 l 1
 279.557154494 -64.6558194893 l 1
 171.557154494 -171.655819489 l 1
 160.950781696 -182.163985132 l 1
 150.393398282 -171.606601718 l 1
 96.3933982822 -117.606601718 l 1
 85.7207124578 -106.933915893 l 1
 96.4594811141 -96.327724628 l 1
119 430 m 1
 119 564 l 1
 119 579 l 1
 134 579 l 1
 269 579 l 1
 284 579 l 1
 284 564 l 1
 284 430 l 1
 284 415 l 1
 269 415 l 1
 134 415 l 1
 119 415 l 1
 119 430 l 1
EndSplineSet
Validated: 1
EndChar

StartChar: less
Encoding: 60 60 31
Width: 537
GlyphClass: 2
Flags: MW
LayerCount: 2
Fore
SplineSet
12 255 m 1
 12 309 l 1
 12 318.282400217 l 1
 20.3071862573 322.424091932 l 1
 369.307186257 496.424091932 l 1
 382.615453586 503.059159311 l 1
 389.365592453 489.808886721 l 1
 416.365592453 436.808886721 l 1
 418 433.60060524 l 1
 418 430 l 1
 418 416 l 1
 418 406.714059354 l 1
 409.688231635 402.573624555 l 1
 167.641179357 282 l 1
 409.688231635 161.426375445 l 1
 418 157.285940646 l 1
 418 148 l 1
 418 134 l 1
 418 130.39939476 l 1
 416.365592453 127.191113279 l 1
 389.365592453 74.1911132787 l 1
 382.615453586 60.9408406888 l 1
 369.307186257 67.5759080678 l 1
 20.3071862573 241.575908068 l 1
 12 245.717599783 l 1
 12 255 l 1
EndSplineSet
Validated: 1
EndChar

StartChar: equal
Encoding: 61 61 32
Width: 537
GlyphClass: 2
Flags: MW
LayerCount: 2
Fore
SplineSet
-15 161 m 1
 -15 242 l 1
 -15 257 l 1
 0 257 l 1
 403 257 l 1
 418 257 l 1
 418 242 l 1
 418 161 l 1
 418 146 l 1
 403 146 l 1
 0 146 l 1
 -15 146 l 1
 -15 161 l 1
-15 322 m 1
 -15 403 l 1
 -15 418 l 1
 0 418 l 1
 403 418 l 1
 418 418 l 1
 418 403 l 1
 418 322 l 1
 418 307 l 1
 403 307 l 1
 0 307 l 1
 -15 307 l 1
 -15 322 l 1
EndSplineSet
Validated: 1
EndChar

StartChar: greater
Encoding: 62 62 33
Width: 537
GlyphClass: 2
Flags: MW
LayerCount: 2
Fore
SplineSet
-15 134 m 1
 -15 148 l 1
 -15 157.285940646 l 1
 -6.68823163455 161.426375445 l 1
 235.358820643 282 l 1
 -6.68823163455 402.573624555 l 1
 -15 406.714059354 l 1
 -15 416 l 1
 -15 430 l 1
 -15 433.60060524 l 1
 -13.3655924529 436.808886721 l 1
 13.6344075471 489.808886721 l 1
 20.3845464137 503.059159311 l 1
 33.6928137427 496.424091932 l 1
 382.692813743 322.424091932 l 1
 391 318.282400217 l 1
 391 309 l 1
 391 255 l 1
 391 245.717599783 l 1
 382.692813743 241.575908068 l 1
 33.6928137427 67.5759080678 l 1
 20.3845464137 60.9408406888 l 1
 13.6344075471 74.1911132787 l 1
 -13.3655924529 127.191113279 l 1
 -15 130.39939476 l 1
 -15 134 l 1
EndSplineSet
Validated: 1
EndChar

StartChar: question
Encoding: 63 63 34
Width: 537
GlyphClass: 2
Flags: MW
LayerCount: 2
Fore
SplineSet
119 0 m 1
 119 134 l 1
 119 149 l 1
 134 149 l 1
 269 149 l 1
 284 149 l 1
 284 134 l 1
 284 0 l 1
 284 -15 l 1
 269 -15 l 1
 134 -15 l 1
 119 -15 l 1
 119 0 l 1
146 215 m 1
 146 322 l 1
 146 328.213203436 l 1
 150.393398282 332.606601718 l 1
 307 489.213203436 l 1
 307 557.8413023 l 1
 235.73215042 630 l 1
 167.254111442 630 l 1
 64.6558194893 526.442845506 l 1
 54.0494477586 515.737348806 l 1
 43.3933982822 526.393398282 l 1
 -10.6066017178 580.393398282 l 1
 -21.2132034356 591 l 1
 -10.6066017178 601.606601718 l 1
 123.393398282 735.606601718 l 1
 127.786796564 740 l 1
 134 740 l 1
 269 740 l 1
 275.213203436 740 l 1
 279.606601718 735.606601718 l 1
 413.606601718 601.606601718 l 1
 418 597.213203436 l 1
 418 591 l 1
 418 457 l 1
 418 450.813982772 l 1
 413.639388505 446.426286733 l 1
 257 288.813982772 l 1
 257 215 l 1
 257 200 l 1
 242 200 l 1
 161 200 l 1
 146 200 l 1
 146 215 l 1
EndSplineSet
Validated: 1
EndChar

StartChar: at
Encoding: 64 64 35
Width: 537
GlyphClass: 2
Flags: MW
LayerCount: 2
Fore
SplineSet
307 248.1586977 m 1
 307 388 l 1
 275.213203436 388 l 1
 230 342.786796564 l 1
 230 194.213203436 l 1
 241.933915893 182.279287542 l 1
 307 248.1586977 l 1
70.4329010446 -171.645957903 m 1
 -64.5670989554 -37.6459579028 l 1
 -69 -33.2458931622 l 1
 -69 -27 l 1
 -69 591 l 1
 -69 597.245893162 l 1
 -64.5670989554 601.645957903 l 1
 70.4329010446 735.645957903 l 1
 74.8194359933 740 l 1
 81 740 l 1
 269 740 l 1
 275.213203436 740 l 1
 279.606601718 735.606601718 l 1
 413.606601718 601.606601718 l 1
 418 597.213203436 l 1
 418 591 l 1
 418 81 l 1
 418 66 l 1
 403 66 l 1
 322 66 l 1
 307 66 l 1
 307 81 l 1
 307 97.7867965644 l 1
 279.606601718 70.3933982822 l 1
 275.213203436 66 l 1
 269 66 l 1
 215 66 l 1
 208.8413023 66 l 1
 204.459481114 70.327724628 l 1
 123.459481114 150.327724628 l 1
 119 154.73215042 l 1
 119 161 l 1
 119 376 l 1
 119 382.254111442 l 1
 123.442845506 386.655819489 l 1
 231.442845506 493.655819489 l 1
 235.827625834 498 l 1
 242 498 l 1
 307 498 l 1
 307 557.8413023 l 1
 235.73215042 630 l 1
 113.26784958 630 l 1
 42 557.8413023 l 1
 42 6.15869770006 l 1
 113.26784958 -66 l 1
 235.745888558 -66 l 1
 338.344180511 37.557154494 l 1
 348.950552241 48.2626511942 l 1
 359.606601718 37.6066017178 l 1
 413.606601718 -16.3933982822 l 1
 424.213203436 -27 l 1
 413.606601718 -37.6066017178 l 1
 279.606601718 -171.606601718 l 1
 275.213203436 -176 l 1
 269 -176 l 1
 81 -176 l 1
 74.8194359933 -176 l 1
 70.4329010446 -171.645957903 l 1
EndSplineSet
Validated: 1
EndChar

StartChar: A
Encoding: 65 65 36
Width: 537
GlyphClass: 2
Flags: MW
LayerCount: 2
Fore
SplineSet
307 337 m 1
 307 372.458980338 l 1
 201.055715826 584.347548685 l 1
 96 372.485188435 l 1
 96 337 l 1
 307 337 l 1
-15 0 m 1
 -15 376 l 1
 -15 379.550090715 l 1
 -13.4087149857 382.723567686 l 1
 161.591285014 731.723567686 l 1
 165.741358524 740 l 1
 175 740 l 1
 228 740 l 1
 237.258641476 740 l 1
 241.408714986 731.723567686 l 1
 416.408714986 382.723567686 l 1
 418 379.550090715 l 1
 418 376 l 1
 418 0 l 1
 418 -15 l 1
 403 -15 l 1
 322 -15 l 1
 307 -15 l 1
 307 0 l 1
 307 227 l 1
 96 227 l 1
 96 0 l 1
 96 -15 l 1
 81 -15 l 1
 0 -15 l 1
 -15 -15 l 1
 -15 0 l 1
EndSplineSet
Validated: 1
EndChar

StartChar: B
Encoding: 66 66 37
Width: 537
GlyphClass: 2
Flags: MW
LayerCount: 2
Fore
SplineSet
235.786796564 96 m 1
 307 167.213203436 l 1
 307 236.481088814 l 1
 235.069011756 321 l 1
 96 321 l 1
 96 96 l 1
 235.786796564 96 l 1
236.486344562 430 m 1
 307 489.936607123 l 1
 307 557.8413023 l 1
 235.73215042 630 l 1
 96 630 l 1
 96 430 l 1
 236.486344562 430 l 1
330.24327665 371.866841462 m 1
 414.128105149 279.058095038 l 1
 418 274.774296479 l 1
 418 269 l 1
 418 134 l 1
 418 127.786796564 l 1
 413.606601718 123.393398282 l 1
 279.606601718 -10.6066017178 l 1
 275.213203436 -15 l 1
 269 -15 l 1
 0 -15 l 1
 -15 -15 l 1
 -15 0 l 1
 -15 725 l 1
 -15 740 l 1
 0 740 l 1
 269 740 l 1
 275.213203436 740 l 1
 279.606601718 735.606601718 l 1
 413.606601718 601.606601718 l 1
 418 597.213203436 l 1
 418 591 l 1
 418 457 l 1
 418 450.28774318 l 1
 412.994964753 445.815158491 l 1
 330.24327665 371.866841462 l 1
EndSplineSet
Validated: 1
EndChar

StartChar: C
Encoding: 67 67 38
Width: 537
GlyphClass: 2
Flags: MW
LayerCount: 2
Fore
SplineSet
123.393398282 -10.6066017178 m 1
 -10.6066017178 123.393398282 l 1
 -15 127.786796564 l 1
 -15 134 l 1
 -15 591 l 1
 -15 597.213203436 l 1
 -10.6066017178 601.606601718 l 1
 123.393398282 735.606601718 l 1
 127.786796564 740 l 1
 134 740 l 1
 269 740 l 1
 275.213203436 740 l 1
 279.606601718 735.606601718 l 1
 413.606601718 601.606601718 l 1
 424.213203436 591 l 1
 413.606601718 580.393398282 l 1
 359.606601718 526.393398282 l 1
 348.950552241 515.737348806 l 1
 338.344180511 526.442845506 l 1
 235.745888558 630 l 1
 167.26784958 630 l 1
 96 557.8413023 l 1
 96 167.213203436 l 1
 167.213203436 96 l 1
 235.786796564 96 l 1
 338.393398282 198.606601718 l 1
 349 209.213203436 l 1
 358.94368911 199.269514325 l 1
 359.606601718 198.606601718 l 1
 413.606601718 144.606601718 l 1
 424.213203436 134 l 1
 413.606601718 123.393398282 l 1
 279.606601718 -10.6066017178 l 1
 275.213203436 -15 l 1
 269 -15 l 1
 134 -15 l 1
 127.786796564 -15 l 1
 123.393398282 -10.6066017178 l 1
EndSplineSet
Validated: 1
EndChar

StartChar: D
Encoding: 68 68 39
Width: 537
GlyphClass: 2
Flags: MW
LayerCount: 2
Fore
SplineSet
235.786796564 96 m 1
 307 167.213203436 l 1
 307 557.8413023 l 1
 235.73215042 630 l 1
 96 630 l 1
 96 96 l 1
 235.786796564 96 l 1
-15 0 m 1
 -15 725 l 1
 -15 740 l 1
 0 740 l 1
 269 740 l 1
 275.213203436 740 l 1
 279.606601718 735.606601718 l 1
 413.606601718 601.606601718 l 1
 418 597.213203436 l 1
 418 591 l 1
 418 134 l 1
 418 127.786796564 l 1
 413.606601718 123.393398282 l 1
 279.606601718 -10.6066017178 l 1
 275.213203436 -15 l 1
 269 -15 l 1
 0 -15 l 1
 -15 -15 l 1
 -15 0 l 1
EndSplineSet
Validated: 1
EndChar

StartChar: E
Encoding: 69 69 40
Width: 537
GlyphClass: 2
Flags: MW
LayerCount: 2
Fore
SplineSet
-15 0 m 1
 -15 725 l 1
 -15 740 l 1
 0 740 l 1
 403 740 l 1
 418 740 l 1
 418 725 l 1
 418 645 l 1
 418 630 l 1
 403 630 l 1
 96 630 l 1
 96 428 l 1
 322 428 l 1
 337 428 l 1
 337 413 l 1
 337 332 l 1
 337 317 l 1
 322 317 l 1
 96 317 l 1
 96 96 l 1
 403 96 l 1
 418 96 l 1
 418 81 l 1
 418 0 l 1
 418 -15 l 1
 403 -15 l 1
 0 -15 l 1
 -15 -15 l 1
 -15 0 l 1
EndSplineSet
Validated: 1
EndChar

StartChar: F
Encoding: 70 70 41
Width: 537
GlyphClass: 2
Flags: MW
LayerCount: 2
Fore
SplineSet
-15 0 m 1
 -15 725 l 1
 -15 740 l 1
 0 740 l 1
 403 740 l 1
 418 740 l 1
 418 725 l 1
 418 645 l 1
 418 630 l 1
 403 630 l 1
 96 630 l 1
 96 429 l 1
 322 429 l 1
 337 429 l 1
 337 414 l 1
 337 333 l 1
 337 318 l 1
 322 318 l 1
 96 318 l 1
 96 0 l 1
 96 -15 l 1
 81 -15 l 1
 0 -15 l 1
 -15 -15 l 1
 -15 0 l 1
EndSplineSet
Validated: 1
EndChar

StartChar: G
Encoding: 71 71 42
Width: 537
GlyphClass: 2
Flags: MW
LayerCount: 2
Fore
SplineSet
123.393398282 -10.6066017178 m 1
 -10.6066017178 123.393398282 l 1
 -15 127.786796564 l 1
 -15 134 l 1
 -15 591 l 1
 -15 597.213203436 l 1
 -10.6066017178 601.606601718 l 1
 123.393398282 735.606601718 l 1
 127.786796564 740 l 1
 134 740 l 1
 269 740 l 1
 275.213203436 740 l 1
 279.606601718 735.606601718 l 1
 413.606601718 601.606601718 l 1
 424.213203436 591 l 1
 413.606601718 580.393398282 l 1
 359.606601718 526.393398282 l 1
 348.950552241 515.737348806 l 1
 338.344180511 526.442845506 l 1
 235.745888558 630 l 1
 167.26784958 630 l 1
 96 557.8413023 l 1
 96 167.213203436 l 1
 167.213203436 96 l 1
 208.786796564 96 l 1
 307 194.213203436 l 1
 307 307 l 1
 161 307 l 1
 146 307 l 1
 146 322 l 1
 146 403 l 1
 146 418 l 1
 161 418 l 1
 403 418 l 1
 418 418 l 1
 418 403 l 1
 418 0 l 1
 418 -15 l 1
 403 -15 l 1
 322 -15 l 1
 307 -15 l 1
 307 0 l 1
 307 44.4663022999 l 1
 252.672275372 -10.5405188859 l 1
 248.26784958 -15 l 1
 242 -15 l 1
 134 -15 l 1
 127.786796564 -15 l 1
 123.393398282 -10.6066017178 l 1
EndSplineSet
Validated: 1
EndChar

StartChar: H
Encoding: 72 72 43
Width: 537
GlyphClass: 2
Flags: MW
LayerCount: 2
Fore
SplineSet
-15 0 m 1
 -15 725 l 1
 -15 740 l 1
 0 740 l 1
 81 740 l 1
 96 740 l 1
 96 725 l 1
 96 424 l 1
 307 424 l 1
 307 725 l 1
 307 740 l 1
 322 740 l 1
 403 740 l 1
 418 740 l 1
 418 725 l 1
 418 0 l 1
 418 -15 l 1
 403 -15 l 1
 322 -15 l 1
 307 -15 l 1
 307 0 l 1
 307 313 l 1
 96 313 l 1
 96 0 l 1
 96 -15 l 1
 81 -15 l 1
 0 -15 l 1
 -15 -15 l 1
 -15 0 l 1
EndSplineSet
Validated: 1
EndChar

StartChar: I
Encoding: 73 73 44
Width: 537
GlyphClass: 2
Flags: MW
LayerCount: 2
Fore
SplineSet
39 0 m 1
 39 81 l 1
 39 96 l 1
 54 96 l 1
 146 96 l 1
 146 630 l 1
 54 630 l 1
 39 630 l 1
 39 645 l 1
 39 725 l 1
 39 740 l 1
 54 740 l 1
 349 740 l 1
 364 740 l 1
 364 725 l 1
 364 645 l 1
 364 630 l 1
 349 630 l 1
 257 630 l 1
 257 96 l 1
 349 96 l 1
 364 96 l 1
 364 81 l 1
 364 0 l 1
 364 -15 l 1
 349 -15 l 1
 54 -15 l 1
 39 -15 l 1
 39 0 l 1
EndSplineSet
Validated: 1
EndChar

StartChar: J
Encoding: 74 74 45
Width: 537
GlyphClass: 2
Flags: MW
LayerCount: 2
Fore
SplineSet
123.393398282 -10.6066017178 m 1
 -10.6066017178 123.393398282 l 1
 -21.2132034356 134 l 1
 -10.6066017178 144.606601718 l 1
 43.3933982822 198.606601718 l 1
 54 209.213203436 l 1
 64.6066017178 198.606601718 l 1
 167.213203436 96 l 1
 235.786796564 96 l 1
 307 167.213203436 l 1
 307 725 l 1
 307 740 l 1
 322 740 l 1
 403 740 l 1
 418 740 l 1
 418 725 l 1
 418 134 l 1
 418 127.786796564 l 1
 413.606601718 123.393398282 l 1
 279.606601718 -10.6066017178 l 1
 275.213203436 -15 l 1
 269 -15 l 1
 134 -15 l 1
 127.786796564 -15 l 1
 123.393398282 -10.6066017178 l 1
EndSplineSet
Validated: 1
EndChar

StartChar: K
Encoding: 75 75 46
Width: 537
GlyphClass: 2
Flags: MW
LayerCount: 2
Fore
SplineSet
-15 0 m 1
 -15 725 l 1
 -15 740 l 1
 0 740 l 1
 81 740 l 1
 96 740 l 1
 96 725 l 1
 96 422 l 1
 165.781428087 422 l 1
 322.61742795 731.775453145 l 1
 326.781428087 740 l 1
 336 740 l 1
 349 740 l 1
 352.541019662 740 l 1
 355.708203932 738.416407865 l 1
 409.708203932 711.416407865 l 1
 423.205676968 704.667671347 l 1
 416.375754299 691.211097516 l 1
 251.775753367 366.909905205 l 1
 416.44790073 33.6448450665 l 1
 423.061476111 20.2602282242 l 1
 409.708203932 13.583592135 l 1
 355.708203932 -13.416407865 l 1
 352.541019662 -15 l 1
 349 -15 l 1
 336 -15 l 1
 326.678417773 -15 l 1
 322.550750223 -6.64211415375 l 1
 165.678417773 311 l 1
 96 311 l 1
 96 0 l 1
 96 -15 l 1
 81 -15 l 1
 0 -15 l 1
 -15 -15 l 1
 -15 0 l 1
EndSplineSet
Validated: 1
EndChar

StartChar: L
Encoding: 76 76 47
Width: 537
GlyphClass: 2
Flags: MW
LayerCount: 2
Fore
SplineSet
-15 0 m 1
 -15 725 l 1
 -15 740 l 1
 0 740 l 1
 81 740 l 1
 96 740 l 1
 96 725 l 1
 96 96 l 1
 403 96 l 1
 418 96 l 1
 418 81 l 1
 418 0 l 1
 418 -15 l 1
 403 -15 l 1
 0 -15 l 1
 -15 -15 l 1
 -15 0 l 1
EndSplineSet
Validated: 1
EndChar

StartChar: M
Encoding: 77 77 48
Width: 537
GlyphClass: 2
Flags: MW
LayerCount: 2
Fore
SplineSet
-15 0 m 1
 -15 725 l 1
 -15 740 l 1
 0 740 l 1
 67 740 l 1
 76.2705098312 740 l 1
 80.416407865 731.708203932 l 1
 201.049837957 490.441343748 l 1
 322.603646289 731.74816325 l 1
 326.7603551 740 l 1
 336 740 l 1
 403 740 l 1
 418 740 l 1
 418 725 l 1
 418 0 l 1
 418 -15 l 1
 403 -15 l 1
 322 -15 l 1
 307 -15 l 1
 307 0 l 1
 307 473.458980338 l 1
 241.416407865 342.291796068 l 1
 237.270509831 334 l 1
 228 334 l 1
 175 334 l 1
 165.729490169 334 l 1
 161.583592135 342.291796068 l 1
 96 473.458980338 l 1
 96 0 l 1
 96 -15 l 1
 81 -15 l 1
 0 -15 l 1
 -15 -15 l 1
 -15 0 l 1
EndSplineSet
Validated: 1
EndChar

StartChar: N
Encoding: 78 78 49
Width: 537
GlyphClass: 2
Flags: MW
LayerCount: 2
Fore
SplineSet
-15 0 m 1
 -15 725 l 1
 -15 740 l 1
 0 740 l 1
 67 740 l 1
 76.2705098312 740 l 1
 80.416407865 731.708203932 l 1
 307 278.541019662 l 1
 307 725 l 1
 307 740 l 1
 322 740 l 1
 403 740 l 1
 418 740 l 1
 418 725 l 1
 418 0 l 1
 418 -15 l 1
 403 -15 l 1
 349 -15 l 1
 339.721765034 -15 l 1
 335.5785972 -6.69820474959 l 1
 96 473.352939639 l 1
 96 0 l 1
 96 -15 l 1
 81 -15 l 1
 0 -15 l 1
 -15 -15 l 1
 -15 0 l 1
EndSplineSet
Validated: 1
EndChar

StartChar: O
Encoding: 79 79 50
Width: 537
GlyphClass: 2
Flags: MW
LayerCount: 2
Fore
SplineSet
235.786796564 96 m 1
 307 167.213203436 l 1
 307 557.8413023 l 1
 235.73215042 630 l 1
 167.26784958 630 l 1
 96 557.8413023 l 1
 96 167.213203436 l 1
 167.213203436 96 l 1
 235.786796564 96 l 1
123.393398282 -10.6066017178 m 1
 -10.6066017178 123.393398282 l 1
 -15 127.786796564 l 1
 -15 134 l 1
 -15 591 l 1
 -15 597.213203436 l 1
 -10.6066017178 601.606601718 l 1
 123.393398282 735.606601718 l 1
 127.786796564 740 l 1
 134 740 l 1
 269 740 l 1
 275.213203436 740 l 1
 279.606601718 735.606601718 l 1
 413.606601718 601.606601718 l 1
 418 597.213203436 l 1
 418 591 l 1
 418 134 l 1
 418 127.786796564 l 1
 413.606601718 123.393398282 l 1
 279.606601718 -10.6066017178 l 1
 275.213203436 -15 l 1
 269 -15 l 1
 134 -15 l 1
 127.786796564 -15 l 1
 123.393398282 -10.6066017178 l 1
EndSplineSet
Validated: 1
EndChar

StartChar: P
Encoding: 80 80 51
Width: 537
GlyphClass: 2
Flags: MW
LayerCount: 2
Fore
SplineSet
235.786796564 418 m 1
 307 489.213203436 l 1
 307 557.8413023 l 1
 235.73215042 630 l 1
 96 630 l 1
 96 418 l 1
 235.786796564 418 l 1
-15 0 m 1
 -15 725 l 1
 -15 740 l 1
 0 740 l 1
 269 740 l 1
 275.213203436 740 l 1
 279.606601718 735.606601718 l 1
 413.606601718 601.606601718 l 1
 418 597.213203436 l 1
 418 591 l 1
 418 457 l 1
 418 450.819435993 l 1
 413.645957903 446.432901045 l 1
 279.645957903 311.432901045 l 1
 275.245893162 307 l 1
 269 307 l 1
 96 307 l 1
 96 0 l 1
 96 -15 l 1
 81 -15 l 1
 0 -15 l 1
 -15 -15 l 1
 -15 0 l 1
EndSplineSet
Validated: 1
EndChar

StartChar: Q
Encoding: 81 81 52
Width: 537
GlyphClass: 2
Flags: MW
LayerCount: 2
Fore
SplineSet
307 171.213203436 m 1
 307 557.8413023 l 1
 235.73215042 630 l 1
 167.26784958 630 l 1
 96 557.8413023 l 1
 96 167.213203436 l 1
 167.213203436 96 l 1
 231.786796564 96 l 1
 150.393398282 177.393398282 l 1
 139.786796564 188 l 1
 150.393398282 198.606601718 l 1
 204.393398282 252.606601718 l 1
 215 263.213203436 l 1
 225.606601718 252.606601718 l 1
 307 171.213203436 l 1
309 18.7867965644 m 1
 279.606601718 -10.6066017178 l 1
 275.213203436 -15 l 1
 269 -15 l 1
 134 -15 l 1
 127.786796564 -15 l 1
 123.393398282 -10.6066017178 l 1
 -10.6066017178 123.393398282 l 1
 -15 127.786796564 l 1
 -15 134 l 1
 -15 591 l 1
 -15 597.213203436 l 1
 -10.6066017178 601.606601718 l 1
 123.393398282 735.606601718 l 1
 127.786796564 740 l 1
 134 740 l 1
 269 740 l 1
 275.213203436 740 l 1
 279.606601718 735.606601718 l 1
 413.606601718 601.606601718 l 1
 418 597.213203436 l 1
 418 591 l 1
 418 134 l 1
 418 127.786796564 l 1
 413.606601718 123.393398282 l 1
 384.213203436 94 l 1
 467.606601718 10.6066017178 l 1
 478.213203436 2.84217094304e-014 l 1
 468.269514325 -9.94368911044 l 1
 467.606601718 -10.6066017178 l 1
 413.606601718 -64.6066017178 l 1
 403 -75.2132034356 l 1
 392.393398282 -64.6066017178 l 1
 309 18.7867965644 l 1
EndSplineSet
Validated: 1
EndChar

StartChar: R
Encoding: 82 82 53
Width: 537
GlyphClass: 2
Flags: MW
LayerCount: 2
Fore
SplineSet
236.010872278 422 m 1
 307 489.439671336 l 1
 307 557.8413023 l 1
 235.73215042 630 l 1
 96 630 l 1
 96 422 l 1
 236.010872278 422 l 1
-15 0 m 1
 -15 725 l 1
 -15 740 l 1
 0 740 l 1
 269 740 l 1
 275.213203436 740 l 1
 279.606601718 735.606601718 l 1
 413.606601718 601.606601718 l 1
 418 597.213203436 l 1
 418 591 l 1
 418 457 l 1
 418 450.687092824 l 1
 413.485855072 446.274010842 l 1
 279.485855072 315.274010842 l 1
 277.841758255 313.666722163 l 1
 416.443275854 33.6541967439 l 1
 423.0707669 20.2648736185 l 1
 409.708203932 13.583592135 l 1
 355.708203932 -13.416407865 l 1
 352.541019662 -15 l 1
 349 -15 l 1
 336 -15 l 1
 326.678417773 -15 l 1
 322.550750223 -6.64211415375 l 1
 165.678417773 311 l 1
 96 311 l 1
 96 0 l 1
 96 -15 l 1
 81 -15 l 1
 0 -15 l 1
 -15 -15 l 1
 -15 0 l 1
EndSplineSet
Validated: 1
EndChar

StartChar: S
Encoding: 83 83 54
Width: 537
GlyphClass: 2
Flags: MW
LayerCount: 2
Fore
SplineSet
123.393398282 -10.6066017178 m 1
 -10.6066017178 123.393398282 l 1
 -21.2132034356 134 l 1
 -10.6066017178 144.606601718 l 1
 43.3933982822 198.606601718 l 1
 54 209.213203436 l 1
 64.6066017178 198.606601718 l 1
 167.213203436 96 l 1
 235.786796564 96 l 1
 307 167.213203436 l 1
 307 240.151776721 l 1
 235.303764745 318.121432561 l 1
 133.72226984 320.002571355 l 1
 127.837299782 320.111552282 l 1
 123.596924543 324.193704564 l 1
 -10.4030754567 453.193704564 l 1
 -15 457.619102072 l 1
 -15 464 l 1
 -15 591 l 1
 -15 597.213203436 l 1
 -10.6066017178 601.606601718 l 1
 123.393398282 735.606601718 l 1
 127.786796564 740 l 1
 134 740 l 1
 269 740 l 1
 275.213203436 740 l 1
 279.606601718 735.606601718 l 1
 413.606601718 601.606601718 l 1
 424.213203436 591 l 1
 413.606601718 580.393398282 l 1
 359.606601718 526.393398282 l 1
 348.950552241 515.737348806 l 1
 338.344180511 526.442845506 l 1
 235.745888558 630 l 1
 167.26784958 630 l 1
 96 557.8413023 l 1
 96 498.439671336 l 1
 167.105434894 430.889508187 l 1
 269.27773016 428.997428645 l 1
 275.550861648 428.881259543 l 1
 279.873066 424.333268397 l 1
 413.873066 283.333268397 l 1
 418 278.990748292 l 1
 418 273 l 1
 418 134 l 1
 418 127.786796564 l 1
 413.606601718 123.393398282 l 1
 279.606601718 -10.6066017178 l 1
 275.213203436 -15 l 1
 269 -15 l 1
 134 -15 l 1
 127.786796564 -15 l 1
 123.393398282 -10.6066017178 l 1
EndSplineSet
Validated: 1
EndChar

StartChar: T
Encoding: 84 84 55
Width: 537
GlyphClass: 2
Flags: MW
LayerCount: 2
Fore
SplineSet
146 0 m 1
 146 630 l 1
 0 630 l 1
 -15 630 l 1
 -15 645 l 1
 -15 725 l 1
 -15 740 l 1
 0 740 l 1
 403 740 l 1
 418 740 l 1
 418 725 l 1
 418 645 l 1
 418 630 l 1
 403 630 l 1
 257 630 l 1
 257 0 l 1
 257 -15 l 1
 242 -15 l 1
 161 -15 l 1
 146 -15 l 1
 146 0 l 1
EndSplineSet
Validated: 1
EndChar

StartChar: U
Encoding: 85 85 56
Width: 537
GlyphClass: 2
Flags: MW
LayerCount: 2
Fore
SplineSet
123.393398282 -10.6066017178 m 1
 -10.6066017178 123.393398282 l 1
 -15 127.786796564 l 1
 -15 134 l 1
 -15 725 l 1
 -15 740 l 1
 0 740 l 1
 81 740 l 1
 96 740 l 1
 96 725 l 1
 96 167.213203436 l 1
 167.213203436 96 l 1
 235.786796564 96 l 1
 307 167.213203436 l 1
 307 725 l 1
 307 740 l 1
 322 740 l 1
 403 740 l 1
 418 740 l 1
 418 725 l 1
 418 134 l 1
 418 127.786796564 l 1
 413.606601718 123.393398282 l 1
 279.606601718 -10.6066017178 l 1
 275.213203436 -15 l 1
 269 -15 l 1
 134 -15 l 1
 127.786796564 -15 l 1
 123.393398282 -10.6066017178 l 1
EndSplineSet
Validated: 1
EndChar

StartChar: V
Encoding: 86 86 57
Width: 537
GlyphClass: 2
Flags: MW
LayerCount: 2
Fore
SplineSet
161.591285014 -6.72356768625 m 1
 -13.4087149857 342.276432314 l 1
 -15 345.449909285 l 1
 -15 349 l 1
 -15 725 l 1
 -15 740 l 1
 0 740 l 1
 81 740 l 1
 96 740 l 1
 96 725 l 1
 96 352.514811565 l 1
 201.055715826 140.652451315 l 1
 307 352.541019662 l 1
 307 725 l 1
 307 740 l 1
 322 740 l 1
 403 740 l 1
 418 740 l 1
 418 725 l 1
 418 349 l 1
 418 345.449909285 l 1
 416.408714986 342.276432314 l 1
 241.408714986 -6.72356768625 l 1
 237.258641476 -15 l 1
 228 -15 l 1
 175 -15 l 1
 165.741358524 -15 l 1
 161.591285014 -6.72356768625 l 1
EndSplineSet
Validated: 1
EndChar

StartChar: W
Encoding: 87 87 58
Width: 537
GlyphClass: 2
Flags: MW
LayerCount: 2
Fore
SplineSet
-15 0 m 1
 -15 725 l 1
 -15 740 l 1
 0 740 l 1
 81 740 l 1
 96 740 l 1
 96 725 l 1
 96 251.541019662 l 1
 161.583592135 382.708203932 l 1
 165.729490169 391 l 1
 175 391 l 1
 228 391 l 1
 237.270509831 391 l 1
 241.416407865 382.708203932 l 1
 307 251.541019662 l 1
 307 725 l 1
 307 740 l 1
 322 740 l 1
 403 740 l 1
 418 740 l 1
 418 725 l 1
 418 0 l 1
 418 -15 l 1
 403 -15 l 1
 336 -15 l 1
 326.744883902 -15 l 1
 322.593574548 -6.72813173229 l 1
 201.049875205 235.458943256 l 1
 80.4263754455 -6.68823163455 l 1
 76.2859406463 -15 l 1
 67 -15 l 1
 0 -15 l 1
 -15 -15 l 1
 -15 0 l 1
EndSplineSet
Validated: 1
EndChar

StartChar: X
Encoding: 88 88 59
Width: 537
GlyphClass: 2
Flags: MW
LayerCount: 2
Fore
SplineSet
47.2917960675 -13.416407865 m 1
 -6.7082039325 13.583592135 l 1
 -20.1246117975 20.2917960675 l 1
 -13.416407865 33.7082039325 l 1
 146 352.541019662 l 1
 146 372.458980338 l 1
 -13.416407865 691.291796068 l 1
 -20.1246117975 704.708203932 l 1
 -6.7082039325 711.416407865 l 1
 47.2917960675 738.416407865 l 1
 50.4589803375 740 l 1
 54 740 l 1
 67 740 l 1
 76.2705098312 740 l 1
 80.416407865 731.708203932 l 1
 201.049837957 490.441343748 l 1
 322.603646289 731.74816325 l 1
 326.7603551 740 l 1
 336 740 l 1
 349 740 l 1
 352.541019662 740 l 1
 355.708203932 738.416407865 l 1
 409.708203932 711.416407865 l 1
 423.124611797 704.708203932 l 1
 416.416407865 691.291796068 l 1
 257 372.458980338 l 1
 257 352.541019662 l 1
 416.416407865 33.7082039325 l 1
 423.124611797 20.2917960675 l 1
 409.708203932 13.583592135 l 1
 355.708203932 -13.416407865 l 1
 352.541019662 -15 l 1
 349 -15 l 1
 336 -15 l 1
 326.744883902 -15 l 1
 322.593574548 -6.72813173229 l 1
 201.049875205 235.458943256 l 1
 80.4263754455 -6.68823163455 l 1
 76.2859406463 -15 l 1
 67 -15 l 1
 54 -15 l 1
 50.4589803375 -15 l 1
 47.2917960675 -13.416407865 l 1
EndSplineSet
Validated: 1
EndChar

StartChar: Y
Encoding: 89 89 60
Width: 537
GlyphClass: 2
Flags: MW
LayerCount: 2
Fore
SplineSet
146 0 m 1
 146 372.458980338 l 1
 -13.416407865 691.291796068 l 1
 -20.1246117975 704.708203932 l 1
 -6.7082039325 711.416407865 l 1
 47.2917960675 738.416407865 l 1
 50.4589803375 740 l 1
 54 740 l 1
 67 740 l 1
 76.2705098312 740 l 1
 80.416407865 731.708203932 l 1
 201.049837957 490.441343748 l 1
 322.603646289 731.74816325 l 1
 326.7603551 740 l 1
 336 740 l 1
 349 740 l 1
 352.541019662 740 l 1
 355.708203932 738.416407865 l 1
 409.708203932 711.416407865 l 1
 423.124611797 704.708203932 l 1
 416.416407865 691.291796068 l 1
 257 372.458980338 l 1
 257 0 l 1
 257 -15 l 1
 242 -15 l 1
 161 -15 l 1
 146 -15 l 1
 146 0 l 1
EndSplineSet
Validated: 1
EndChar

StartChar: Z
Encoding: 90 90 61
Width: 537
GlyphClass: 2
Flags: MW
LayerCount: 2
Fore
SplineSet
-15 0 m 1
 -15 54 l 1
 -15 57.5356592515 l 1
 -13.4209465655 60.699118844 l 1
 270.747851981 630 l 1
 0 630 l 1
 -15 630 l 1
 -15 645 l 1
 -15 725 l 1
 -15 740 l 1
 0 740 l 1
 403 740 l 1
 418 740 l 1
 418 725 l 1
 418 698 l 1
 418 694.453848409 l 1
 416.412057541 691.283102463 l 1
 118.288105092 96 l 1
 403 96 l 1
 418 96 l 1
 418 81 l 1
 418 0 l 1
 418 -15 l 1
 403 -15 l 1
 0 -15 l 1
 -15 -15 l 1
 -15 0 l 1
EndSplineSet
Validated: 1
EndChar

StartChar: bracketleft
Encoding: 91 91 62
Width: 537
GlyphClass: 2
Flags: MW
LayerCount: 2
Fore
SplineSet
39 -134 m 1
 39 806 l 1
 39 821 l 1
 54 821 l 1
 322 821 l 1
 337 821 l 1
 337 806 l 1
 337 725 l 1
 337 710 l 1
 322 710 l 1
 149 710 l 1
 149 -39 l 1
 322 -39 l 1
 337 -39 l 1
 337 -54 l 1
 337 -134 l 1
 337 -149 l 1
 322 -149 l 1
 54 -149 l 1
 39 -149 l 1
 39 -134 l 1
EndSplineSet
Validated: 1
EndChar

StartChar: backslash
Encoding: 92 92 63
Width: 537
GlyphClass: 2
Flags: MW
LayerCount: 2
Fore
SplineSet
375.583592135 -113.708203932 m 1
 -40.416407865 718.291796068 l 1
 -47.1246117975 731.708203932 l 1
 -33.7082039325 738.416407865 l 1
 20.2917960675 765.416407865 l 1
 23.4589803375 767 l 1
 27 767 l 1
 40 767 l 1
 49.2655346958 767 l 1
 53.4131858661 758.714644065 l 1
 470.413185866 -74.285355935 l 1
 477.232069536 -87.9067710351 l 1
 463.507234282 -94.5150250464 l 1
 409.507234282 -120.515025046 l 1
 406.423055532 -122 l 1
 403 -122 l 1
 389 -122 l 1
 379.729490169 -122 l 1
 375.583592135 -113.708203932 l 1
EndSplineSet
Validated: 1
EndChar

StartChar: bracketright
Encoding: 93 93 64
Width: 537
GlyphClass: 2
Flags: MW
LayerCount: 2
Fore
SplineSet
12 -134 m 1
 12 -54 l 1
 12 -39 l 1
 27 -39 l 1
 200 -39 l 1
 200 710 l 1
 27 710 l 1
 12 710 l 1
 12 725 l 1
 12 806 l 1
 12 821 l 1
 27 821 l 1
 295 821 l 1
 310 821 l 1
 310 806 l 1
 310 -134 l 1
 310 -149 l 1
 295 -149 l 1
 27 -149 l 1
 12 -149 l 1
 12 -134 l 1
EndSplineSet
Validated: 1
EndChar

StartChar: asciicircum
Encoding: 94 94 65
Width: 537
GlyphClass: 2
Flags: MW
LayerCount: 2
Fore
SplineSet
47.2917960675 335.583592135 m 1
 -6.7082039325 362.583592135 l 1
 -20.1399887642 369.299484551 l 1
 -13.4087149857 382.723567686 l 1
 161.591285014 731.723567686 l 1
 165.741358524 740 l 1
 175 740 l 1
 228 740 l 1
 237.258641476 740 l 1
 241.408714986 731.723567686 l 1
 416.408714986 382.723567686 l 1
 423.139988764 369.299484551 l 1
 409.708203932 362.583592135 l 1
 355.708203932 335.583592135 l 1
 352.541019662 334 l 1
 349 334 l 1
 336 334 l 1
 326.744883902 334 l 1
 322.593574548 342.271868268 l 1
 201.049875205 584.458943256 l 1
 80.4263754455 342.311768365 l 1
 76.2859406463 334 l 1
 67 334 l 1
 54 334 l 1
 50.4589803375 334 l 1
 47.2917960675 335.583592135 l 1
EndSplineSet
Validated: 1
EndChar

StartChar: underscore
Encoding: 95 95 66
Width: 537
GlyphClass: 2
Flags: MW
LayerCount: 2
Fore
SplineSet
-42 -107 m 1
 -42 -27 l 1
 -42 -12 l 1
 -27 -12 l 1
 483 -12 l 1
 498 -12 l 1
 498 -27 l 1
 498 -107 l 1
 498 -122 l 1
 483 -122 l 1
 -27 -122 l 1
 -42 -122 l 1
 -42 -107 l 1
EndSplineSet
Validated: 1
EndChar

StartChar: grave
Encoding: 96 96 67
Width: 537
GlyphClass: 2
Flags: MW
LayerCount: 2
Fore
SplineSet
187.572467465 450.314091684 m 1
 67.5724674647 691.314091684 l 1
 60.947654347 704.618924695 l 1
 74.1911132787 711.365592453 l 1
 127.191113279 738.365592453 l 1
 130.39939476 740 l 1
 134 740 l 1
 148 740 l 1
 157.270509831 740 l 1
 161.416407865 731.708203932 l 1
 282.416407865 489.708203932 l 1
 289.225481385 476.090056892 l 1
 275.507234282 469.484974954 l 1
 221.507234282 443.484974954 l 1
 218.423055532 442 l 1
 215 442 l 1
 201 442 l 1
 191.712264154 442 l 1
 187.572467465 450.314091684 l 1
EndSplineSet
Validated: 1
EndChar

StartChar: a
Encoding: 97 97 68
Width: 537
GlyphClass: 2
Flags: MW
LayerCount: 2
Fore
SplineSet
208.786796564 96 m 1
 307 194.213203436 l 1
 307 254 l 1
 167.26784958 254 l 1
 96 181.8413023 l 1
 96 167.213203436 l 1
 167.213203436 96 l 1
 208.786796564 96 l 1
123.393398282 -10.6066017178 m 1
 -10.6066017178 123.393398282 l 1
 -15 127.786796564 l 1
 -15 134 l 1
 -15 215 l 1
 -15 221.213203436 l 1
 -10.6066017178 225.606601718 l 1
 123.393398282 359.606601718 l 1
 127.786796564 364 l 1
 134 364 l 1
 307 364 l 1
 307 396.786796564 l 1
 235.786796564 468 l 1
 167.213203436 468 l 1
 64.6066017178 365.393398282 l 1
 54 354.786796564 l 1
 44.0563108896 364.730485675 l 1
 43.3933982822 365.393398282 l 1
 -10.6066017178 419.393398282 l 1
 -21.2132034356 430 l 1
 -10.6066017178 440.606601718 l 1
 123.393398282 574.606601718 l 1
 127.786796564 579 l 1
 134 579 l 1
 269 579 l 1
 275.213203436 579 l 1
 279.606601718 574.606601718 l 1
 413.606601718 440.606601718 l 1
 418 436.213203436 l 1
 418 430 l 1
 418 0 l 1
 418 -15 l 1
 403 -15 l 1
 322 -15 l 1
 307 -15 l 1
 307 0 l 1
 307 44.4663022999 l 1
 252.672275372 -10.5405188859 l 1
 248.26784958 -15 l 1
 242 -15 l 1
 134 -15 l 1
 127.786796564 -15 l 1
 123.393398282 -10.6066017178 l 1
EndSplineSet
Validated: 1
EndChar

StartChar: b
Encoding: 98 98 69
Width: 537
GlyphClass: 2
Flags: MW
LayerCount: 2
Fore
SplineSet
235.786796564 96 m 1
 307 167.213203436 l 1
 307 396.786796564 l 1
 235.786796564 468 l 1
 194.213203436 468 l 1
 96 369.786796564 l 1
 96 167.213203436 l 1
 167.213203436 96 l 1
 235.786796564 96 l 1
-15 0 m 1
 -15 725 l 1
 -15 740 l 1
 0 740 l 1
 81 740 l 1
 96 740 l 1
 96 725 l 1
 96 519.5336977 l 1
 150.327724628 574.540518886 l 1
 154.73215042 579 l 1
 161 579 l 1
 269 579 l 1
 275.213203436 579 l 1
 279.606601718 574.606601718 l 1
 413.606601718 440.606601718 l 1
 418 436.213203436 l 1
 418 430 l 1
 418 134 l 1
 418 127.786796564 l 1
 413.606601718 123.393398282 l 1
 279.606601718 -10.6066017178 l 1
 275.213203436 -15 l 1
 269 -15 l 1
 134 -15 l 1
 127.704519513 -15 l 1
 123.294738673 -10.5070157472 l 1
 96 17.3027179947 l 1
 96 0 l 1
 96 -15 l 1
 81 -15 l 1
 0 -15 l 1
 -15 -15 l 1
 -15 0 l 1
EndSplineSet
Validated: 1
EndChar

StartChar: c
Encoding: 99 99 70
Width: 537
GlyphClass: 2
Flags: MW
LayerCount: 2
Fore
SplineSet
123.393398282 -10.6066017178 m 1
 -10.6066017178 123.393398282 l 1
 -15 127.786796564 l 1
 -15 134 l 1
 -15 430 l 1
 -15 436.213203436 l 1
 -10.6066017178 440.606601718 l 1
 123.393398282 574.606601718 l 1
 127.786796564 579 l 1
 134 579 l 1
 269 579 l 1
 275.213203436 579 l 1
 279.606601718 574.606601718 l 1
 413.606601718 440.606601718 l 1
 424.213203436 430 l 1
 414.269514325 420.05631089 l 1
 413.606601718 419.393398282 l 1
 359.606601718 365.393398282 l 1
 349 354.786796564 l 1
 338.393398282 365.393398282 l 1
 235.786796564 468 l 1
 167.213203436 468 l 1
 96 396.786796564 l 1
 96 167.213203436 l 1
 167.213203436 96 l 1
 235.786796564 96 l 1
 338.393398282 198.606601718 l 1
 349 209.213203436 l 1
 358.94368911 199.269514325 l 1
 359.606601718 198.606601718 l 1
 413.606601718 144.606601718 l 1
 424.213203436 134 l 1
 413.606601718 123.393398282 l 1
 279.606601718 -10.6066017178 l 1
 275.213203436 -15 l 1
 269 -15 l 1
 134 -15 l 1
 127.786796564 -15 l 1
 123.393398282 -10.6066017178 l 1
EndSplineSet
Validated: 1
EndChar

StartChar: d
Encoding: 100 100 71
Width: 537
GlyphClass: 2
Flags: MW
LayerCount: 2
Fore
SplineSet
208.786796564 96 m 1
 307 194.213203436 l 1
 307 396.786796564 l 1
 235.786796564 468 l 1
 167.213203436 468 l 1
 96 396.786796564 l 1
 96 167.213203436 l 1
 167.213203436 96 l 1
 208.786796564 96 l 1
123.393398282 -10.6066017178 m 1
 -10.6066017178 123.393398282 l 1
 -15 127.786796564 l 1
 -15 134 l 1
 -15 430 l 1
 -15 436.213203436 l 1
 -10.6066017178 440.606601718 l 1
 123.393398282 574.606601718 l 1
 127.786796564 579 l 1
 134 579 l 1
 269 579 l 1
 275.295480487 579 l 1
 279.705261327 574.507015747 l 1
 307 546.697282005 l 1
 307 725 l 1
 307 740 l 1
 322 740 l 1
 403 740 l 1
 418 740 l 1
 418 725 l 1
 418 0 l 1
 418 -15 l 1
 403 -15 l 1
 322 -15 l 1
 307 -15 l 1
 307 0 l 1
 307 44.4663022999 l 1
 252.672275372 -10.5405188859 l 1
 248.26784958 -15 l 1
 242 -15 l 1
 134 -15 l 1
 127.786796564 -15 l 1
 123.393398282 -10.6066017178 l 1
EndSplineSet
Validated: 1
EndChar

StartChar: e
Encoding: 101 101 72
Width: 537
GlyphClass: 2
Flags: MW
LayerCount: 2
Fore
SplineSet
307 337 m 1
 307 396.786796564 l 1
 235.786796564 468 l 1
 167.213203436 468 l 1
 96 396.786796564 l 1
 96 337 l 1
 307 337 l 1
123.393398282 -10.6066017178 m 1
 -10.6066017178 123.393398282 l 1
 -15 127.786796564 l 1
 -15 134 l 1
 -15 430 l 1
 -15 436.213203436 l 1
 -10.6066017178 440.606601718 l 1
 123.393398282 574.606601718 l 1
 127.786796564 579 l 1
 134 579 l 1
 269 579 l 1
 275.213203436 579 l 1
 279.606601718 574.606601718 l 1
 413.606601718 440.606601718 l 1
 418 436.213203436 l 1
 418 430 l 1
 418 242 l 1
 418 227 l 1
 403 227 l 1
 96 227 l 1
 96 167.213203436 l 1
 167.213203436 96 l 1
 235.786796564 96 l 1
 338.393398282 198.606601718 l 1
 349 209.213203436 l 1
 358.94368911 199.269514325 l 1
 359.606601718 198.606601718 l 1
 413.606601718 144.606601718 l 1
 424.213203436 134 l 1
 413.606601718 123.393398282 l 1
 279.606601718 -10.6066017178 l 1
 275.213203436 -15 l 1
 269 -15 l 1
 134 -15 l 1
 127.786796564 -15 l 1
 123.393398282 -10.6066017178 l 1
EndSplineSet
Validated: 1
EndChar

StartChar: f
Encoding: 102 102 73
Width: 537
GlyphClass: 2
Flags: MW
LayerCount: 2
Fore
SplineSet
66 0 m 1
 66 388 l 1
 0 388 l 1
 -15 388 l 1
 -15 403 l 1
 -15 483 l 1
 -15 498 l 1
 0 498 l 1
 66 498 l 1
 66 618 l 1
 66 624.213203436 l 1
 70.3933982822 628.606601718 l 1
 177.393398282 735.606601718 l 1
 181.786796564 740 l 1
 188 740 l 1
 295 740 l 1
 301.172374166 740 l 1
 305.557154494 735.655819489 l 1
 413.557154494 628.655819489 l 1
 424.262651194 618.049447759 l 1
 413.606601718 607.393398282 l 1
 359.606601718 553.393398282 l 1
 348.933915893 542.720712458 l 1
 338.327724628 553.459481114 l 1
 262.73215042 630 l 1
 221.213203436 630 l 1
 176 584.786796564 l 1
 176 498 l 1
 322 498 l 1
 337 498 l 1
 337 483 l 1
 337 403 l 1
 337 388 l 1
 322 388 l 1
 176 388 l 1
 176 0 l 1
 176 -15 l 1
 161 -15 l 1
 81 -15 l 1
 66 -15 l 1
 66 0 l 1
EndSplineSet
Validated: 1
EndChar

StartChar: g
Encoding: 103 103 74
Width: 537
GlyphClass: 2
Flags: MW
LayerCount: 2
Fore
SplineSet
208.786796564 96 m 1
 307 194.213203436 l 1
 307 396.786796564 l 1
 235.786796564 468 l 1
 167.213203436 468 l 1
 96 396.786796564 l 1
 96 167.213203436 l 1
 167.213203436 96 l 1
 208.786796564 96 l 1
96.1081772512 -177.313495877 m 1
 -10.8918227488 -64.3134958772 l 1
 -20.9278763504 -53.7146729148 l 1
 -10.6066017178 -43.3933982822 l 1
 43.3933982822 10.6066017178 l 1
 54.4539017214 21.667105157 l 1
 65.0414943104 10.1530982165 l 1
 140.58457313 -72 l 1
 262.23594244 -72 l 1
 307 -21.3237084231 l 1
 307 44.4663022999 l 1
 252.672275372 -10.5405188859 l 1
 248.26784958 -15 l 1
 242 -15 l 1
 134 -15 l 1
 127.786796564 -15 l 1
 123.393398282 -10.6066017178 l 1
 -10.6066017178 123.393398282 l 1
 -15 127.786796564 l 1
 -15 134 l 1
 -15 430 l 1
 -15 436.213203436 l 1
 -10.6066017178 440.606601718 l 1
 123.393398282 574.606601718 l 1
 127.786796564 579 l 1
 134 579 l 1
 269 579 l 1
 275.295480487 579 l 1
 279.705261327 574.507015747 l 1
 307 546.697282005 l 1
 307 564 l 1
 307 579 l 1
 322 579 l 1
 403 579 l 1
 418 579 l 1
 418 564 l 1
 418 -54 l 1
 418 -60.0153594796 l 1
 413.843795158 -64.3639812127 l 1
 305.843795158 -177.363981213 l 1
 301.412909945 -182 l 1
 295 -182 l 1
 107 -182 l 1
 100.545840447 -182 l 1
 96.1081772512 -177.313495877 l 1
EndSplineSet
Validated: 1
EndChar

StartChar: h
Encoding: 104 104 75
Width: 537
GlyphClass: 2
Flags: MW
LayerCount: 2
Fore
SplineSet
-15 0 m 1
 -15 725 l 1
 -15 740 l 1
 0 740 l 1
 81 740 l 1
 96 740 l 1
 96 725 l 1
 96 519.5336977 l 1
 150.327724628 574.540518886 l 1
 154.73215042 579 l 1
 161 579 l 1
 269 579 l 1
 275.213203436 579 l 1
 279.606601718 574.606601718 l 1
 413.606601718 440.606601718 l 1
 418 436.213203436 l 1
 418 430 l 1
 418 0 l 1
 418 -15 l 1
 403 -15 l 1
 322 -15 l 1
 307 -15 l 1
 307 0 l 1
 307 396.786796564 l 1
 235.786796564 468 l 1
 194.213203436 468 l 1
 96 369.786796564 l 1
 96 0 l 1
 96 -15 l 1
 81 -15 l 1
 0 -15 l 1
 -15 -15 l 1
 -15 0 l 1
EndSplineSet
Validated: 1
EndChar

StartChar: i
Encoding: 105 105 76
Width: 537
GlyphClass: 2
Flags: MW
LayerCount: 2
Fore
SplineSet
66 0 m 1
 66 81 l 1
 66 96 l 1
 81 96 l 1
 146 96 l 1
 146 468 l 1
 54 468 l 1
 39 468 l 1
 39 483 l 1
 39 564 l 1
 39 579 l 1
 54 579 l 1
 242 579 l 1
 257 579 l 1
 257 564 l 1
 257 96 l 1
 322 96 l 1
 337 96 l 1
 337 81 l 1
 337 0 l 1
 337 -15 l 1
 322 -15 l 1
 81 -15 l 1
 66 -15 l 1
 66 0 l 1
146 645 m 1
 146 725 l 1
 146 740 l 1
 161 740 l 1
 242 740 l 1
 257 740 l 1
 257 725 l 1
 257 645 l 1
 257 630 l 1
 242 630 l 1
 161 630 l 1
 146 630 l 1
 146 645 l 1
EndSplineSet
Validated: 1
EndChar

StartChar: j
Encoding: 106 106 77
Width: 537
GlyphClass: 2
Flags: MW
LayerCount: 2
Fore
SplineSet
96.3933982822 -171.606601718 m 1
 -10.6066017178 -64.6066017178 l 1
 -21.2132034356 -54 l 1
 -10.6066017178 -43.3933982822 l 1
 43.3933982822 10.6066017178 l 1
 54.0660841066 21.2792875422 l 1
 64.672275372 10.5405188859 l 1
 140.26784958 -66 l 1
 181.786796564 -66 l 1
 227 -20.7867965644 l 1
 227 468 l 1
 161 468 l 1
 146 468 l 1
 146 483 l 1
 146 564 l 1
 146 579 l 1
 161 579 l 1
 322 579 l 1
 337 579 l 1
 337 564 l 1
 337 -54 l 1
 337 -60.2132034356 l 1
 332.606601718 -64.6066017178 l 1
 225.606601718 -171.606601718 l 1
 221.213203436 -176 l 1
 215 -176 l 1
 107 -176 l 1
 100.786796564 -176 l 1
 96.3933982822 -171.606601718 l 1
227 645 m 1
 227 725 l 1
 227 740 l 1
 242 740 l 1
 322 740 l 1
 337 740 l 1
 337 725 l 1
 337 645 l 1
 337 630 l 1
 322 630 l 1
 242 630 l 1
 227 630 l 1
 227 645 l 1
EndSplineSet
Validated: 1
EndChar

StartChar: k
Encoding: 107 107 78
Width: 537
GlyphClass: 2
Flags: MW
LayerCount: 2
Fore
SplineSet
-15 0 m 1
 -15 725 l 1
 -15 740 l 1
 0 740 l 1
 81 740 l 1
 96 740 l 1
 96 725 l 1
 96 341 l 1
 205.798791433 341 l 1
 322.628838352 570.797943527 l 1
 326.798791433 579 l 1
 336 579 l 1
 349 579 l 1
 352.541019662 579 l 1
 355.708203932 577.416407865 l 1
 409.708203932 550.416407865 l 1
 423.231513756 543.654752953 l 1
 416.36274731 530.185531252 l 1
 291.784015772 285.894424876 l 1
 416.44741551 33.64582697 l 1
 423.062451169 20.2607157531 l 1
 409.708203932 13.583592135 l 1
 355.708203932 -13.416407865 l 1
 352.541019662 -15 l 1
 349 -15 l 1
 336 -15 l 1
 326.661721319 -15 l 1
 322.540105743 -6.62051709389 l 1
 205.661721319 231 l 1
 96 231 l 1
 96 0 l 1
 96 -15 l 1
 81 -15 l 1
 0 -15 l 1
 -15 -15 l 1
 -15 0 l 1
EndSplineSet
Validated: 1
EndChar

StartChar: l
Encoding: 108 108 79
Width: 537
GlyphClass: 2
Flags: MW
LayerCount: 2
Fore
SplineSet
66 0 m 1
 66 81 l 1
 66 96 l 1
 81 96 l 1
 146 96 l 1
 146 630 l 1
 54 630 l 1
 39 630 l 1
 39 645 l 1
 39 725 l 1
 39 740 l 1
 54 740 l 1
 161 740 l 1
 167.1586977 740 l 1
 171.540518886 735.672275372 l 1
 252.540518886 655.672275372 l 1
 257 651.26784958 l 1
 257 645 l 1
 257 96 l 1
 322 96 l 1
 337 96 l 1
 337 81 l 1
 337 0 l 1
 337 -15 l 1
 322 -15 l 1
 81 -15 l 1
 66 -15 l 1
 66 0 l 1
EndSplineSet
Validated: 1
EndChar

StartChar: m
Encoding: 109 109 80
Width: 537
GlyphClass: 2
Flags: MW
LayerCount: 2
Fore
SplineSet
-15 0 m 1
 -15 564 l 1
 -15 579 l 1
 0 579 l 1
 81 579 l 1
 96 579 l 1
 96 564 l 1
 96 546.697282005 l 1
 123.294738673 574.507015747 l 1
 127.704519513 579 l 1
 134 579 l 1
 161 579 l 1
 166.616449768 579 l 1
 170.851711172 575.311223938 l 1
 222.29370409 530.506907526 l 1
 266.393398282 574.606601718 l 1
 270.786796564 579 l 1
 277 579 l 1
 303 579 l 1
 309.172374166 579 l 1
 313.557154494 574.655819489 l 1
 421.557154494 467.655819489 l 1
 426 463.254111442 l 1
 426 457 l 1
 426 0 l 1
 426 -15 l 1
 411 -15 l 1
 330 -15 l 1
 315 -15 l 1
 315 0 l 1
 315 423.786796564 l 1
 270.786796564 468 l 1
 255 468 l 1
 255 0 l 1
 255 -15 l 1
 240 -15 l 1
 183 -15 l 1
 168 -15 l 1
 168 0 l 1
 168 449.456946266 l 1
 143.038196896 468 l 1
 96 468 l 1
 96 0 l 1
 96 -15 l 1
 81 -15 l 1
 0 -15 l 1
 -15 -15 l 1
 -15 0 l 1
EndSplineSet
Validated: 1
EndChar

StartChar: n
Encoding: 110 110 81
Width: 537
GlyphClass: 2
Flags: MW
LayerCount: 2
Fore
SplineSet
-15 0 m 1
 -15 564 l 1
 -15 579 l 1
 0 579 l 1
 81 579 l 1
 96 579 l 1
 96 564 l 1
 96 519.5336977 l 1
 150.327724628 574.540518886 l 1
 154.73215042 579 l 1
 161 579 l 1
 269 579 l 1
 275.213203436 579 l 1
 279.606601718 574.606601718 l 1
 413.606601718 440.606601718 l 1
 418 436.213203436 l 1
 418 430 l 1
 418 0 l 1
 418 -15 l 1
 403 -15 l 1
 322 -15 l 1
 307 -15 l 1
 307 0 l 1
 307 396.786796564 l 1
 235.786796564 468 l 1
 194.213203436 468 l 1
 96 369.786796564 l 1
 96 0 l 1
 96 -15 l 1
 81 -15 l 1
 0 -15 l 1
 -15 -15 l 1
 -15 0 l 1
EndSplineSet
Validated: 1
EndChar

StartChar: o
Encoding: 111 111 82
Width: 537
GlyphClass: 2
Flags: MW
LayerCount: 2
Fore
SplineSet
235.786796564 96 m 1
 307 167.213203436 l 1
 307 396.786796564 l 1
 235.786796564 468 l 1
 167.213203436 468 l 1
 96 396.786796564 l 1
 96 167.213203436 l 1
 167.213203436 96 l 1
 235.786796564 96 l 1
123.393398282 -10.6066017178 m 1
 -10.6066017178 123.393398282 l 1
 -15 127.786796564 l 1
 -15 134 l 1
 -15 430 l 1
 -15 436.213203436 l 1
 -10.6066017178 440.606601718 l 1
 123.393398282 574.606601718 l 1
 127.786796564 579 l 1
 134 579 l 1
 269 579 l 1
 275.213203436 579 l 1
 279.606601718 574.606601718 l 1
 413.606601718 440.606601718 l 1
 418 436.213203436 l 1
 418 430 l 1
 418 134 l 1
 418 127.786796564 l 1
 413.606601718 123.393398282 l 1
 279.606601718 -10.6066017178 l 1
 275.213203436 -15 l 1
 269 -15 l 1
 134 -15 l 1
 127.786796564 -15 l 1
 123.393398282 -10.6066017178 l 1
EndSplineSet
Validated: 1
EndChar

StartChar: p
Encoding: 112 112 83
Width: 537
GlyphClass: 2
Flags: MW
LayerCount: 2
Fore
SplineSet
235.786796564 96 m 1
 307 167.213203436 l 1
 307 396.786796564 l 1
 235.786796564 468 l 1
 194.213203436 468 l 1
 96 369.786796564 l 1
 96 167.213203436 l 1
 167.213203436 96 l 1
 235.786796564 96 l 1
-15 -161 m 1
 -15 564 l 1
 -15 579 l 1
 0 579 l 1
 81 579 l 1
 96 579 l 1
 96 564 l 1
 96 519.5336977 l 1
 150.327724628 574.540518886 l 1
 154.73215042 579 l 1
 161 579 l 1
 269 579 l 1
 275.213203436 579 l 1
 279.606601718 574.606601718 l 1
 413.606601718 440.606601718 l 1
 418 436.213203436 l 1
 418 430 l 1
 418 134 l 1
 418 127.786796564 l 1
 413.606601718 123.393398282 l 1
 279.606601718 -10.6066017178 l 1
 275.213203436 -15 l 1
 269 -15 l 1
 134 -15 l 1
 127.704519513 -15 l 1
 123.294738673 -10.5070157472 l 1
 96 17.3027179947 l 1
 96 -161 l 1
 96 -176 l 1
 81 -176 l 1
 0 -176 l 1
 -15 -176 l 1
 -15 -161 l 1
EndSplineSet
Validated: 1
EndChar

StartChar: q
Encoding: 113 113 84
Width: 537
GlyphClass: 2
Flags: MW
LayerCount: 2
Fore
SplineSet
208.786796564 96 m 1
 307 194.213203436 l 1
 307 396.786796564 l 1
 235.786796564 468 l 1
 167.213203436 468 l 1
 96 396.786796564 l 1
 96 167.213203436 l 1
 167.213203436 96 l 1
 208.786796564 96 l 1
307 -161 m 1
 307 44.4663022999 l 1
 252.672275372 -10.5405188859 l 1
 248.26784958 -15 l 1
 242 -15 l 1
 134 -15 l 1
 127.786796564 -15 l 1
 123.393398282 -10.6066017178 l 1
 -10.6066017178 123.393398282 l 1
 -15 127.786796564 l 1
 -15 134 l 1
 -15 430 l 1
 -15 436.213203436 l 1
 -10.6066017178 440.606601718 l 1
 123.393398282 574.606601718 l 1
 127.786796564 579 l 1
 134 579 l 1
 269 579 l 1
 275.295480487 579 l 1
 279.705261327 574.507015747 l 1
 307 546.697282005 l 1
 307 564 l 1
 307 579 l 1
 322 579 l 1
 403 579 l 1
 418 579 l 1
 418 564 l 1
 418 -161 l 1
 418 -176 l 1
 403 -176 l 1
 322 -176 l 1
 307 -176 l 1
 307 -161 l 1
EndSplineSet
Validated: 1
EndChar

StartChar: r
Encoding: 114 114 85
Width: 537
GlyphClass: 2
Flags: MW
LayerCount: 2
Fore
SplineSet
-15 0 m 1
 -15 564 l 1
 -15 579 l 1
 0 579 l 1
 81 579 l 1
 96 579 l 1
 96 564 l 1
 96 519.5336977 l 1
 150.327724628 574.540518886 l 1
 154.73215042 579 l 1
 161 579 l 1
 269 579 l 1
 275.213203436 579 l 1
 279.606601718 574.606601718 l 1
 413.606601718 440.606601718 l 1
 424.213203436 430 l 1
 414.269514325 420.05631089 l 1
 413.606601718 419.393398282 l 1
 359.606601718 365.393398282 l 1
 349 354.786796564 l 1
 338.393398282 365.393398282 l 1
 235.786796564 468 l 1
 194.213203436 468 l 1
 96 369.786796564 l 1
 96 0 l 1
 96 -15 l 1
 81 -15 l 1
 0 -15 l 1
 -15 -15 l 1
 -15 0 l 1
EndSplineSet
Validated: 1
EndChar

StartChar: s
Encoding: 115 115 86
Width: 537
GlyphClass: 2
Flags: MW
LayerCount: 2
Fore
SplineSet
123.393398282 -10.6066017178 m 1
 -10.6066017178 123.393398282 l 1
 -21.2132034356 134 l 1
 -10.6066017178 144.606601718 l 1
 43.3933982822 198.606601718 l 1
 54 209.213203436 l 1
 64.6066017178 198.606601718 l 1
 167.213203436 96 l 1
 235.786796564 96 l 1
 301.103339974 161.316543409 l 1
 235.518910241 231 l 1
 134 231 l 1
 127.919505791 231 l 1
 123.555303186 235.2339279 l 1
 -10.4446968137 365.2339279 l 1
 -15 369.653251886 l 1
 -15 376 l 1
 -15 430 l 1
 -15 436.213203436 l 1
 -10.6066017178 440.606601718 l 1
 123.393398282 574.606601718 l 1
 127.786796564 579 l 1
 134 579 l 1
 269 579 l 1
 275.213203436 579 l 1
 279.606601718 574.606601718 l 1
 413.606601718 440.606601718 l 1
 424.213203436 430 l 1
 414.269514325 420.05631089 l 1
 413.606601718 419.393398282 l 1
 359.606601718 365.393398282 l 1
 349 354.786796564 l 1
 338.393398282 365.393398282 l 1
 235.786796564 468 l 1
 163.105005237 468 l 1
 96.6922531109 403.207071096 l 1
 162.938744408 341 l 1
 269 341 l 1
 275.342808763 341 l 1
 279.76141757 336.449492423 l 1
 413.76141757 198.449492423 l 1
 418 194.084385144 l 1
 418 188 l 1
 418 134 l 1
 418 127.786796564 l 1
 413.606601718 123.393398282 l 1
 279.606601718 -10.6066017178 l 1
 275.213203436 -15 l 1
 269 -15 l 1
 134 -15 l 1
 127.786796564 -15 l 1
 123.393398282 -10.6066017178 l 1
EndSplineSet
Validated: 1
EndChar

StartChar: t
Encoding: 116 116 87
Width: 537
GlyphClass: 2
Flags: MW
LayerCount: 2
Fore
SplineSet
177.393398282 -10.6066017178 m 1
 70.3933982822 96.3933982822 l 1
 66 100.786796564 l 1
 66 107 l 1
 66 458 l 1
 0 458 l 1
 -15 458 l 1
 -15 473 l 1
 -15 554 l 1
 -15 569 l 1
 0 569 l 1
 66 569 l 1
 66 645 l 1
 66 660 l 1
 81 660 l 1
 161 660 l 1
 176 660 l 1
 176 645 l 1
 176 569 l 1
 322 569 l 1
 337 569 l 1
 337 554 l 1
 337 473 l 1
 337 458 l 1
 322 458 l 1
 176 458 l 1
 176 140.295480487 l 1
 221.131244269 96 l 1
 235.908479519 96 l 1
 304.541720854 162.752878559 l 1
 315.146290949 173.066912487 l 1
 325.606601718 162.606601718 l 1
 379.606601718 108.606601718 l 1
 390.320881911 97.8923215248 l 1
 379.498928735 87.2868074129 l 1
 279.498928735 -10.7131925871 l 1
 275.124635457 -15 l 1
 269 -15 l 1
 188 -15 l 1
 181.786796564 -15 l 1
 177.393398282 -10.6066017178 l 1
EndSplineSet
Validated: 1
EndChar

StartChar: u
Encoding: 117 117 88
Width: 537
GlyphClass: 2
Flags: MW
LayerCount: 2
Fore
SplineSet
123.393398282 -10.6066017178 m 1
 -10.6066017178 123.393398282 l 1
 -15 127.786796564 l 1
 -15 134 l 1
 -15 564 l 1
 -15 579 l 1
 0 579 l 1
 81 579 l 1
 96 579 l 1
 96 564 l 1
 96 167.213203436 l 1
 167.213203436 96 l 1
 208.786796564 96 l 1
 307 194.213203436 l 1
 307 564 l 1
 307 579 l 1
 322 579 l 1
 403 579 l 1
 418 579 l 1
 418 564 l 1
 418 0 l 1
 418 -15 l 1
 403 -15 l 1
 322 -15 l 1
 307 -15 l 1
 307 0 l 1
 307 44.4663022999 l 1
 252.672275372 -10.5405188859 l 1
 248.26784958 -15 l 1
 242 -15 l 1
 134 -15 l 1
 127.786796564 -15 l 1
 123.393398282 -10.6066017178 l 1
EndSplineSet
Validated: 1
EndChar

StartChar: v
Encoding: 118 118 89
Width: 537
GlyphClass: 2
Flags: MW
LayerCount: 2
Fore
SplineSet
161.591285014 -6.72356768625 m 1
 -13.4087149857 342.276432314 l 1
 -15 345.449909285 l 1
 -15 349 l 1
 -15 564 l 1
 -15 579 l 1
 0 579 l 1
 81 579 l 1
 96 579 l 1
 96 564 l 1
 96 352.514811565 l 1
 201.055715826 140.652451315 l 1
 307 352.541019662 l 1
 307 564 l 1
 307 579 l 1
 322 579 l 1
 403 579 l 1
 418 579 l 1
 418 564 l 1
 418 349 l 1
 418 345.449909285 l 1
 416.408714986 342.276432314 l 1
 241.408714986 -6.72356768625 l 1
 237.258641476 -15 l 1
 228 -15 l 1
 175 -15 l 1
 165.741358524 -15 l 1
 161.591285014 -6.72356768625 l 1
EndSplineSet
Validated: 1
EndChar

StartChar: w
Encoding: 119 119 90
Width: 537
GlyphClass: 2
Flags: MW
LayerCount: 2
Fore
SplineSet
-15 0 m 1
 -15 564 l 1
 -15 579 l 1
 0 579 l 1
 81 579 l 1
 96 579 l 1
 96 564 l 1
 96 251.541019662 l 1
 161.583592135 382.708203932 l 1
 165.729490169 391 l 1
 175 391 l 1
 228 391 l 1
 237.270509831 391 l 1
 241.416407865 382.708203932 l 1
 307 251.541019662 l 1
 307 564 l 1
 307 579 l 1
 322 579 l 1
 403 579 l 1
 418 579 l 1
 418 564 l 1
 418 0 l 1
 418 -15 l 1
 403 -15 l 1
 336 -15 l 1
 326.744883902 -15 l 1
 322.593574548 -6.72813173229 l 1
 201.049875205 235.458943256 l 1
 80.4263754455 -6.68823163455 l 1
 76.2859406463 -15 l 1
 67 -15 l 1
 0 -15 l 1
 -15 -15 l 1
 -15 0 l 1
EndSplineSet
Validated: 1
EndChar

StartChar: x
Encoding: 120 120 91
Width: 537
GlyphClass: 2
Flags: MW
LayerCount: 2
Fore
SplineSet
47.2917960675 -13.416407865 m 1
 -6.7082039325 13.583592135 l 1
 -20.1456571302 20.3023187339 l 1
 -13.4058769714 33.729224519 l 1
 111.216316211 282 l 1
 -13.4058769714 530.270775481 l 1
 -20.1456571302 543.697681266 l 1
 -6.7082039325 550.416407865 l 1
 47.2917960675 577.416407865 l 1
 50.4589803375 579 l 1
 54 579 l 1
 67 579 l 1
 76.2705098312 579 l 1
 80.416407865 570.708203932 l 1
 197.270509831 337 l 1
 205.729490169 337 l 1
 322.583592135 570.708203932 l 1
 326.729490169 579 l 1
 336 579 l 1
 349 579 l 1
 352.541019662 579 l 1
 355.708203932 577.416407865 l 1
 409.708203932 550.416407865 l 1
 423.14565713 543.697681266 l 1
 416.405876971 530.270775481 l 1
 291.783683789 282 l 1
 416.405876971 33.729224519 l 1
 423.14565713 20.3023187339 l 1
 409.708203932 13.583592135 l 1
 355.708203932 -13.416407865 l 1
 352.541019662 -15 l 1
 349 -15 l 1
 336 -15 l 1
 326.729490169 -15 l 1
 322.583592135 -6.7082039325 l 1
 205.729490169 227 l 1
 197.270509831 227 l 1
 80.416407865 -6.7082039325 l 1
 76.2705098312 -15 l 1
 67 -15 l 1
 54 -15 l 1
 50.4589803375 -15 l 1
 47.2917960675 -13.416407865 l 1
EndSplineSet
Validated: 1
EndChar

StartChar: y
Encoding: 121 121 92
Width: 537
GlyphClass: 2
Flags: MW
LayerCount: 2
Fore
SplineSet
127.191113279 -174.365592453 m 1
 74.1911132787 -147.365592453 l 1
 60.9585951079 -140.62449829 l 1
 67.5669466221 -127.325190868 l 1
 144.239913092 26.979154153 l 1
 -13.416407865 342.291796068 l 1
 -15 345.458980338 l 1
 -15 349 l 1
 -15 564 l 1
 -15 579 l 1
 0 579 l 1
 81 579 l 1
 96 579 l 1
 96 564 l 1
 96 352.514811565 l 1
 201.055715826 140.652451315 l 1
 307 352.541019662 l 1
 307 564 l 1
 307 579 l 1
 322 579 l 1
 403 579 l 1
 418 579 l 1
 418 564 l 1
 418 349 l 1
 418 345.458980338 l 1
 416.416407865 342.291796068 l 1
 161.416407865 -167.708203932 l 1
 157.270509831 -176 l 1
 148 -176 l 1
 134 -176 l 1
 130.39939476 -176 l 1
 127.191113279 -174.365592453 l 1
EndSplineSet
Validated: 1
EndChar

StartChar: z
Encoding: 122 122 93
Width: 537
GlyphClass: 2
Flags: MW
LayerCount: 2
Fore
SplineSet
-15 0 m 1
 -15 134 l 1
 -15 140.199584876 l 1
 -10.6230332943 144.590144646 l 1
 307 463.199584876 l 1
 307 468 l 1
 0 468 l 1
 -15 468 l 1
 -15 483 l 1
 -15 564 l 1
 -15 579 l 1
 0 579 l 1
 403 579 l 1
 418 579 l 1
 418 564 l 1
 418 430 l 1
 418 423.800415124 l 1
 413.623033294 419.409855354 l 1
 96 100.800415124 l 1
 96 96 l 1
 403 96 l 1
 418 96 l 1
 418 81 l 1
 418 0 l 1
 418 -15 l 1
 403 -15 l 1
 0 -15 l 1
 -15 -15 l 1
 -15 0 l 1
EndSplineSet
Validated: 1
EndChar

StartChar: braceleft
Encoding: 123 123 94
Width: 537
GlyphClass: 2
Flags: MW
LayerCount: 2
Fore
SplineSet
146 0 m 1
 146 262.620372429 l 1
 127.951925215 280 l 1
 27 280 l 1
 12 280 l 1
 12 295 l 1
 12 430 l 1
 12 445 l 1
 27 445 l 1
 127.786796564 445 l 1
 146 463.213203436 l 1
 146 671 l 1
 146 677.186017228 l 1
 150.360611495 681.573713267 l 1
 311.360611495 843.573713267 l 1
 321.967111391 854.246092044 l 1
 332.606601718 843.606601718 l 1
 386.606601718 789.606601718 l 1
 397.213203436 779 l 1
 386.606601718 768.393398282 l 1
 257 638.786796564 l 1
 257 430 l 1
 257 415 l 1
 242 415 l 1
 194.213203436 415 l 1
 176 396.786796564 l 1
 176 328.213203436 l 1
 194.213203436 310 l 1
 242 310 l 1
 257 310 l 1
 257 295 l 1
 257 33.2132034356 l 1
 386.606601718 -96.3933982822 l 1
 397.213203436 -107 l 1
 387.269514325 -116.94368911 l 1
 386.606601718 -117.606601718 l 1
 332.606601718 -171.606601718 l 1
 322 -182.213203436 l 1
 311.393398282 -171.606601718 l 1
 150.393398282 -10.6066017178 l 1
 146 -6.2132034356 l 1
 146 0 l 1
EndSplineSet
Validated: 1
EndChar

StartChar: bar
Encoding: 124 124 95
Width: 537
GlyphClass: 2
Flags: MW
LayerCount: 2
Fore
SplineSet
146 -161 m 1
 146 833 l 1
 146 848 l 1
 161 848 l 1
 242 848 l 1
 257 848 l 1
 257 833 l 1
 257 -161 l 1
 257 -176 l 1
 242 -176 l 1
 161 -176 l 1
 146 -176 l 1
 146 -161 l 1
EndSplineSet
Validated: 1
EndChar

StartChar: braceright
Encoding: 125 125 96
Width: 537
GlyphClass: 2
Flags: MW
LayerCount: 2
Fore
SplineSet
16.3933982822 -96.3933982822 m 1
 146 33.2132034356 l 1
 146 295 l 1
 146 310 l 1
 161 310 l 1
 208.786796564 310 l 1
 227 328.213203436 l 1
 227 396.786796564 l 1
 208.786796564 415 l 1
 161 415 l 1
 146 415 l 1
 146 430 l 1
 146 638.786796564 l 1
 16.3933982822 768.393398282 l 1
 5.7867965644 779 l 1
 16.3933982822 789.606601718 l 1
 70.3933982822 843.606601718 l 1
 81.0328886086 854.246092044 l 1
 91.6393885045 843.573713267 l 1
 252.639388505 681.573713267 l 1
 257 677.186017228 l 1
 257 671 l 1
 257 463.213203436 l 1
 275.213203436 445 l 1
 376 445 l 1
 391 445 l 1
 391 430 l 1
 391 295 l 1
 391 280 l 1
 376 280 l 1
 275.048074785 280 l 1
 257 262.620372429 l 1
 257 0 l 1
 257 -6.2132034356 l 1
 252.606601718 -10.6066017178 l 1
 91.6066017178 -171.606601718 l 1
 81 -182.213203436 l 1
 70.3933982822 -171.606601718 l 1
 16.3933982822 -117.606601718 l 1
 5.7867965644 -107 l 1
 16.3933982822 -96.3933982822 l 1
EndSplineSet
Validated: 1
EndChar

StartChar: asciitilde
Encoding: 126 126 97
Width: 537
GlyphClass: 2
Flags: MW
LayerCount: 2
Fore
SplineSet
134.066084107 381.720712458 m 1
 69 315.8413023 l 1
 69 269 l 1
 69 254 l 1
 54 254 l 1
 0 254 l 1
 -15 254 l 1
 -15 269 l 1
 -15 376 l 1
 -15 382.213203436 l 1
 -10.6066017178 386.606601718 l 1
 123.393398282 520.606601718 l 1
 134 531.213203436 l 1
 144.606601718 520.606601718 l 1
 295 370.213203436 l 1
 361 436.213203436 l 1
 361 483 l 1
 361 498 l 1
 376 498 l 1
 430 498 l 1
 445 498 l 1
 445 483 l 1
 445 376 l 1
 445 369.754106838 l 1
 440.567098955 365.354042097 l 1
 305.567098955 231.354042097 l 1
 294.960643543 220.826153021 l 1
 284.393398282 231.393398282 l 1
 134.066084107 381.720712458 l 1
EndSplineSet
Validated: 1
EndChar

StartChar: exclamdown
Encoding: 161 161 98
Width: 537
GlyphClass: 2
Flags: MW
LayerCount: 2
Fore
SplineSet
119 -161 m 1
 119 81 l 1
 119 82.266832715 l 1
 119.21246655 83.5157214584 l 1
 160.21246655 324.515721458 l 1
 162.336347961 337 l 1
 175 337 l 1
 228 337 l 1
 240.663652039 337 l 1
 242.78753345 324.515721458 l 1
 283.78753345 83.5157214584 l 1
 284 82.266832715 l 1
 284 81 l 1
 284 -161 l 1
 284 -176 l 1
 269 -176 l 1
 134 -176 l 1
 119 -176 l 1
 119 -161 l 1
119 430 m 1
 119 564 l 1
 119 579 l 1
 134 579 l 1
 269 579 l 1
 284 579 l 1
 284 564 l 1
 284 430 l 1
 284 415 l 1
 269 415 l 1
 134 415 l 1
 119 415 l 1
 119 430 l 1
EndSplineSet
Validated: 1
EndChar

StartChar: cent
Encoding: 162 162 99
Width: 537
GlyphClass: 2
Flags: MW
LayerCount: 2
Fore
SplineSet
240.873651168 462.346572169 m 1
 235.534302661 468 l 1
 167.213203436 468 l 1
 96 396.786796564 l 1
 96 174.387833427 l 1
 240.873651168 462.346572169 l 1
47.2917960675 -94.416407865 m 1
 -6.7082039325 -67.416407865 l 1
 -20.0816794024 -60.72967013 l 1
 -13.4378394964 -47.3348316098 l 1
 43.8146913953 68.0936580911 l 1
 -10.6911124214 123.478587776 l 1
 -15 127.856973541 l 1
 -15 134 l 1
 -15 430 l 1
 -15 436.213203436 l 1
 -10.6066017178 440.606601718 l 1
 123.393398282 574.606601718 l 1
 127.786796564 579 l 1
 134 579 l 1
 269 579 l 1
 275.379627571 579 l 1
 279.804803202 574.404625306 l 1
 291.154969741 562.6179139 l 1
 322.616799856 624.774212419 l 1
 326.780470113 633 l 1
 336 633 l 1
 349 633 l 1
 352.541019662 633 l 1
 355.708203932 631.416407865 l 1
 409.708203932 604.416407865 l 1
 423.124611797 597.708203932 l 1
 416.416407865 584.291796068 l 1
 367.299198808 486.057377953 l 1
 413.507015747 440.705261327 l 1
 424.312793755 430.09959032 l 1
 413.606601718 419.393398282 l 1
 359.606601718 365.393398282 l 1
 349.290536561 355.077333126 l 1
 338.692002192 365.102973746 l 1
 316.376585622 386.212151582 l 1
 171.270509831 96 l 1
 235.786796564 96 l 1
 338.393398282 198.606601718 l 1
 349 209.213203436 l 1
 358.94368911 199.269514325 l 1
 359.606601718 198.606601718 l 1
 413.606601718 144.606601718 l 1
 424.213203436 134 l 1
 413.606601718 123.393398282 l 1
 279.606601718 -10.6066017178 l 1
 275.213203436 -15 l 1
 269 -15 l 1
 134 -15 l 1
 128.036320465 -15 l 1
 123.700647006 -10.9051972882 l 1
 120.384071733 -7.77287619719 l 1
 80.416407865 -87.7082039325 l 1
 76.2705098312 -96 l 1
 67 -96 l 1
 54 -96 l 1
 50.4589803375 -96 l 1
 47.2917960675 -94.416407865 l 1
EndSplineSet
Validated: 1
EndChar

StartChar: sterling
Encoding: 163 163 100
Width: 537
GlyphClass: 2
Flags: MW
LayerCount: 2
Fore
SplineSet
-37.5405188859 64.672275372 m 1
 39 140.26784958 l 1
 39 307 l 1
 0 307 l 1
 -15 307 l 1
 -15 322 l 1
 -15 403 l 1
 -15 418 l 1
 0 418 l 1
 39 418 l 1
 39 618 l 1
 39 624.213203436 l 1
 43.3933982822 628.606601718 l 1
 150.393398282 735.606601718 l 1
 154.786796564 740 l 1
 161 740 l 1
 295 740 l 1
 301.172374166 740 l 1
 305.557154494 735.655819489 l 1
 413.557154494 628.655819489 l 1
 424.262651194 618.049447759 l 1
 413.606601718 607.393398282 l 1
 359.606601718 553.393398282 l 1
 348.933915893 542.720712458 l 1
 338.327724628 553.459481114 l 1
 262.73215042 630 l 1
 194.213203436 630 l 1
 149 584.786796564 l 1
 149 418 l 1
 295 418 l 1
 310 418 l 1
 310 403 l 1
 310 322 l 1
 310 307 l 1
 295 307 l 1
 149 307 l 1
 149 176 l 1
 161 176 l 1
 167.1586977 176 l 1
 171.540518886 171.672275372 l 1
 248.1586977 96 l 1
 262.786796564 96 l 1
 338.393398282 171.606601718 l 1
 349 182.213203436 l 1
 359.606601718 171.606601718 l 1
 413.606601718 117.606601718 l 1
 424.262651194 106.950552241 l 1
 413.557154494 96.3441805107 l 1
 305.557154494 -10.6558194893 l 1
 301.172374166 -15 l 1
 295 -15 l 1
 215 -15 l 1
 208.786796564 -15 l 1
 204.393398282 -10.6066017178 l 1
 127.786796564 66 l 1
 113.26784958 66 l 1
 37.672275372 -10.5405188859 l 1
 27.0660841066 -21.2792875422 l 1
 16.3933982822 -10.6066017178 l 1
 -37.6066017178 43.3933982822 l 1
 -48.2792875422 54.0660841066 l 1
 -37.5405188859 64.672275372 l 1
EndSplineSet
Validated: 1
EndChar

StartChar: currency
Encoding: 164 164 101
Width: 537
GlyphClass: 2
Flags: MW
LayerCount: 2
Fore
SplineSet
235.73215042 176 m 1
 307 248.1586977 l 1
 307 315.8413023 l 1
 235.73215042 388 l 1
 167.26784958 388 l 1
 96 315.8413023 l 1
 96 248.1586977 l 1
 167.26784958 176 l 1
 235.73215042 176 l 1
18.8650729981 174.921723566 m 1
 -10.6066017178 204.393398282 l 1
 -15 208.786796564 l 1
 -15 215 l 1
 -15 349 l 1
 -15 355.213203436 l 1
 -10.6066017178 359.606601718 l 1
 18.8650729981 389.078276434 l 1
 -37.6848760041 446.472254525 l 1
 -48.2330466863 457.177860591 l 1
 -37.5070157472 467.705261327 l 1
 16.4929842528 520.705261327 l 1
 27.0986639181 531.114539517 l 1
 37.6066017178 520.606601718 l 1
 94 464.213203436 l 1
 123.393398282 493.606601718 l 1
 127.786796564 498 l 1
 134 498 l 1
 269 498 l 1
 275.213203436 498 l 1
 279.606601718 493.606601718 l 1
 309 464.213203436 l 1
 365.393398282 520.606601718 l 1
 375.901336082 531.114539517 l 1
 386.507015747 520.705261327 l 1
 440.507015747 467.705261327 l 1
 451.233046686 457.177860591 l 1
 440.684876004 446.472254525 l 1
 384.134927002 389.078276434 l 1
 413.606601718 359.606601718 l 1
 418 355.213203436 l 1
 418 349 l 1
 418 215 l 1
 418 208.786796564 l 1
 413.606601718 204.393398282 l 1
 384.134927002 174.921723566 l 1
 440.684876004 117.527745475 l 1
 451.233046686 106.822139409 l 1
 440.507015747 96.2947386726 l 1
 386.507015747 43.2947386726 l 1
 375.901336082 32.8854604825 l 1
 365.393398282 43.3933982822 l 1
 309 99.7867965644 l 1
 279.606601718 70.3933982822 l 1
 275.213203436 66 l 1
 269 66 l 1
 134 66 l 1
 127.786796564 66 l 1
 123.393398282 70.3933982822 l 1
 94 99.7867965644 l 1
 37.6066017178 43.3933982822 l 1
 27.0986639181 32.8854604825 l 1
 16.4929842528 43.2947386726 l 1
 -37.5070157472 96.2947386726 l 1
 -48.2330466863 106.822139409 l 1
 -37.6848760041 117.527745475 l 1
 18.8650729981 174.921723566 l 1
EndSplineSet
Validated: 1
EndChar

StartChar: yen
Encoding: 165 165 102
Width: 537
GlyphClass: 2
Flags: MW
LayerCount: 2
Fore
SplineSet
146 0 m 1
 146 92 l 1
 27 92 l 1
 12 92 l 1
 12 107 l 1
 12 188 l 1
 12 203 l 1
 27 203 l 1
 146 203 l 1
 146 254 l 1
 27 254 l 1
 12 254 l 1
 12 269 l 1
 12 349 l 1
 12 364 l 1
 27 364 l 1
 146 364 l 1
 146 372.458980338 l 1
 -13.416407865 691.291796068 l 1
 -20.1246117975 704.708203932 l 1
 -6.7082039325 711.416407865 l 1
 47.2917960675 738.416407865 l 1
 50.4589803375 740 l 1
 54 740 l 1
 67 740 l 1
 76.2705098312 740 l 1
 80.416407865 731.708203932 l 1
 201.049837957 490.441343748 l 1
 322.603646289 731.74816325 l 1
 326.7603551 740 l 1
 336 740 l 1
 349 740 l 1
 352.541019662 740 l 1
 355.708203932 738.416407865 l 1
 409.708203932 711.416407865 l 1
 423.124611797 704.708203932 l 1
 416.416407865 691.291796068 l 1
 257 372.458980338 l 1
 257 364 l 1
 376 364 l 1
 391 364 l 1
 391 349 l 1
 391 269 l 1
 391 254 l 1
 376 254 l 1
 257 254 l 1
 257 203 l 1
 376 203 l 1
 391 203 l 1
 391 188 l 1
 391 107 l 1
 391 92 l 1
 376 92 l 1
 257 92 l 1
 257 0 l 1
 257 -15 l 1
 242 -15 l 1
 161 -15 l 1
 146 -15 l 1
 146 0 l 1
EndSplineSet
Validated: 1
EndChar

StartChar: brokenbar
Encoding: 166 166 103
Width: 537
GlyphClass: 2
Flags: MW
LayerCount: 2
Fore
SplineSet
146 -161 m 1
 146 269 l 1
 146 284 l 1
 161 284 l 1
 242 284 l 1
 257 284 l 1
 257 269 l 1
 257 -161 l 1
 257 -176 l 1
 242 -176 l 1
 161 -176 l 1
 146 -176 l 1
 146 -161 l 1
146 403 m 1
 146 833 l 1
 146 848 l 1
 161 848 l 1
 242 848 l 1
 257 848 l 1
 257 833 l 1
 257 403 l 1
 257 388 l 1
 242 388 l 1
 161 388 l 1
 146 388 l 1
 146 403 l 1
EndSplineSet
Validated: 1
EndChar

StartChar: section
Encoding: 167 167 104
Width: 537
GlyphClass: 2
Flags: MW
LayerCount: 2
Fore
SplineSet
235.73215042 203 m 1
 307 275.1586977 l 1
 307 288.8413023 l 1
 235.73215042 361 l 1
 167.26784958 361 l 1
 96 288.8413023 l 1
 96 275.1586977 l 1
 167.26784958 203 l 1
 235.73215042 203 l 1
123.393398282 -171.606601718 m 1
 -10.6066017178 -37.6066017178 l 1
 -21.2132034356 -27 l 1
 -10.6066017178 -16.3933982822 l 1
 43.3933982822 37.6066017178 l 1
 54.0494477586 48.2626511942 l 1
 64.6558194893 37.557154494 l 1
 167.254111442 -66 l 1
 235.73215042 -66 l 1
 307 6.15869770006 l 1
 307 20.7867965644 l 1
 235.786796564 92 l 1
 134 92 l 1
 127.754106838 92 l 1
 123.354042097 96.4329010446 l 1
 -10.6459579028 231.432901045 l 1
 -15 235.819435993 l 1
 -15 242 l 1
 -15 322 l 1
 -15 328.213203436 l 1
 -10.6066017178 332.606601718 l 1
 70.3933982822 413.606601718 l 1
 72.7867965644 416 l 1
 -10.6066017178 499.393398282 l 1
 -15 503.786796564 l 1
 -15 510 l 1
 -15 591 l 1
 -15 597.213203436 l 1
 -10.6066017178 601.606601718 l 1
 123.393398282 735.606601718 l 1
 127.786796564 740 l 1
 134 740 l 1
 269 740 l 1
 275.213203436 740 l 1
 279.606601718 735.606601718 l 1
 413.606601718 601.606601718 l 1
 424.213203436 591 l 1
 413.606601718 580.393398282 l 1
 359.606601718 526.393398282 l 1
 348.950552241 515.737348806 l 1
 338.344180511 526.442845506 l 1
 235.745888558 630 l 1
 167.26784958 630 l 1
 96 557.8413023 l 1
 96 543.213203436 l 1
 167.213203436 472 l 1
 269 472 l 1
 275.245893162 472 l 1
 279.645957903 467.567098955 l 1
 413.645957903 332.567098955 l 1
 418 328.180564007 l 1
 418 322 l 1
 418 242 l 1
 418 235.786796564 l 1
 413.606601718 231.393398282 l 1
 332.606601718 150.393398282 l 1
 330.213203436 148 l 1
 413.606601718 64.6066017178 l 1
 418 60.2132034356 l 1
 418 54 l 1
 418 -27 l 1
 418 -33.2132034356 l 1
 413.606601718 -37.6066017178 l 1
 279.606601718 -171.606601718 l 1
 275.213203436 -176 l 1
 269 -176 l 1
 134 -176 l 1
 127.786796564 -176 l 1
 123.393398282 -171.606601718 l 1
EndSplineSet
Validated: 1
EndChar

StartChar: dieresis
Encoding: 168 168 105
Width: 537
GlyphClass: 2
Flags: MW
LayerCount: 2
Fore
SplineSet
39 645 m 1
 39 725 l 1
 39 740 l 1
 54 740 l 1
 134 740 l 1
 149 740 l 1
 149 725 l 1
 149 645 l 1
 149 630 l 1
 134 630 l 1
 54 630 l 1
 39 630 l 1
 39 645 l 1
254 645 m 1
 254 725 l 1
 254 740 l 1
 269 740 l 1
 349 740 l 1
 364 740 l 1
 364 725 l 1
 364 645 l 1
 364 630 l 1
 349 630 l 1
 269 630 l 1
 254 630 l 1
 254 645 l 1
EndSplineSet
Validated: 1
EndChar

StartChar: copyright
Encoding: 169 169 106
Width: 537
GlyphClass: 2
Flags: MW
LayerCount: 2
Fore
SplineSet
201.078276434 276.134927002 m 1
 258.472254525 332.684876004 l 1
 269.078276434 343.134927002 l 1
 279.606601718 332.606601718 l 1
 332.606601718 279.606601718 l 1
 343.163985132 269.049218304 l 1
 332.655819489 258.442845506 l 1
 225.655819489 150.442845506 l 1
 221.254111442 146 l 1
 215 146 l 1
 188 146 l 1
 181.745888558 146 l 1
 177.344180511 150.442845506 l 1
 70.3441805107 258.442845506 l 1
 66 262.827625834 l 1
 66 269 l 1
 66 457 l 1
 66 463.213203436 l 1
 70.3933982822 467.606601718 l 1
 177.393398282 574.606601718 l 1
 181.786796564 579 l 1
 188 579 l 1
 215 579 l 1
 221.213203436 579 l 1
 225.606601718 574.606601718 l 1
 332.606601718 467.606601718 l 1
 343.114539517 457.098663918 l 1
 332.705261327 446.492984253 l 1
 279.705261327 392.492984253 l 1
 269.177860591 381.766953314 l 1
 258.472254525 392.315123996 l 1
 201.078276434 448.865072998 l 1
 176 423.786796564 l 1
 176 301.213203436 l 1
 201.078276434 276.134927002 l 1
262.786796564 69 m 1
 361 167.213203436 l 1
 361 557.786796564 l 1
 262.786796564 656 l 1
 140.213203436 656 l 1
 42 557.786796564 l 1
 42 167.213203436 l 1
 140.213203436 69 l 1
 262.786796564 69 l 1
96.3933982822 -10.6066017178 m 1
 -37.6066017178 123.393398282 l 1
 -42 127.786796564 l 1
 -42 134 l 1
 -42 591 l 1
 -42 597.213203436 l 1
 -37.6066017178 601.606601718 l 1
 96.3933982822 735.606601718 l 1
 100.786796564 740 l 1
 107 740 l 1
 295 740 l 1
 301.180564007 740 l 1
 305.567098955 735.645957903 l 1
 440.567098955 601.645957903 l 1
 445 597.245893162 l 1
 445 591 l 1
 445 134 l 1
 445 127.754106838 l 1
 440.567098955 123.354042097 l 1
 305.567098955 -10.6459579028 l 1
 301.180564007 -15 l 1
 295 -15 l 1
 107 -15 l 1
 100.786796564 -15 l 1
 96.3933982822 -10.6066017178 l 1
EndSplineSet
Validated: 1
EndChar

StartChar: ordfeminine
Encoding: 170 170 107
Width: 537
GlyphClass: 2
Flags: MW
LayerCount: 2
Fore
SplineSet
208.745888558 337 m 1
 307 436.172374166 l 1
 307 442 l 1
 167.213203436 442 l 1
 117.606601718 392.393398282 l 1
 114.713203436 389.5 l 1
 167.213203436 337 l 1
 208.745888558 337 l 1
123.393398282 231.393398282 m 1
 -10.6066017178 365.393398282 l 1
 -15 369.786796564 l 1
 -15 376 l 1
 -15 403 l 1
 -15 409.213203436 l 1
 -10.6066017178 413.606601718 l 1
 123.393398282 547.606601718 l 1
 127.786796564 552 l 1
 134 552 l 1
 307 552 l 1
 307 557.8413023 l 1
 235.73215042 630 l 1
 167.254111442 630 l 1
 64.6558194893 526.442845506 l 1
 54.0494477586 515.737348806 l 1
 43.3933982822 526.393398282 l 1
 -10.6066017178 580.393398282 l 1
 -21.2132034356 591 l 1
 -10.6066017178 601.606601718 l 1
 123.393398282 735.606601718 l 1
 127.786796564 740 l 1
 134 740 l 1
 269 740 l 1
 275.213203436 740 l 1
 279.606601718 735.606601718 l 1
 413.606601718 601.606601718 l 1
 418 597.213203436 l 1
 418 591 l 1
 418 242 l 1
 418 227 l 1
 403 227 l 1
 322 227 l 1
 307 227 l 1
 307 242 l 1
 307 285.786796564 l 1
 252.606601718 231.393398282 l 1
 248.213203436 227 l 1
 242 227 l 1
 134 227 l 1
 127.786796564 227 l 1
 123.393398282 231.393398282 l 1
EndSplineSet
Validated: 1
EndChar

StartChar: guillemotleft
Encoding: 171 171 108
Width: 537
GlyphClass: 2
Flags: MW
LayerCount: 2
Fore
SplineSet
115.213203436 309 m 1
 225.606601718 198.606601718 l 1
 236.213203436 188 l 1
 225.606601718 177.393398282 l 1
 171.606601718 123.393398282 l 1
 160.96956505 112.756361615 l 1
 150.363050538 123.423833107 l 1
 -23.6369494615 298.423833107 l 1
 -34.1828555673 309.030347868 l 1
 -23.6066017178 319.606601718 l 1
 150.393398282 493.606601718 l 1
 160.901336082 504.114539517 l 1
 171.507015747 493.705261327 l 1
 225.507015747 440.705261327 l 1
 236.312793755 430.09959032 l 1
 225.606601718 419.393398282 l 1
 115.213203436 309 l 1
303.213203436 309 m 1
 413.606601718 198.606601718 l 1
 424.213203436 188 l 1
 414.269514325 178.05631089 l 1
 413.606601718 177.393398282 l 1
 359.606601718 123.393398282 l 1
 348.96956505 112.756361615 l 1
 338.363050538 123.423833107 l 1
 164.363050538 298.423833107 l 1
 153.817144433 309.030347868 l 1
 164.393398282 319.606601718 l 1
 338.393398282 493.606601718 l 1
 348.901336082 504.114539517 l 1
 359.507015747 493.705261327 l 1
 413.507015747 440.705261327 l 1
 424.312793755 430.09959032 l 1
 413.606601718 419.393398282 l 1
 303.213203436 309 l 1
EndSplineSet
Validated: 1
EndChar

StartChar: logicalnot
Encoding: 172 172 109
Width: 537
GlyphClass: 2
Flags: MW
LayerCount: 2
Fore
SplineSet
307 161 m 1
 307 307 l 1
 0 307 l 1
 -15 307 l 1
 -15 322 l 1
 -15 403 l 1
 -15 418 l 1
 0 418 l 1
 403 418 l 1
 418 418 l 1
 418 403 l 1
 418 161 l 1
 418 146 l 1
 403 146 l 1
 322 146 l 1
 307 146 l 1
 307 161 l 1
EndSplineSet
Validated: 1
EndChar

StartChar: uni00AD
Encoding: 173 173 110
Width: 537
GlyphClass: 2
Flags: MW
LayerCount: 2
Fore
SplineSet
92 322 m 1
 92 403 l 1
 92 418 l 1
 107 418 l 1
 295 418 l 1
 310 418 l 1
 310 403 l 1
 310 322 l 1
 310 307 l 1
 295 307 l 1
 107 307 l 1
 92 307 l 1
 92 322 l 1
EndSplineSet
Validated: 1
EndChar

StartChar: registered
Encoding: 174 174 111
Width: 537
GlyphClass: 2
Flags: MW
LayerCount: 2
Fore
SplineSet
181.786796564 418 m 1
 204.393398282 440.606601718 l 1
 206.786796564 443 l 1
 181.786796564 468 l 1
 176 468 l 1
 176 418 l 1
 181.786796564 418 l 1
66 161 m 1
 66 564 l 1
 66 579 l 1
 81 579 l 1
 215 579 l 1
 221.213203436 579 l 1
 225.606601718 574.606601718 l 1
 332.606601718 467.606601718 l 1
 337 463.213203436 l 1
 337 457 l 1
 337 430 l 1
 337 423.8413023 l 1
 332.672275372 419.459481114 l 1
 260.200008845 346.081311255 l 1
 335.433053378 194.674809132 l 1
 342.041404892 181.37550171 l 1
 328.808886721 174.634407547 l 1
 275.808886721 147.634407547 l 1
 272.60060524 146 l 1
 269 146 l 1
 255 146 l 1
 245.703687426 146 l 1
 241.566946622 154.325190868 l 1
 176 286.278670945 l 1
 176 161 l 1
 176 146 l 1
 161 146 l 1
 81 146 l 1
 66 146 l 1
 66 161 l 1
262.786796564 69 m 1
 361 167.213203436 l 1
 361 557.786796564 l 1
 262.786796564 656 l 1
 140.213203436 656 l 1
 42 557.786796564 l 1
 42 167.213203436 l 1
 140.213203436 69 l 1
 262.786796564 69 l 1
96.3933982822 -10.6066017178 m 1
 -37.6066017178 123.393398282 l 1
 -42 127.786796564 l 1
 -42 134 l 1
 -42 591 l 1
 -42 597.213203436 l 1
 -37.6066017178 601.606601718 l 1
 96.3933982822 735.606601718 l 1
 100.786796564 740 l 1
 107 740 l 1
 295 740 l 1
 301.180564007 740 l 1
 305.567098955 735.645957903 l 1
 440.567098955 601.645957903 l 1
 445 597.245893162 l 1
 445 591 l 1
 445 134 l 1
 445 127.754106838 l 1
 440.567098955 123.354042097 l 1
 305.567098955 -10.6459579028 l 1
 301.180564007 -15 l 1
 295 -15 l 1
 107 -15 l 1
 100.786796564 -15 l 1
 96.3933982822 -10.6066017178 l 1
EndSplineSet
Validated: 1
EndChar

StartChar: macron
Encoding: 175 175 112
Width: 537
GlyphClass: 2
Flags: MW
LayerCount: 2
Fore
SplineSet
39 645 m 1
 39 725 l 1
 39 740 l 1
 54 740 l 1
 349 740 l 1
 364 740 l 1
 364 725 l 1
 364 645 l 1
 364 630 l 1
 349 630 l 1
 54 630 l 1
 39 630 l 1
 39 645 l 1
EndSplineSet
Validated: 1
EndChar

StartChar: degree
Encoding: 176 176 113
Width: 537
GlyphClass: 2
Flags: MW
LayerCount: 2
Fore
SplineSet
235.704519513 498 m 1
 280 543.131244269 l 1
 280 611.786796564 l 1
 235.786796564 656 l 1
 167.131244269 656 l 1
 122 611.704519513 l 1
 122 543.213203436 l 1
 167.213203436 498 l 1
 235.704519513 498 l 1
123.393398282 419.393398282 m 1
 43.3933982822 499.393398282 l 1
 39 503.786796564 l 1
 39 510 l 1
 39 645 l 1
 39 651.213203436 l 1
 43.3933982822 655.606601718 l 1
 123.393398282 735.606601718 l 1
 127.786796564 740 l 1
 134 740 l 1
 269 740 l 1
 275.213203436 740 l 1
 279.606601718 735.606601718 l 1
 359.606601718 655.606601718 l 1
 364 651.213203436 l 1
 364 645 l 1
 364 510 l 1
 364 503.786796564 l 1
 359.606601718 499.393398282 l 1
 279.606601718 419.393398282 l 1
 275.213203436 415 l 1
 269 415 l 1
 134 415 l 1
 127.786796564 415 l 1
 123.393398282 419.393398282 l 1
EndSplineSet
Validated: 1
EndChar

StartChar: plusminus
Encoding: 177 177 114
Width: 537
GlyphClass: 2
Flags: MW
LayerCount: 2
Fore
SplineSet
-15 81 m 1
 -15 161 l 1
 -15 176 l 1
 0 176 l 1
 403 176 l 1
 418 176 l 1
 418 161 l 1
 418 81 l 1
 418 66 l 1
 403 66 l 1
 0 66 l 1
 -15 66 l 1
 -15 81 l 1
146 242 m 1
 146 388 l 1
 0 388 l 1
 -15 388 l 1
 -15 403 l 1
 -15 483 l 1
 -15 498 l 1
 0 498 l 1
 146 498 l 1
 146 645 l 1
 146 660 l 1
 161 660 l 1
 242 660 l 1
 257 660 l 1
 257 645 l 1
 257 498 l 1
 403 498 l 1
 418 498 l 1
 418 483 l 1
 418 403 l 1
 418 388 l 1
 403 388 l 1
 257 388 l 1
 257 242 l 1
 257 227 l 1
 242 227 l 1
 161 227 l 1
 146 227 l 1
 146 242 l 1
EndSplineSet
Validated: 1
EndChar

StartChar: uni00B2
Encoding: 178 178 115
Width: 537
GlyphClass: 2
Flags: MW
LayerCount: 2
Fore
SplineSet
-15 242 m 1
 -15 295 l 1
 -15 301.199584876 l 1
 -10.6230332943 305.590144646 l 1
 307 624.199584876 l 1
 307 638.786796564 l 1
 235.786796564 710 l 1
 167.213203436 710 l 1
 64.6066017178 607.393398282 l 1
 54.0986639181 596.885460483 l 1
 43.4929842528 607.294738673 l 1
 -10.5070157472 660.294738673 l 1
 -21.2726971897 670.861055644 l 1
 -10.6459579028 681.567098955 l 1
 123.354042097 816.567098955 l 1
 127.754106838 821 l 1
 134 821 l 1
 269 821 l 1
 275.245893162 821 l 1
 279.645957903 816.567098955 l 1
 413.645957903 681.567098955 l 1
 418 677.180564007 l 1
 418 671 l 1
 418 591 l 1
 418 584.786796564 l 1
 413.606601718 580.393398282 l 1
 170.213203436 337 l 1
 403 337 l 1
 418 337 l 1
 418 322 l 1
 418 242 l 1
 418 227 l 1
 403 227 l 1
 0 227 l 1
 -15 227 l 1
 -15 242 l 1
EndSplineSet
Validated: 1
EndChar

StartChar: uni00B3
Encoding: 179 179 116
Width: 537
GlyphClass: 2
Flags: MW
LayerCount: 2
Fore
SplineSet
123.393398282 231.393398282 m 1
 -10.6066017178 365.393398282 l 1
 -21.2132034356 376 l 1
 -10.6066017178 386.606601718 l 1
 43.3933982822 440.606601718 l 1
 54.0494477586 451.262651194 l 1
 64.6558194893 440.557154494 l 1
 167.254111442 337 l 1
 235.73215042 337 l 1
 300.852471485 402.934325079 l 1
 235.786796564 468 l 1
 134 468 l 1
 119 468 l 1
 119 483 l 1
 119 564 l 1
 119 579 l 1
 134 579 l 1
 235.73215042 579 l 1
 300.852471485 644.934325079 l 1
 235.786796564 710 l 1
 167.213203436 710 l 1
 64.6066017178 607.393398282 l 1
 54.0986639181 596.885460483 l 1
 43.4929842528 607.294738673 l 1
 -10.5070157472 660.294738673 l 1
 -21.2726971897 670.861055644 l 1
 -10.6459579028 681.567098955 l 1
 123.354042097 816.567098955 l 1
 127.754106838 821 l 1
 134 821 l 1
 269 821 l 1
 275.245893162 821 l 1
 279.645957903 816.567098955 l 1
 413.645957903 681.567098955 l 1
 418 677.180564007 l 1
 418 671 l 1
 418 618 l 1
 418 611.786796564 l 1
 413.606601718 607.393398282 l 1
 332.606601718 526.393398282 l 1
 330.213203436 524 l 1
 413.606601718 440.606601718 l 1
 418 436.213203436 l 1
 418 430 l 1
 418 376 l 1
 418 369.786796564 l 1
 413.606601718 365.393398282 l 1
 279.606601718 231.393398282 l 1
 275.213203436 227 l 1
 269 227 l 1
 134 227 l 1
 127.786796564 227 l 1
 123.393398282 231.393398282 l 1
EndSplineSet
Validated: 1
EndChar

StartChar: acute
Encoding: 180 180 117
Width: 537
GlyphClass: 2
Flags: MW
LayerCount: 2
Fore
SplineSet
127.191113279 335.634407547 m 1
 74.1911132787 362.634407547 l 1
 60.9408406888 369.384546414 l 1
 67.5759080678 382.692813743 l 1
 241.575908068 731.692813743 l 1
 245.717599783 740 l 1
 255 740 l 1
 269 740 l 1
 272.60060524 740 l 1
 275.808886721 738.365592453 l 1
 328.808886721 711.365592453 l 1
 342.059159311 704.615453586 l 1
 335.424091932 691.307186257 l 1
 161.424091932 342.307186257 l 1
 157.282400217 334 l 1
 148 334 l 1
 134 334 l 1
 130.39939476 334 l 1
 127.191113279 335.634407547 l 1
EndSplineSet
Validated: 1
EndChar

StartChar: mu
Encoding: 181 181 118
Width: 537
GlyphClass: 2
Flags: MW
LayerCount: 2
Fore
SplineSet
-15 -161 m 1
 -15 564 l 1
 -15 579 l 1
 0 579 l 1
 81 579 l 1
 96 579 l 1
 96 564 l 1
 96 167.213203436 l 1
 167.213203436 96 l 1
 208.786796564 96 l 1
 307 194.213203436 l 1
 307 564 l 1
 307 579 l 1
 322 579 l 1
 403 579 l 1
 418 579 l 1
 418 564 l 1
 418 0 l 1
 418 -15 l 1
 403 -15 l 1
 322 -15 l 1
 307 -15 l 1
 307 0 l 1
 307 44.4663022999 l 1
 252.672275372 -10.5405188859 l 1
 248.26784958 -15 l 1
 242 -15 l 1
 134 -15 l 1
 127.704519513 -15 l 1
 123.294738673 -10.5070157472 l 1
 96 17.3027179947 l 1
 96 -161 l 1
 96 -176 l 1
 81 -176 l 1
 0 -176 l 1
 -15 -176 l 1
 -15 -161 l 1
EndSplineSet
Validated: 1
EndChar

StartChar: paragraph
Encoding: 182 182 119
Width: 537
GlyphClass: 2
Flags: MW
LayerCount: 2
Fore
SplineSet
173 -161 m 1
 173 307 l 1
 134 307 l 1
 127.754106838 307 l 1
 123.354042097 311.432901045 l 1
 -10.6459579028 446.432901045 l 1
 -15 450.819435993 l 1
 -15 457 l 1
 -15 591 l 1
 -15 597.213203436 l 1
 -10.6066017178 601.606601718 l 1
 123.393398282 735.606601718 l 1
 127.786796564 740 l 1
 134 740 l 1
 403 740 l 1
 418 740 l 1
 418 725 l 1
 418 -161 l 1
 418 -176 l 1
 403 -176 l 1
 322 -176 l 1
 307 -176 l 1
 307 -161 l 1
 307 630 l 1
 284 630 l 1
 284 -161 l 1
 284 -176 l 1
 269 -176 l 1
 188 -176 l 1
 173 -176 l 1
 173 -161 l 1
EndSplineSet
Validated: 1
EndChar

StartChar: periodcentered
Encoding: 183 183 120
Width: 537
GlyphClass: 2
Flags: MW
LayerCount: 2
Fore
SplineSet
119 295 m 1
 119 430 l 1
 119 445 l 1
 134 445 l 1
 269 445 l 1
 284 445 l 1
 284 430 l 1
 284 295 l 1
 284 280 l 1
 269 280 l 1
 134 280 l 1
 119 280 l 1
 119 295 l 1
EndSplineSet
Validated: 1
EndChar

StartChar: cedilla
Encoding: 184 184 121
Width: 537
GlyphClass: 2
Flags: MW
LayerCount: 2
Fore
SplineSet
96.4929842528 -96.2947386726 m 1
 146 -47.7045195133 l 1
 146 81 l 1
 146 96 l 1
 161 96 l 1
 242 96 l 1
 257 96 l 1
 257 81 l 1
 257 -81 l 1
 257 -87.2678495803 l 1
 252.540518886 -91.672275372 l 1
 171.540518886 -171.672275372 l 1
 160.934325079 -182.147528515 l 1
 150.393398282 -171.606601718 l 1
 96.3933982822 -117.606601718 l 1
 85.6872062448 -106.90040968 l 1
 96.4929842528 -96.2947386726 l 1
EndSplineSet
Validated: 1
EndChar

StartChar: uni00B9
Encoding: 185 185 122
Width: 537
GlyphClass: 2
Flags: MW
LayerCount: 2
Fore
SplineSet
12 242 m 1
 12 322 l 1
 12 337 l 1
 27 337 l 1
 146 337 l 1
 146 634.786796564 l 1
 64.6066017178 553.393398282 l 1
 54 542.786796564 l 1
 43.3933982822 553.393398282 l 1
 -10.6066017178 607.393398282 l 1
 -21.2132034356 618 l 1
 -10.6066017178 628.606601718 l 1
 177.393398282 816.606601718 l 1
 181.786796564 821 l 1
 188 821 l 1
 242 821 l 1
 257 821 l 1
 257 806 l 1
 257 337 l 1
 376 337 l 1
 391 337 l 1
 391 322 l 1
 391 242 l 1
 391 227 l 1
 376 227 l 1
 27 227 l 1
 12 227 l 1
 12 242 l 1
EndSplineSet
Validated: 1
EndChar

StartChar: ordmasculine
Encoding: 186 186 123
Width: 537
GlyphClass: 2
Flags: MW
LayerCount: 2
Fore
SplineSet
235.73215042 337 m 1
 307 409.1586977 l 1
 307 557.8413023 l 1
 235.73215042 630 l 1
 167.26784958 630 l 1
 96 557.8413023 l 1
 96 409.1586977 l 1
 167.26784958 337 l 1
 235.73215042 337 l 1
123.393398282 231.393398282 m 1
 -10.6066017178 365.393398282 l 1
 -15 369.786796564 l 1
 -15 376 l 1
 -15 591 l 1
 -15 597.213203436 l 1
 -10.6066017178 601.606601718 l 1
 123.393398282 735.606601718 l 1
 127.786796564 740 l 1
 134 740 l 1
 269 740 l 1
 275.213203436 740 l 1
 279.606601718 735.606601718 l 1
 413.606601718 601.606601718 l 1
 418 597.213203436 l 1
 418 591 l 1
 418 376 l 1
 418 369.786796564 l 1
 413.606601718 365.393398282 l 1
 279.606601718 231.393398282 l 1
 275.213203436 227 l 1
 269 227 l 1
 134 227 l 1
 127.786796564 227 l 1
 123.393398282 231.393398282 l 1
EndSplineSet
Validated: 1
EndChar

StartChar: guillemotright
Encoding: 187 187 124
Width: 537
GlyphClass: 2
Flags: MW
LayerCount: 2
Fore
SplineSet
99.7867965644 309 m 1
 -10.6066017178 419.393398282 l 1
 -21.3127937552 430.09959032 l 1
 -10.5070157472 440.705261327 l 1
 43.4929842528 493.705261327 l 1
 54.0986639181 504.114539517 l 1
 64.6066017178 493.606601718 l 1
 238.606601718 319.606601718 l 1
 249.182855567 309.030347868 l 1
 238.636949462 298.423833107 l 1
 64.6369494615 123.423833107 l 1
 54.0304349495 112.756361615 l 1
 43.3933982822 123.393398282 l 1
 -10.6066017178 177.393398282 l 1
 -21.2132034356 188 l 1
 -10.6066017178 198.606601718 l 1
 99.7867965644 309 l 1
287.786796564 309 m 1
 177.393398282 419.393398282 l 1
 166.687206245 430.09959032 l 1
 177.492984253 440.705261327 l 1
 231.492984253 493.705261327 l 1
 242.098663918 504.114539517 l 1
 252.606601718 493.606601718 l 1
 426.606601718 319.606601718 l 1
 437.182855567 309.030347868 l 1
 426.636949462 298.423833107 l 1
 252.636949462 123.423833107 l 1
 242.03043495 112.756361615 l 1
 231.393398282 123.393398282 l 1
 177.393398282 177.393398282 l 1
 166.786796564 188 l 1
 177.393398282 198.606601718 l 1
 287.786796564 309 l 1
EndSplineSet
Validated: 1
EndChar

StartChar: onequarter
Encoding: 188 188 125
Width: 537
GlyphClass: 2
Flags: MW
LayerCount: 2
Fore
SplineSet
66 403 m 1
 66 581.786796564 l 1
 37.6066017178 553.393398282 l 1
 27 542.786796564 l 1
 16.3933982822 553.393398282 l 1
 -37.6066017178 607.393398282 l 1
 -48.2132034356 618 l 1
 -37.6066017178 628.606601718 l 1
 96.3933982822 762.606601718 l 1
 100.786796564 767 l 1
 107 767 l 1
 161 767 l 1
 176 767 l 1
 176 752 l 1
 176 412.213203436 l 1
 338.393398282 574.606601718 l 1
 349 585.213203436 l 1
 359.606601718 574.606601718 l 1
 413.606601718 520.606601718 l 1
 424.213203436 510 l 1
 413.606601718 499.393398282 l 1
 64.6066017178 150.393398282 l 1
 54 139.786796564 l 1
 43.3933982822 150.393398282 l 1
 -10.6066017178 204.393398282 l 1
 -21.2132034356 215 l 1
 -10.6066017178 225.606601718 l 1
 151.786796564 388 l 1
 81 388 l 1
 66 388 l 1
 66 403 l 1
280 -27 m 1
 280 39 l 1
 161 39 l 1
 146 39 l 1
 146 54 l 1
 146 107 l 1
 146 110.555740278 l 1
 147.59608407 113.733129862 l 1
 255.59608407 328.733129862 l 1
 259.748744418 337 l 1
 269 337 l 1
 376 337 l 1
 391 337 l 1
 391 322 l 1
 391 149 l 1
 430 149 l 1
 445 149 l 1
 445 134 l 1
 445 54 l 1
 445 39 l 1
 430 39 l 1
 391 39 l 1
 391 -27 l 1
 391 -42 l 1
 376 -42 l 1
 295 -42 l 1
 280 -42 l 1
 280 -27 l 1
EndSplineSet
Validated: 1
EndChar

StartChar: onehalf
Encoding: 189 189 126
Width: 537
GlyphClass: 2
Flags: MW
LayerCount: 2
Fore
SplineSet
66 403 m 1
 66 581.786796564 l 1
 37.6066017178 553.393398282 l 1
 27 542.786796564 l 1
 16.3933982822 553.393398282 l 1
 -37.6066017178 607.393398282 l 1
 -48.2132034356 618 l 1
 -37.6066017178 628.606601718 l 1
 96.3933982822 762.606601718 l 1
 100.786796564 767 l 1
 107 767 l 1
 161 767 l 1
 176 767 l 1
 176 752 l 1
 176 412.213203436 l 1
 338.393398282 574.606601718 l 1
 349 585.213203436 l 1
 359.606601718 574.606601718 l 1
 413.606601718 520.606601718 l 1
 424.213203436 510 l 1
 413.606601718 499.393398282 l 1
 64.6066017178 150.393398282 l 1
 54 139.786796564 l 1
 43.3933982822 150.393398282 l 1
 -10.6066017178 204.393398282 l 1
 -21.2132034356 215 l 1
 -10.6066017178 225.606601718 l 1
 151.786796564 388 l 1
 81 388 l 1
 66 388 l 1
 66 403 l 1
173 -27 m 1
 173 27 l 1
 173 33.2132034356 l 1
 177.393398282 37.6066017178 l 1
 334 194.213203436 l 1
 334 208.786796564 l 1
 315.786796564 227 l 1
 301.295480487 227 l 1
 252.705261327 177.492984253 l 1
 242.09959032 166.687206245 l 1
 231.393398282 177.393398282 l 1
 177.393398282 231.393398282 l 1
 166.720712458 242.066084107 l 1
 177.459481114 252.672275372 l 1
 258.459481114 332.672275372 l 1
 262.8413023 337 l 1
 269 337 l 1
 349 337 l 1
 355.1586977 337 l 1
 359.540518886 332.672275372 l 1
 440.540518886 252.672275372 l 1
 445 248.26784958 l 1
 445 242 l 1
 445 161 l 1
 445 154.745888558 l 1
 440.557154494 150.344180511 l 1
 358.452747997 69 l 1
 430 69 l 1
 445 69 l 1
 445 54 l 1
 445 -27 l 1
 445 -42 l 1
 430 -42 l 1
 188 -42 l 1
 173 -42 l 1
 173 -27 l 1
EndSplineSet
Validated: 1
EndChar

StartChar: threequarters
Encoding: 190 190 127
Width: 537
GlyphClass: 2
Flags: MW
LayerCount: 2
Fore
SplineSet
280 -27 m 1
 280 39 l 1
 161 39 l 1
 146 39 l 1
 146 54 l 1
 146 107 l 1
 146 110.555740278 l 1
 147.59608407 113.733129862 l 1
 255.59608407 328.733129862 l 1
 259.748744418 337 l 1
 269 337 l 1
 376 337 l 1
 391 337 l 1
 391 322 l 1
 391 149 l 1
 430 149 l 1
 445 149 l 1
 445 134 l 1
 445 54 l 1
 445 39 l 1
 430 39 l 1
 391 39 l 1
 391 -27 l 1
 391 -42 l 1
 376 -42 l 1
 295 -42 l 1
 280 -42 l 1
 280 -27 l 1
-10.6066017178 225.606601718 m 1
 338.393398282 574.606601718 l 1
 349 585.213203436 l 1
 359.606601718 574.606601718 l 1
 413.606601718 520.606601718 l 1
 424.213203436 510 l 1
 413.606601718 499.393398282 l 1
 64.6066017178 150.393398282 l 1
 54 139.786796564 l 1
 43.3933982822 150.393398282 l 1
 -10.6066017178 204.393398282 l 1
 -21.2132034356 215 l 1
 -10.6066017178 225.606601718 l 1
43.4594811141 392.327724628 m 1
 -37.5405188859 472.327724628 l 1
 -48.2792875422 482.933915893 l 1
 -37.6066017178 493.606601718 l 1
 16.3933982822 547.606601718 l 1
 27 558.213203436 l 1
 37.6066017178 547.606601718 l 1
 87.2132034356 498 l 1
 100.786796564 498 l 1
 112.885460483 510.098663918 l 1
 70.2947386726 553.492984253 l 1
 66 557.868755731 l 1
 66 564 l 1
 66 591 l 1
 66 597.131244269 l 1
 70.2947386726 601.507015747 l 1
 112.687215231 644.699350354 l 1
 100.951925215 656 l 1
 87.1312442695 656 l 1
 37.5070157472 607.294738673 l 1
 27 596.982297291 l 1
 16.4929842528 607.294738673 l 1
 -37.5070157472 660.294738673 l 1
 -48.3127937552 670.90040968 l 1
 -37.6066017178 681.606601718 l 1
 43.3933982822 762.606601718 l 1
 47.7867965644 767 l 1
 54 767 l 1
 134 767 l 1
 140.213203436 767 l 1
 144.606601718 762.606601718 l 1
 225.606601718 681.606601718 l 1
 230 677.213203436 l 1
 230 671 l 1
 230 618 l 1
 230 611.786796564 l 1
 225.606601718 607.393398282 l 1
 198.606601718 580.393398282 l 1
 195.713203436 577.5 l 1
 225.606601718 547.606601718 l 1
 230 543.213203436 l 1
 230 537 l 1
 230 483 l 1
 230 476.73215042 l 1
 225.540518886 472.327724628 l 1
 144.540518886 392.327724628 l 1
 140.1586977 388 l 1
 134 388 l 1
 54 388 l 1
 47.8413022999 388 l 1
 43.4594811141 392.327724628 l 1
EndSplineSet
Validated: 1
EndChar

StartChar: questiondown
Encoding: 191 191 128
Width: 537
GlyphClass: 2
Flags: MW
LayerCount: 2
Fore
SplineSet
123.393398282 -171.606601718 m 1
 -10.6066017178 -37.6066017178 l 1
 -15 -33.2132034356 l 1
 -15 -27 l 1
 -15 107 l 1
 -15 113.186017228 l 1
 -10.6393885045 117.573713267 l 1
 146 275.186017228 l 1
 146 349 l 1
 146 364 l 1
 161 364 l 1
 242 364 l 1
 257 364 l 1
 257 349 l 1
 257 242 l 1
 257 235.786796564 l 1
 252.606601718 231.393398282 l 1
 96 74.7867965644 l 1
 96 6.15869770006 l 1
 167.26784958 -66 l 1
 235.745888558 -66 l 1
 338.344180511 37.557154494 l 1
 348.950552241 48.2626511942 l 1
 359.606601718 37.6066017178 l 1
 413.606601718 -16.3933982822 l 1
 424.213203436 -27 l 1
 413.606601718 -37.6066017178 l 1
 279.606601718 -171.606601718 l 1
 275.213203436 -176 l 1
 269 -176 l 1
 134 -176 l 1
 127.786796564 -176 l 1
 123.393398282 -171.606601718 l 1
119 430 m 1
 119 564 l 1
 119 579 l 1
 134 579 l 1
 269 579 l 1
 284 579 l 1
 284 564 l 1
 284 430 l 1
 284 415 l 1
 269 415 l 1
 134 415 l 1
 119 415 l 1
 119 430 l 1
EndSplineSet
Validated: 1
EndChar

StartChar: Agrave
Encoding: 192 192 129
Width: 537
GlyphClass: 2
Flags: MW
LayerCount: 2
Fore
SplineSet
307 337 m 1
 307 372.458980338 l 1
 201.055715826 584.347548685 l 1
 96 372.485188435 l 1
 96 337 l 1
 307 337 l 1
-15 0 m 1
 -15 376 l 1
 -15 379.550090715 l 1
 -13.4087149857 382.723567686 l 1
 161.591285014 731.723567686 l 1
 165.741358524 740 l 1
 175 740 l 1
 228 740 l 1
 237.258641476 740 l 1
 241.408714986 731.723567686 l 1
 416.408714986 382.723567686 l 1
 418 379.550090715 l 1
 418 376 l 1
 418 0 l 1
 418 -15 l 1
 403 -15 l 1
 322 -15 l 1
 307 -15 l 1
 307 0 l 1
 307 227 l 1
 96 227 l 1
 96 0 l 1
 96 -15 l 1
 81 -15 l 1
 0 -15 l 1
 -15 -15 l 1
 -15 0 l 1
96.3933982822 896.606601718 m 1
 150.393398282 950.606601718 l 1
 160.950781696 961.163985132 l 1
 171.557154494 950.655819489 l 1
 279.557154494 843.655819489 l 1
 290.262651194 833.049447759 l 1
 279.606601718 822.393398282 l 1
 225.606601718 768.393398282 l 1
 215.049218304 757.836014868 l 1
 204.442845506 768.344180511 l 1
 96.442845506 875.344180511 l 1
 85.7373488058 885.950552241 l 1
 96.3933982822 896.606601718 l 1
EndSplineSet
Validated: 1
EndChar

StartChar: Aacute
Encoding: 193 193 130
Width: 537
GlyphClass: 2
Flags: MW
LayerCount: 2
Fore
SplineSet
307 337 m 1
 307 372.458980338 l 1
 201.055715826 584.347548685 l 1
 96 372.485188435 l 1
 96 337 l 1
 307 337 l 1
-15 0 m 1
 -15 376 l 1
 -15 379.550090715 l 1
 -13.4087149857 382.723567686 l 1
 161.591285014 731.723567686 l 1
 165.741358524 740 l 1
 175 740 l 1
 228 740 l 1
 237.258641476 740 l 1
 241.408714986 731.723567686 l 1
 416.408714986 382.723567686 l 1
 418 379.550090715 l 1
 418 376 l 1
 418 0 l 1
 418 -15 l 1
 403 -15 l 1
 322 -15 l 1
 307 -15 l 1
 307 0 l 1
 307 227 l 1
 96 227 l 1
 96 0 l 1
 96 -15 l 1
 81 -15 l 1
 0 -15 l 1
 -15 -15 l 1
 -15 0 l 1
123.442845506 843.655819489 m 1
 231.442845506 950.655819489 l 1
 242.148805382 961.262650107 l 1
 252.705261327 950.507015747 l 1
 305.705261327 896.507015747 l 1
 316.114539517 885.901336082 l 1
 305.606601718 875.393398282 l 1
 198.606601718 768.393398282 l 1
 188 757.786796564 l 1
 177.393398282 768.393398282 l 1
 123.393398282 822.393398282 l 1
 112.737348806 833.049447759 l 1
 123.442845506 843.655819489 l 1
EndSplineSet
Validated: 5
EndChar

StartChar: Acircumflex
Encoding: 194 194 131
Width: 537
GlyphClass: 2
Flags: MW
LayerCount: 2
Fore
SplineSet
307 337 m 1
 307 372.458980338 l 1
 201.055715826 584.347548685 l 1
 96 372.485188435 l 1
 96 337 l 1
 307 337 l 1
-15 0 m 1
 -15 376 l 1
 -15 379.550090715 l 1
 -13.4087149857 382.723567686 l 1
 161.591285014 731.723567686 l 1
 165.741358524 740 l 1
 175 740 l 1
 228 740 l 1
 237.258641476 740 l 1
 241.408714986 731.723567686 l 1
 416.408714986 382.723567686 l 1
 418 379.550090715 l 1
 418 376 l 1
 418 0 l 1
 418 -15 l 1
 403 -15 l 1
 322 -15 l 1
 307 -15 l 1
 307 0 l 1
 307 227 l 1
 96 227 l 1
 96 0 l 1
 96 -15 l 1
 81 -15 l 1
 0 -15 l 1
 -15 -15 l 1
 -15 0 l 1
70.3933982822 843.606601718 m 1
 177.393398282 950.606601718 l 1
 181.786796564 955 l 1
 188 955 l 1
 215 955 l 1
 221.213203436 955 l 1
 225.606601718 950.606601718 l 1
 332.606601718 843.606601718 l 1
 343.114539517 833.098663918 l 1
 332.705261327 822.492984253 l 1
 279.705261327 768.492984253 l 1
 269.09959032 757.687206245 l 1
 258.393398282 768.393398282 l 1
 204.58974952 822.197047045 l 1
 201.385564833 825.172361397 l 1
 144.606601718 768.393398282 l 1
 133.90040968 757.687206245 l 1
 123.294738673 768.492984253 l 1
 70.2947386726 822.492984253 l 1
 59.8854604825 833.098663918 l 1
 70.3933982822 843.606601718 l 1
EndSplineSet
Validated: 5
EndChar

StartChar: Atilde
Encoding: 195 195 132
Width: 537
GlyphClass: 2
Flags: MW
LayerCount: 2
Fore
SplineSet
307 337 m 1
 307 372.458980338 l 1
 201.055715826 584.347548685 l 1
 96 372.485188435 l 1
 96 337 l 1
 307 337 l 1
-15 0 m 1
 -15 376 l 1
 -15 379.550090715 l 1
 -13.4087149857 382.723567686 l 1
 161.591285014 731.723567686 l 1
 165.741358524 740 l 1
 175 740 l 1
 228 740 l 1
 237.258641476 740 l 1
 241.408714986 731.723567686 l 1
 416.408714986 382.723567686 l 1
 418 379.550090715 l 1
 418 376 l 1
 418 0 l 1
 418 -15 l 1
 403 -15 l 1
 322 -15 l 1
 307 -15 l 1
 307 0 l 1
 307 227 l 1
 96 227 l 1
 96 0 l 1
 96 -15 l 1
 81 -15 l 1
 0 -15 l 1
 -15 -15 l 1
 -15 0 l 1
16.3933982822 843.606601718 m 1
 96.3933982822 923.606601718 l 1
 100.786796564 928 l 1
 107 928 l 1
 188 928 l 1
 194.213203436 928 l 1
 198.606601718 923.606601718 l 1
 248.213203436 874 l 1
 262.704519513 874 l 1
 311.294738673 923.507015747 l 1
 321.90040968 934.312793755 l 1
 332.606601718 923.606601718 l 1
 386.606601718 869.606601718 l 1
 397.279287542 858.933915893 l 1
 386.540518886 848.327724628 l 1
 305.540518886 768.327724628 l 1
 301.1586977 764 l 1
 295 764 l 1
 215 764 l 1
 208.786796564 764 l 1
 204.393398282 768.393398282 l 1
 154.786796564 818 l 1
 140.295480487 818 l 1
 91.7052613274 768.492984253 l 1
 81.0995903196 757.687206245 l 1
 70.3933982822 768.393398282 l 1
 16.3933982822 822.393398282 l 1
 5.7867965644 833 l 1
 16.3933982822 843.606601718 l 1
EndSplineSet
Validated: 5
EndChar

StartChar: Adieresis
Encoding: 196 196 133
Width: 537
GlyphClass: 2
Flags: MW
LayerCount: 2
Fore
SplineSet
307 337 m 1
 307 372.458980338 l 1
 201.055715826 584.347548685 l 1
 96 372.485188435 l 1
 96 337 l 1
 307 337 l 1
-15 0 m 1
 -15 376 l 1
 -15 379.550090715 l 1
 -13.4087149857 382.723567686 l 1
 161.591285014 731.723567686 l 1
 165.741358524 740 l 1
 175 740 l 1
 228 740 l 1
 237.258641476 740 l 1
 241.408714986 731.723567686 l 1
 416.408714986 382.723567686 l 1
 418 379.550090715 l 1
 418 376 l 1
 418 0 l 1
 418 -15 l 1
 403 -15 l 1
 322 -15 l 1
 307 -15 l 1
 307 0 l 1
 307 227 l 1
 96 227 l 1
 96 0 l 1
 96 -15 l 1
 81 -15 l 1
 0 -15 l 1
 -15 -15 l 1
 -15 0 l 1
39 806 m 1
 39 886 l 1
 39 901 l 1
 54 901 l 1
 134 901 l 1
 149 901 l 1
 149 886 l 1
 149 806 l 1
 149 791 l 1
 134 791 l 1
 54 791 l 1
 39 791 l 1
 39 806 l 1
254 806 m 1
 254 886 l 1
 254 901 l 1
 269 901 l 1
 349 901 l 1
 364 901 l 1
 364 886 l 1
 364 806 l 1
 364 791 l 1
 349 791 l 1
 269 791 l 1
 254 791 l 1
 254 806 l 1
EndSplineSet
Validated: 1
EndChar

StartChar: Aring
Encoding: 197 197 134
Width: 537
GlyphClass: 2
Flags: MW
LayerCount: 2
Fore
SplineSet
307 337 m 1
 307 372.458980338 l 1
 201.055715826 584.347548685 l 1
 96 372.485188435 l 1
 96 337 l 1
 307 337 l 1
208.786796564 767 m 1
 227 785.213203436 l 1
 227 799.786796564 l 1
 208.786796564 818 l 1
 194.213203436 818 l 1
 176 799.786796564 l 1
 176 785.213203436 l 1
 194.213203436 767 l 1
 208.786796564 767 l 1
-15 0 m 1
 -15 376 l 1
 -15 379.541019662 l 1
 -13.416407865 382.708203932 l 1
 142.748592301 695.038204264 l 1
 96.3933982822 741.393398282 l 1
 92 745.786796564 l 1
 92 752 l 1
 92 833 l 1
 92 839.295480487 l 1
 96.4929842528 843.705261327 l 1
 150.492984253 896.705261327 l 1
 154.868755731 901 l 1
 161 901 l 1
 242 901 l 1
 248.213203436 901 l 1
 252.606601718 896.606601718 l 1
 305.606601718 843.606601718 l 1
 310 839.213203436 l 1
 310 833 l 1
 310 752 l 1
 310 745.868755731 l 1
 305.705261327 741.492984253 l 1
 260.203937427 695.133144808 l 1
 416.416407865 382.708203932 l 1
 418 379.541019662 l 1
 418 376 l 1
 418 0 l 1
 418 -15 l 1
 403 -15 l 1
 322 -15 l 1
 307 -15 l 1
 307 0 l 1
 307 227 l 1
 96 227 l 1
 96 0 l 1
 96 -15 l 1
 81 -15 l 1
 0 -15 l 1
 -15 -15 l 1
 -15 0 l 1
EndSplineSet
Validated: 1
EndChar

StartChar: AE
Encoding: 198 198 135
Width: 537
GlyphClass: 2
Flags: MW
LayerCount: 2
Fore
SplineSet
173 337 m 1
 173 527.193348058 l 1
 96 372.47372189 l 1
 96 337 l 1
 173 337 l 1
-15 0 m 1
 -15 376 l 1
 -15 379.550090715 l 1
 -13.4087149857 382.723567686 l 1
 161.591285014 731.723567686 l 1
 165.741358524 740 l 1
 175 740 l 1
 403 740 l 1
 418 740 l 1
 418 725 l 1
 418 645 l 1
 418 630 l 1
 403 630 l 1
 284 630 l 1
 284 418 l 1
 349 418 l 1
 364 418 l 1
 364 403 l 1
 364 322 l 1
 364 307 l 1
 349 307 l 1
 284 307 l 1
 284 96 l 1
 403 96 l 1
 418 96 l 1
 418 81 l 1
 418 0 l 1
 418 -15 l 1
 403 -15 l 1
 188 -15 l 1
 173 -15 l 1
 173 0 l 1
 173 227 l 1
 96 227 l 1
 96 0 l 1
 96 -15 l 1
 81 -15 l 1
 0 -15 l 1
 -15 -15 l 1
 -15 0 l 1
EndSplineSet
Validated: 1
EndChar

StartChar: Ccedilla
Encoding: 199 199 136
Width: 537
GlyphClass: 2
Flags: MW
LayerCount: 2
Fore
SplineSet
96.4929842528 -96.2947386726 m 1
 146 -47.7045195133 l 1
 146 -15 l 1
 134 -15 l 1
 127.786796564 -15 l 1
 123.393398282 -10.6066017178 l 1
 -10.6066017178 123.393398282 l 1
 -15 127.786796564 l 1
 -15 134 l 1
 -15 591 l 1
 -15 597.213203436 l 1
 -10.6066017178 601.606601718 l 1
 123.393398282 735.606601718 l 1
 127.786796564 740 l 1
 134 740 l 1
 269 740 l 1
 275.213203436 740 l 1
 279.606601718 735.606601718 l 1
 413.606601718 601.606601718 l 1
 424.213203436 591 l 1
 413.606601718 580.393398282 l 1
 359.606601718 526.393398282 l 1
 348.950552241 515.737348806 l 1
 338.344180511 526.442845506 l 1
 235.745888558 630 l 1
 167.26784958 630 l 1
 96 557.8413023 l 1
 96 167.213203436 l 1
 167.213203436 96 l 1
 235.786796564 96 l 1
 338.393398282 198.606601718 l 1
 349 209.213203436 l 1
 358.94368911 199.269514325 l 1
 359.606601718 198.606601718 l 1
 413.606601718 144.606601718 l 1
 424.213203436 134 l 1
 413.606601718 123.393398282 l 1
 279.606601718 -10.6066017178 l 1
 275.213203436 -15 l 1
 269 -15 l 1
 257 -15 l 1
 257 -81 l 1
 257 -87.2678495803 l 1
 252.540518886 -91.672275372 l 1
 171.540518886 -171.672275372 l 1
 160.934325079 -182.147528515 l 1
 150.393398282 -171.606601718 l 1
 96.3933982822 -117.606601718 l 1
 85.6872062448 -106.90040968 l 1
 96.4929842528 -96.2947386726 l 1
EndSplineSet
Validated: 5
EndChar

StartChar: Egrave
Encoding: 200 200 137
Width: 537
GlyphClass: 2
Flags: MW
LayerCount: 2
Fore
SplineSet
-15 0 m 1
 -15 725 l 1
 -15 740 l 1
 0 740 l 1
 403 740 l 1
 418 740 l 1
 418 725 l 1
 418 645 l 1
 418 630 l 1
 403 630 l 1
 96 630 l 1
 96 418 l 1
 322 418 l 1
 337 418 l 1
 337 403 l 1
 337 322 l 1
 337 307 l 1
 322 307 l 1
 96 307 l 1
 96 96 l 1
 403 96 l 1
 418 96 l 1
 418 81 l 1
 418 0 l 1
 418 -15 l 1
 403 -15 l 1
 0 -15 l 1
 -15 -15 l 1
 -15 0 l 1
96.3933982822 896.606601718 m 1
 150.393398282 950.606601718 l 1
 160.950781696 961.163985132 l 1
 171.557154494 950.655819489 l 1
 279.557154494 843.655819489 l 1
 290.262651194 833.049447759 l 1
 279.606601718 822.393398282 l 1
 225.606601718 768.393398282 l 1
 215.049218304 757.836014868 l 1
 204.442845506 768.344180511 l 1
 96.442845506 875.344180511 l 1
 85.7373488058 885.950552241 l 1
 96.3933982822 896.606601718 l 1
EndSplineSet
Validated: 5
EndChar

StartChar: Eacute
Encoding: 201 201 138
Width: 537
GlyphClass: 2
Flags: MW
LayerCount: 2
Fore
SplineSet
-15 0 m 1
 -15 725 l 1
 -15 740 l 1
 0 740 l 1
 403 740 l 1
 418 740 l 1
 418 725 l 1
 418 645 l 1
 418 630 l 1
 403 630 l 1
 96 630 l 1
 96 418 l 1
 322 418 l 1
 337 418 l 1
 337 403 l 1
 337 322 l 1
 337 307 l 1
 322 307 l 1
 96 307 l 1
 96 96 l 1
 403 96 l 1
 418 96 l 1
 418 81 l 1
 418 0 l 1
 418 -15 l 1
 403 -15 l 1
 0 -15 l 1
 -15 -15 l 1
 -15 0 l 1
123.442845506 843.655819489 m 1
 231.442845506 950.655819489 l 1
 242.148805382 961.262650107 l 1
 252.705261327 950.507015747 l 1
 305.705261327 896.507015747 l 1
 316.114539517 885.901336082 l 1
 305.606601718 875.393398282 l 1
 198.606601718 768.393398282 l 1
 188 757.786796564 l 1
 177.393398282 768.393398282 l 1
 123.393398282 822.393398282 l 1
 112.737348806 833.049447759 l 1
 123.442845506 843.655819489 l 1
EndSplineSet
Validated: 5
EndChar

StartChar: Ecircumflex
Encoding: 202 202 139
Width: 537
GlyphClass: 2
Flags: MW
LayerCount: 2
Fore
SplineSet
-15 0 m 1
 -15 725 l 1
 -15 740 l 1
 0 740 l 1
 403 740 l 1
 418 740 l 1
 418 725 l 1
 418 645 l 1
 418 630 l 1
 403 630 l 1
 96 630 l 1
 96 418 l 1
 322 418 l 1
 337 418 l 1
 337 403 l 1
 337 322 l 1
 337 307 l 1
 322 307 l 1
 96 307 l 1
 96 96 l 1
 403 96 l 1
 418 96 l 1
 418 81 l 1
 418 0 l 1
 418 -15 l 1
 403 -15 l 1
 0 -15 l 1
 -15 -15 l 1
 -15 0 l 1
70.3933982822 843.606601718 m 1
 177.393398282 950.606601718 l 1
 181.786796564 955 l 1
 188 955 l 1
 215 955 l 1
 221.213203436 955 l 1
 225.606601718 950.606601718 l 1
 332.606601718 843.606601718 l 1
 343.114539517 833.098663918 l 1
 332.705261327 822.492984253 l 1
 279.705261327 768.492984253 l 1
 269.09959032 757.687206245 l 1
 258.393398282 768.393398282 l 1
 204.58974952 822.197047045 l 1
 201.385564833 825.172361397 l 1
 144.606601718 768.393398282 l 1
 133.90040968 757.687206245 l 1
 123.294738673 768.492984253 l 1
 70.2947386726 822.492984253 l 1
 59.8854604825 833.098663918 l 1
 70.3933982822 843.606601718 l 1
EndSplineSet
Validated: 5
EndChar

StartChar: Edieresis
Encoding: 203 203 140
Width: 537
GlyphClass: 2
Flags: MW
LayerCount: 2
Fore
SplineSet
-15 0 m 1
 -15 725 l 1
 -15 740 l 1
 0 740 l 1
 403 740 l 1
 418 740 l 1
 418 725 l 1
 418 645 l 1
 418 630 l 1
 403 630 l 1
 96 630 l 1
 96 418 l 1
 322 418 l 1
 337 418 l 1
 337 403 l 1
 337 322 l 1
 337 307 l 1
 322 307 l 1
 96 307 l 1
 96 96 l 1
 403 96 l 1
 418 96 l 1
 418 81 l 1
 418 0 l 1
 418 -15 l 1
 403 -15 l 1
 0 -15 l 1
 -15 -15 l 1
 -15 0 l 1
39 806 m 1
 39 886 l 1
 39 901 l 1
 54 901 l 1
 134 901 l 1
 149 901 l 1
 149 886 l 1
 149 806 l 1
 149 791 l 1
 134 791 l 1
 54 791 l 1
 39 791 l 1
 39 806 l 1
254 806 m 1
 254 886 l 1
 254 901 l 1
 269 901 l 1
 349 901 l 1
 364 901 l 1
 364 886 l 1
 364 806 l 1
 364 791 l 1
 349 791 l 1
 269 791 l 1
 254 791 l 1
 254 806 l 1
EndSplineSet
Validated: 1
EndChar

StartChar: Igrave
Encoding: 204 204 141
Width: 537
GlyphClass: 2
Flags: MW
LayerCount: 2
Fore
SplineSet
66 0 m 1
 66 81 l 1
 66 96 l 1
 81 96 l 1
 146 96 l 1
 146 630 l 1
 81 630 l 1
 66 630 l 1
 66 645 l 1
 66 725 l 1
 66 740 l 1
 81 740 l 1
 322 740 l 1
 337 740 l 1
 337 725 l 1
 337 645 l 1
 337 630 l 1
 322 630 l 1
 257 630 l 1
 257 96 l 1
 322 96 l 1
 337 96 l 1
 337 81 l 1
 337 0 l 1
 337 -15 l 1
 322 -15 l 1
 81 -15 l 1
 66 -15 l 1
 66 0 l 1
96.3933982822 896.606601718 m 1
 150.393398282 950.606601718 l 1
 160.950781696 961.163985132 l 1
 171.557154494 950.655819489 l 1
 279.557154494 843.655819489 l 1
 290.262651194 833.049447759 l 1
 279.606601718 822.393398282 l 1
 225.606601718 768.393398282 l 1
 215.049218304 757.836014868 l 1
 204.442845506 768.344180511 l 1
 96.442845506 875.344180511 l 1
 85.7373488058 885.950552241 l 1
 96.3933982822 896.606601718 l 1
EndSplineSet
Validated: 5
EndChar

StartChar: Iacute
Encoding: 205 205 142
Width: 537
GlyphClass: 2
Flags: MW
LayerCount: 2
Fore
SplineSet
66 0 m 1
 66 81 l 1
 66 96 l 1
 81 96 l 1
 146 96 l 1
 146 630 l 1
 81 630 l 1
 66 630 l 1
 66 645 l 1
 66 725 l 1
 66 740 l 1
 81 740 l 1
 322 740 l 1
 337 740 l 1
 337 725 l 1
 337 645 l 1
 337 630 l 1
 322 630 l 1
 257 630 l 1
 257 96 l 1
 322 96 l 1
 337 96 l 1
 337 81 l 1
 337 0 l 1
 337 -15 l 1
 322 -15 l 1
 81 -15 l 1
 66 -15 l 1
 66 0 l 1
123.442845506 843.655819489 m 1
 231.442845506 950.655819489 l 1
 242.148805382 961.262650107 l 1
 252.705261327 950.507015747 l 1
 305.705261327 896.507015747 l 1
 316.114539517 885.901336082 l 1
 305.606601718 875.393398282 l 1
 198.606601718 768.393398282 l 1
 188 757.786796564 l 1
 177.393398282 768.393398282 l 1
 123.393398282 822.393398282 l 1
 112.737348806 833.049447759 l 1
 123.442845506 843.655819489 l 1
EndSplineSet
Validated: 5
EndChar

StartChar: Icircumflex
Encoding: 206 206 143
Width: 537
GlyphClass: 2
Flags: MW
LayerCount: 2
Fore
SplineSet
66 0 m 1
 66 81 l 1
 66 96 l 1
 81 96 l 1
 146 96 l 1
 146 630 l 1
 81 630 l 1
 66 630 l 1
 66 645 l 1
 66 725 l 1
 66 740 l 1
 81 740 l 1
 322 740 l 1
 337 740 l 1
 337 725 l 1
 337 645 l 1
 337 630 l 1
 322 630 l 1
 257 630 l 1
 257 96 l 1
 322 96 l 1
 337 96 l 1
 337 81 l 1
 337 0 l 1
 337 -15 l 1
 322 -15 l 1
 81 -15 l 1
 66 -15 l 1
 66 0 l 1
70.3933982822 843.606601718 m 1
 177.393398282 950.606601718 l 1
 181.786796564 955 l 1
 188 955 l 1
 215 955 l 1
 221.213203436 955 l 1
 225.606601718 950.606601718 l 1
 332.606601718 843.606601718 l 1
 343.114539517 833.098663918 l 1
 332.705261327 822.492984253 l 1
 279.705261327 768.492984253 l 1
 269.09959032 757.687206245 l 1
 258.393398282 768.393398282 l 1
 204.58974952 822.197047045 l 1
 201.385564833 825.172361397 l 1
 144.606601718 768.393398282 l 1
 133.90040968 757.687206245 l 1
 123.294738673 768.492984253 l 1
 70.2947386726 822.492984253 l 1
 59.8854604825 833.098663918 l 1
 70.3933982822 843.606601718 l 1
EndSplineSet
Validated: 5
EndChar

StartChar: Idieresis
Encoding: 207 207 144
Width: 537
GlyphClass: 2
Flags: MW
LayerCount: 2
Fore
SplineSet
66 0 m 1
 66 81 l 1
 66 96 l 1
 81 96 l 1
 146 96 l 1
 146 630 l 1
 81 630 l 1
 66 630 l 1
 66 645 l 1
 66 725 l 1
 66 740 l 1
 81 740 l 1
 322 740 l 1
 337 740 l 1
 337 725 l 1
 337 645 l 1
 337 630 l 1
 322 630 l 1
 257 630 l 1
 257 96 l 1
 322 96 l 1
 337 96 l 1
 337 81 l 1
 337 0 l 1
 337 -15 l 1
 322 -15 l 1
 81 -15 l 1
 66 -15 l 1
 66 0 l 1
39 806 m 1
 39 886 l 1
 39 901 l 1
 54 901 l 1
 134 901 l 1
 149 901 l 1
 149 886 l 1
 149 806 l 1
 149 791 l 1
 134 791 l 1
 54 791 l 1
 39 791 l 1
 39 806 l 1
254 806 m 1
 254 886 l 1
 254 901 l 1
 269 901 l 1
 349 901 l 1
 364 901 l 1
 364 886 l 1
 364 806 l 1
 364 791 l 1
 349 791 l 1
 269 791 l 1
 254 791 l 1
 254 806 l 1
EndSplineSet
Validated: 1
EndChar

StartChar: Eth
Encoding: 208 208 145
Width: 537
GlyphClass: 2
Flags: MW
LayerCount: 2
Fore
SplineSet
235.786796564 96 m 1
 307 167.213203436 l 1
 307 557.8413023 l 1
 235.73215042 630 l 1
 122 630 l 1
 122 418 l 1
 215 418 l 1
 230 418 l 1
 230 403 l 1
 230 322 l 1
 230 307 l 1
 215 307 l 1
 122 307 l 1
 122 96 l 1
 235.786796564 96 l 1
12 0 m 1
 12 307 l 1
 -27 307 l 1
 -42 307 l 1
 -42 322 l 1
 -42 403 l 1
 -42 418 l 1
 -27 418 l 1
 12 418 l 1
 12 725 l 1
 12 740 l 1
 27 740 l 1
 269 740 l 1
 275.213203436 740 l 1
 279.606601718 735.606601718 l 1
 413.606601718 601.606601718 l 1
 418 597.213203436 l 1
 418 591 l 1
 418 134 l 1
 418 127.786796564 l 1
 413.606601718 123.393398282 l 1
 279.606601718 -10.6066017178 l 1
 275.213203436 -15 l 1
 269 -15 l 1
 27 -15 l 1
 12 -15 l 1
 12 0 l 1
EndSplineSet
Validated: 1
EndChar

StartChar: Ntilde
Encoding: 209 209 146
Width: 537
GlyphClass: 2
Flags: MW
LayerCount: 2
Fore
SplineSet
-15 0 m 1
 -15 725 l 1
 -15 740 l 1
 0 740 l 1
 67 740 l 1
 76.2705098312 740 l 1
 80.416407865 731.708203932 l 1
 307 278.541019662 l 1
 307 725 l 1
 307 740 l 1
 322 740 l 1
 403 740 l 1
 418 740 l 1
 418 725 l 1
 418 0 l 1
 418 -15 l 1
 403 -15 l 1
 349 -15 l 1
 339.721765034 -15 l 1
 335.5785972 -6.69820474959 l 1
 96 473.352939639 l 1
 96 0 l 1
 96 -15 l 1
 81 -15 l 1
 0 -15 l 1
 -15 -15 l 1
 -15 0 l 1
16.3933982822 843.606601718 m 1
 96.3933982822 923.606601718 l 1
 100.786796564 928 l 1
 107 928 l 1
 188 928 l 1
 194.213203436 928 l 1
 198.606601718 923.606601718 l 1
 248.213203436 874 l 1
 262.704519513 874 l 1
 311.294738673 923.507015747 l 1
 321.90040968 934.312793755 l 1
 332.606601718 923.606601718 l 1
 386.606601718 869.606601718 l 1
 397.279287542 858.933915893 l 1
 386.540518886 848.327724628 l 1
 305.540518886 768.327724628 l 1
 301.1586977 764 l 1
 295 764 l 1
 215 764 l 1
 208.786796564 764 l 1
 204.393398282 768.393398282 l 1
 154.786796564 818 l 1
 140.295480487 818 l 1
 91.7052613274 768.492984253 l 1
 81.0995903196 757.687206245 l 1
 70.3933982822 768.393398282 l 1
 16.3933982822 822.393398282 l 1
 5.7867965644 833 l 1
 16.3933982822 843.606601718 l 1
EndSplineSet
Validated: 5
EndChar

StartChar: Ograve
Encoding: 210 210 147
Width: 537
GlyphClass: 2
Flags: MW
LayerCount: 2
Fore
SplineSet
235.786796564 96 m 1
 307 167.213203436 l 1
 307 557.8413023 l 1
 235.73215042 630 l 1
 167.26784958 630 l 1
 96 557.8413023 l 1
 96 167.213203436 l 1
 167.213203436 96 l 1
 235.786796564 96 l 1
123.393398282 -10.6066017178 m 1
 -10.6066017178 123.393398282 l 1
 -15 127.786796564 l 1
 -15 134 l 1
 -15 591 l 1
 -15 597.213203436 l 1
 -10.6066017178 601.606601718 l 1
 123.393398282 735.606601718 l 1
 127.786796564 740 l 1
 134 740 l 1
 269 740 l 1
 275.213203436 740 l 1
 279.606601718 735.606601718 l 1
 413.606601718 601.606601718 l 1
 418 597.213203436 l 1
 418 591 l 1
 418 134 l 1
 418 127.786796564 l 1
 413.606601718 123.393398282 l 1
 279.606601718 -10.6066017178 l 1
 275.213203436 -15 l 1
 269 -15 l 1
 134 -15 l 1
 127.786796564 -15 l 1
 123.393398282 -10.6066017178 l 1
96.3933982822 896.606601718 m 1
 150.393398282 950.606601718 l 1
 160.950781696 961.163985132 l 1
 171.557154494 950.655819489 l 1
 279.557154494 843.655819489 l 1
 290.262651194 833.049447759 l 1
 279.606601718 822.393398282 l 1
 225.606601718 768.393398282 l 1
 215.049218304 757.836014868 l 1
 204.442845506 768.344180511 l 1
 96.442845506 875.344180511 l 1
 85.7373488058 885.950552241 l 1
 96.3933982822 896.606601718 l 1
EndSplineSet
Validated: 5
EndChar

StartChar: Oacute
Encoding: 211 211 148
Width: 537
GlyphClass: 2
Flags: MW
LayerCount: 2
Fore
SplineSet
235.786796564 96 m 1
 307 167.213203436 l 1
 307 557.8413023 l 1
 235.73215042 630 l 1
 167.26784958 630 l 1
 96 557.8413023 l 1
 96 167.213203436 l 1
 167.213203436 96 l 1
 235.786796564 96 l 1
123.393398282 -10.6066017178 m 1
 -10.6066017178 123.393398282 l 1
 -15 127.786796564 l 1
 -15 134 l 1
 -15 591 l 1
 -15 597.213203436 l 1
 -10.6066017178 601.606601718 l 1
 123.393398282 735.606601718 l 1
 127.786796564 740 l 1
 134 740 l 1
 269 740 l 1
 275.213203436 740 l 1
 279.606601718 735.606601718 l 1
 413.606601718 601.606601718 l 1
 418 597.213203436 l 1
 418 591 l 1
 418 134 l 1
 418 127.786796564 l 1
 413.606601718 123.393398282 l 1
 279.606601718 -10.6066017178 l 1
 275.213203436 -15 l 1
 269 -15 l 1
 134 -15 l 1
 127.786796564 -15 l 1
 123.393398282 -10.6066017178 l 1
123.442845506 843.655819489 m 1
 231.442845506 950.655819489 l 1
 242.148805382 961.262650107 l 1
 252.705261327 950.507015747 l 1
 305.705261327 896.507015747 l 1
 316.114539517 885.901336082 l 1
 305.606601718 875.393398282 l 1
 198.606601718 768.393398282 l 1
 188 757.786796564 l 1
 177.393398282 768.393398282 l 1
 123.393398282 822.393398282 l 1
 112.737348806 833.049447759 l 1
 123.442845506 843.655819489 l 1
EndSplineSet
Validated: 5
EndChar

StartChar: Ocircumflex
Encoding: 212 212 149
Width: 537
GlyphClass: 2
Flags: MW
LayerCount: 2
Fore
SplineSet
235.786796564 96 m 1
 307 167.213203436 l 1
 307 557.8413023 l 1
 235.73215042 630 l 1
 167.26784958 630 l 1
 96 557.8413023 l 1
 96 167.213203436 l 1
 167.213203436 96 l 1
 235.786796564 96 l 1
123.393398282 -10.6066017178 m 1
 -10.6066017178 123.393398282 l 1
 -15 127.786796564 l 1
 -15 134 l 1
 -15 591 l 1
 -15 597.213203436 l 1
 -10.6066017178 601.606601718 l 1
 123.393398282 735.606601718 l 1
 127.786796564 740 l 1
 134 740 l 1
 269 740 l 1
 275.213203436 740 l 1
 279.606601718 735.606601718 l 1
 413.606601718 601.606601718 l 1
 418 597.213203436 l 1
 418 591 l 1
 418 134 l 1
 418 127.786796564 l 1
 413.606601718 123.393398282 l 1
 279.606601718 -10.6066017178 l 1
 275.213203436 -15 l 1
 269 -15 l 1
 134 -15 l 1
 127.786796564 -15 l 1
 123.393398282 -10.6066017178 l 1
70.3933982822 843.606601718 m 1
 177.393398282 950.606601718 l 1
 181.786796564 955 l 1
 188 955 l 1
 215 955 l 1
 221.213203436 955 l 1
 225.606601718 950.606601718 l 1
 332.606601718 843.606601718 l 1
 343.114539517 833.098663918 l 1
 332.705261327 822.492984253 l 1
 279.705261327 768.492984253 l 1
 269.09959032 757.687206245 l 1
 258.393398282 768.393398282 l 1
 204.58974952 822.197047045 l 1
 201.385564833 825.172361397 l 1
 144.606601718 768.393398282 l 1
 133.90040968 757.687206245 l 1
 123.294738673 768.492984253 l 1
 70.2947386726 822.492984253 l 1
 59.8854604825 833.098663918 l 1
 70.3933982822 843.606601718 l 1
EndSplineSet
Validated: 5
EndChar

StartChar: Otilde
Encoding: 213 213 150
Width: 537
GlyphClass: 2
Flags: MW
LayerCount: 2
Fore
SplineSet
235.786796564 96 m 1
 307 167.213203436 l 1
 307 557.8413023 l 1
 235.73215042 630 l 1
 167.26784958 630 l 1
 96 557.8413023 l 1
 96 167.213203436 l 1
 167.213203436 96 l 1
 235.786796564 96 l 1
123.393398282 -10.6066017178 m 1
 -10.6066017178 123.393398282 l 1
 -15 127.786796564 l 1
 -15 134 l 1
 -15 591 l 1
 -15 597.213203436 l 1
 -10.6066017178 601.606601718 l 1
 123.393398282 735.606601718 l 1
 127.786796564 740 l 1
 134 740 l 1
 269 740 l 1
 275.213203436 740 l 1
 279.606601718 735.606601718 l 1
 413.606601718 601.606601718 l 1
 418 597.213203436 l 1
 418 591 l 1
 418 134 l 1
 418 127.786796564 l 1
 413.606601718 123.393398282 l 1
 279.606601718 -10.6066017178 l 1
 275.213203436 -15 l 1
 269 -15 l 1
 134 -15 l 1
 127.786796564 -15 l 1
 123.393398282 -10.6066017178 l 1
16.3933982822 843.606601718 m 1
 96.3933982822 923.606601718 l 1
 100.786796564 928 l 1
 107 928 l 1
 188 928 l 1
 194.213203436 928 l 1
 198.606601718 923.606601718 l 1
 248.213203436 874 l 1
 262.704519513 874 l 1
 311.294738673 923.507015747 l 1
 321.90040968 934.312793755 l 1
 332.606601718 923.606601718 l 1
 386.606601718 869.606601718 l 1
 397.279287542 858.933915893 l 1
 386.540518886 848.327724628 l 1
 305.540518886 768.327724628 l 1
 301.1586977 764 l 1
 295 764 l 1
 215 764 l 1
 208.786796564 764 l 1
 204.393398282 768.393398282 l 1
 154.786796564 818 l 1
 140.295480487 818 l 1
 91.7052613274 768.492984253 l 1
 81.0995903196 757.687206245 l 1
 70.3933982822 768.393398282 l 1
 16.3933982822 822.393398282 l 1
 5.7867965644 833 l 1
 16.3933982822 843.606601718 l 1
EndSplineSet
Validated: 5
EndChar

StartChar: Odieresis
Encoding: 214 214 151
Width: 537
GlyphClass: 2
Flags: MW
LayerCount: 2
Fore
SplineSet
235.786796564 96 m 1
 307 167.213203436 l 1
 307 557.8413023 l 1
 235.73215042 630 l 1
 167.26784958 630 l 1
 96 557.8413023 l 1
 96 167.213203436 l 1
 167.213203436 96 l 1
 235.786796564 96 l 1
123.393398282 -10.6066017178 m 1
 -10.6066017178 123.393398282 l 1
 -15 127.786796564 l 1
 -15 134 l 1
 -15 591 l 1
 -15 597.213203436 l 1
 -10.6066017178 601.606601718 l 1
 123.393398282 735.606601718 l 1
 127.786796564 740 l 1
 134 740 l 1
 269 740 l 1
 275.213203436 740 l 1
 279.606601718 735.606601718 l 1
 413.606601718 601.606601718 l 1
 418 597.213203436 l 1
 418 591 l 1
 418 134 l 1
 418 127.786796564 l 1
 413.606601718 123.393398282 l 1
 279.606601718 -10.6066017178 l 1
 275.213203436 -15 l 1
 269 -15 l 1
 134 -15 l 1
 127.786796564 -15 l 1
 123.393398282 -10.6066017178 l 1
39 806 m 1
 39 886 l 1
 39 901 l 1
 54 901 l 1
 134 901 l 1
 149 901 l 1
 149 886 l 1
 149 806 l 1
 149 791 l 1
 134 791 l 1
 54 791 l 1
 39 791 l 1
 39 806 l 1
254 806 m 1
 254 886 l 1
 254 901 l 1
 269 901 l 1
 349 901 l 1
 364 901 l 1
 364 886 l 1
 364 806 l 1
 364 791 l 1
 349 791 l 1
 269 791 l 1
 254 791 l 1
 254 806 l 1
EndSplineSet
Validated: 1
EndChar

StartChar: multiply
Encoding: 215 215 152
Width: 537
GlyphClass: 2
Flags: MW
LayerCount: 2
Fore
SplineSet
201.036015522 287.750781043 m 1
 64.6424951539 150.429413597 l 1
 54.0360155219 139.750781043 l 1
 43.3933982822 150.393398282 l 1
 -10.6066017178 204.393398282 l 1
 -21.2132034356 215 l 1
 -10.6066017178 225.606601718 l 1
 126.750781043 362.963984478 l 1
 -10.5705864028 499.357504846 l 1
 -21.2492189575 509.963984478 l 1
 -10.6066017178 520.606601718 l 1
 43.3933982822 574.606601718 l 1
 54.0360155219 585.249218957 l 1
 64.6424951539 574.570586403 l 1
 201.036015522 437.249218957 l 1
 338.393398282 574.606601718 l 1
 349 585.213203436 l 1
 359.606601718 574.606601718 l 1
 413.606601718 520.606601718 l 1
 424.249218957 509.963984478 l 1
 413.570586403 499.357504846 l 1
 276.249218957 362.963984478 l 1
 413.606601718 225.606601718 l 1
 424.213203436 215 l 1
 413.606601718 204.393398282 l 1
 359.606601718 150.393398282 l 1
 349 139.786796564 l 1
 338.393398282 150.393398282 l 1
 201.036015522 287.750781043 l 1
EndSplineSet
Validated: 1
EndChar

StartChar: Oslash
Encoding: 216 216 153
Width: 537
GlyphClass: 2
Flags: MW
LayerCount: 2
Fore
SplineSet
235.786796564 96 m 1
 307 167.213203436 l 1
 307 473.321020833 l 1
 134.360065029 127.203092954 l 1
 167.014464632 96 l 1
 235.786796564 96 l 1
258.896549338 605.31022228 m 1
 235.541354197 630 l 1
 167.26784958 630 l 1
 96 557.8413023 l 1
 96 278.686018762 l 1
 258.896549338 605.31022228 l 1
20.2917960675 -40.416407865 m 1
 -33.7082039325 -13.416407865 l 1
 -47.1747664184 -6.68312662207 l 1
 -40.3912840307 6.75821810897 l 1
 8.71848351122 104.068313053 l 1
 -10.6066017178 123.393398282 l 1
 -15 127.786796564 l 1
 -15 134 l 1
 -15 591 l 1
 -15 597.213203436 l 1
 -10.6066017178 601.606601718 l 1
 123.393398282 735.606601718 l 1
 127.786796564 740 l 1
 134 740 l 1
 269 740 l 1
 275.413821759 740 l 1
 279.844860367 735.362866573 l 1
 308.288778575 705.595975425 l 1
 335.658530383 758.856032998 l 1
 342.439224646 772.050897508 l 1
 355.708203932 765.416407865 l 1
 409.708203932 738.416407865 l 1
 418 734.270509831 l 1
 418 725 l 1
 418 698 l 1
 418 694.371377478 l 1
 416.341469617 691.143967002 l 1
 384.488120823 629.159072051 l 1
 413.307997808 601.897026254 l 1
 418 597.458645803 l 1
 418 591 l 1
 418 134 l 1
 418 127.786796564 l 1
 413.606601718 123.393398282 l 1
 279.606601718 -10.6066017178 l 1
 275.213203436 -15 l 1
 269 -15 l 1
 134 -15 l 1
 127.704519513 -15 l 1
 123.294738673 -10.5070157472 l 1
 84.9405637019 28.5708229022 l 1
 53.3832001444 -33.7742124188 l 1
 49.2195298872 -42 l 1
 40 -42 l 1
 27 -42 l 1
 23.4589803375 -42 l 1
 20.2917960675 -40.416407865 l 1
EndSplineSet
Validated: 5
EndChar

StartChar: Ugrave
Encoding: 217 217 154
Width: 537
GlyphClass: 2
Flags: MW
LayerCount: 2
Fore
SplineSet
123.393398282 -10.6066017178 m 1
 -10.6066017178 123.393398282 l 1
 -15 127.786796564 l 1
 -15 134 l 1
 -15 725 l 1
 -15 740 l 1
 0 740 l 1
 81 740 l 1
 96 740 l 1
 96 725 l 1
 96 167.213203436 l 1
 167.213203436 96 l 1
 235.786796564 96 l 1
 307 167.213203436 l 1
 307 725 l 1
 307 740 l 1
 322 740 l 1
 403 740 l 1
 418 740 l 1
 418 725 l 1
 418 134 l 1
 418 127.786796564 l 1
 413.606601718 123.393398282 l 1
 279.606601718 -10.6066017178 l 1
 275.213203436 -15 l 1
 269 -15 l 1
 134 -15 l 1
 127.786796564 -15 l 1
 123.393398282 -10.6066017178 l 1
96.3933982822 896.606601718 m 1
 150.393398282 950.606601718 l 1
 160.950781696 961.163985132 l 1
 171.557154494 950.655819489 l 1
 279.557154494 843.655819489 l 1
 290.262651194 833.049447759 l 1
 279.606601718 822.393398282 l 1
 225.606601718 768.393398282 l 1
 215.049218304 757.836014868 l 1
 204.442845506 768.344180511 l 1
 96.442845506 875.344180511 l 1
 85.7373488058 885.950552241 l 1
 96.3933982822 896.606601718 l 1
EndSplineSet
Validated: 5
EndChar

StartChar: Uacute
Encoding: 218 218 155
Width: 537
GlyphClass: 2
Flags: MW
LayerCount: 2
Fore
SplineSet
123.393398282 -10.6066017178 m 1
 -10.6066017178 123.393398282 l 1
 -15 127.786796564 l 1
 -15 134 l 1
 -15 725 l 1
 -15 740 l 1
 0 740 l 1
 81 740 l 1
 96 740 l 1
 96 725 l 1
 96 167.213203436 l 1
 167.213203436 96 l 1
 235.786796564 96 l 1
 307 167.213203436 l 1
 307 725 l 1
 307 740 l 1
 322 740 l 1
 403 740 l 1
 418 740 l 1
 418 725 l 1
 418 134 l 1
 418 127.786796564 l 1
 413.606601718 123.393398282 l 1
 279.606601718 -10.6066017178 l 1
 275.213203436 -15 l 1
 269 -15 l 1
 134 -15 l 1
 127.786796564 -15 l 1
 123.393398282 -10.6066017178 l 1
123.442845506 843.655819489 m 1
 231.442845506 950.655819489 l 1
 242.148805382 961.262650107 l 1
 252.705261327 950.507015747 l 1
 305.705261327 896.507015747 l 1
 316.114539517 885.901336082 l 1
 305.606601718 875.393398282 l 1
 198.606601718 768.393398282 l 1
 188 757.786796564 l 1
 177.393398282 768.393398282 l 1
 123.393398282 822.393398282 l 1
 112.737348806 833.049447759 l 1
 123.442845506 843.655819489 l 1
EndSplineSet
Validated: 5
EndChar

StartChar: Ucircumflex
Encoding: 219 219 156
Width: 537
GlyphClass: 2
Flags: MW
LayerCount: 2
Fore
SplineSet
123.393398282 -10.6066017178 m 1
 -10.6066017178 123.393398282 l 1
 -15 127.786796564 l 1
 -15 134 l 1
 -15 725 l 1
 -15 740 l 1
 0 740 l 1
 81 740 l 1
 96 740 l 1
 96 725 l 1
 96 167.213203436 l 1
 167.213203436 96 l 1
 235.786796564 96 l 1
 307 167.213203436 l 1
 307 725 l 1
 307 740 l 1
 322 740 l 1
 403 740 l 1
 418 740 l 1
 418 725 l 1
 418 134 l 1
 418 127.786796564 l 1
 413.606601718 123.393398282 l 1
 279.606601718 -10.6066017178 l 1
 275.213203436 -15 l 1
 269 -15 l 1
 134 -15 l 1
 127.786796564 -15 l 1
 123.393398282 -10.6066017178 l 1
70.3933982822 843.606601718 m 1
 177.393398282 950.606601718 l 1
 181.786796564 955 l 1
 188 955 l 1
 215 955 l 1
 221.213203436 955 l 1
 225.606601718 950.606601718 l 1
 332.606601718 843.606601718 l 1
 343.114539517 833.098663918 l 1
 332.705261327 822.492984253 l 1
 279.705261327 768.492984253 l 1
 269.09959032 757.687206245 l 1
 258.393398282 768.393398282 l 1
 204.58974952 822.197047045 l 1
 201.385564833 825.172361397 l 1
 144.606601718 768.393398282 l 1
 133.90040968 757.687206245 l 1
 123.294738673 768.492984253 l 1
 70.2947386726 822.492984253 l 1
 59.8854604825 833.098663918 l 1
 70.3933982822 843.606601718 l 1
EndSplineSet
Validated: 5
EndChar

StartChar: Udieresis
Encoding: 220 220 157
Width: 537
GlyphClass: 2
Flags: MW
LayerCount: 2
Fore
SplineSet
123.393398282 -10.6066017178 m 1
 -10.6066017178 123.393398282 l 1
 -15 127.786796564 l 1
 -15 134 l 1
 -15 725 l 1
 -15 740 l 1
 0 740 l 1
 81 740 l 1
 96 740 l 1
 96 725 l 1
 96 167.213203436 l 1
 167.213203436 96 l 1
 235.786796564 96 l 1
 307 167.213203436 l 1
 307 725 l 1
 307 740 l 1
 322 740 l 1
 403 740 l 1
 418 740 l 1
 418 725 l 1
 418 134 l 1
 418 127.786796564 l 1
 413.606601718 123.393398282 l 1
 279.606601718 -10.6066017178 l 1
 275.213203436 -15 l 1
 269 -15 l 1
 134 -15 l 1
 127.786796564 -15 l 1
 123.393398282 -10.6066017178 l 1
39 806 m 1
 39 886 l 1
 39 901 l 1
 54 901 l 1
 134 901 l 1
 149 901 l 1
 149 886 l 1
 149 806 l 1
 149 791 l 1
 134 791 l 1
 54 791 l 1
 39 791 l 1
 39 806 l 1
254 806 m 1
 254 886 l 1
 254 901 l 1
 269 901 l 1
 349 901 l 1
 364 901 l 1
 364 886 l 1
 364 806 l 1
 364 791 l 1
 349 791 l 1
 269 791 l 1
 254 791 l 1
 254 806 l 1
EndSplineSet
Validated: 1
EndChar

StartChar: Yacute
Encoding: 221 221 158
Width: 537
GlyphClass: 2
Flags: MW
LayerCount: 2
Fore
SplineSet
146 0 m 1
 146 372.458980338 l 1
 -13.416407865 691.291796068 l 1
 -20.1246117975 704.708203932 l 1
 -6.7082039325 711.416407865 l 1
 47.2917960675 738.416407865 l 1
 50.4589803375 740 l 1
 54 740 l 1
 67 740 l 1
 76.2705098312 740 l 1
 80.416407865 731.708203932 l 1
 201.049837957 490.441343748 l 1
 322.603646289 731.74816325 l 1
 326.7603551 740 l 1
 336 740 l 1
 349 740 l 1
 352.541019662 740 l 1
 355.708203932 738.416407865 l 1
 409.708203932 711.416407865 l 1
 423.124611797 704.708203932 l 1
 416.416407865 691.291796068 l 1
 257 372.458980338 l 1
 257 0 l 1
 257 -15 l 1
 242 -15 l 1
 161 -15 l 1
 146 -15 l 1
 146 0 l 1
123.442845506 843.655819489 m 1
 231.442845506 950.655819489 l 1
 242.148805382 961.262650107 l 1
 252.705261327 950.507015747 l 1
 305.705261327 896.507015747 l 1
 316.114539517 885.901336082 l 1
 305.606601718 875.393398282 l 1
 198.606601718 768.393398282 l 1
 188 757.786796564 l 1
 177.393398282 768.393398282 l 1
 123.393398282 822.393398282 l 1
 112.737348806 833.049447759 l 1
 123.442845506 843.655819489 l 1
EndSplineSet
Validated: 5
EndChar

StartChar: Thorn
Encoding: 222 222 159
Width: 537
GlyphClass: 2
Flags: MW
LayerCount: 2
Fore
SplineSet
235.786796564 257 m 1
 307 328.213203436 l 1
 307 396.786796564 l 1
 235.786796564 468 l 1
 96 468 l 1
 96 257 l 1
 235.786796564 257 l 1
-15 0 m 1
 -15 725 l 1
 -15 740 l 1
 0 740 l 1
 81 740 l 1
 96 740 l 1
 96 725 l 1
 96 579 l 1
 269 579 l 1
 275.213203436 579 l 1
 279.606601718 574.606601718 l 1
 413.606601718 440.606601718 l 1
 418 436.213203436 l 1
 418 430 l 1
 418 295 l 1
 418 288.786796564 l 1
 413.606601718 284.393398282 l 1
 279.606601718 150.393398282 l 1
 275.213203436 146 l 1
 269 146 l 1
 96 146 l 1
 96 0 l 1
 96 -15 l 1
 81 -15 l 1
 0 -15 l 1
 -15 -15 l 1
 -15 0 l 1
EndSplineSet
Validated: 1
EndChar

StartChar: germandbls
Encoding: 223 223 160
Width: 537
GlyphClass: 2
Flags: MW
LayerCount: 2
Fore
SplineSet
-15 0 m 1
 -15 618 l 1
 -15 624.213203436 l 1
 -10.6066017178 628.606601718 l 1
 96.3933982822 735.606601718 l 1
 100.786796564 740 l 1
 107 740 l 1
 215 740 l 1
 221.213203436 740 l 1
 225.606601718 735.606601718 l 1
 332.606601718 628.606601718 l 1
 337 624.213203436 l 1
 337 618 l 1
 337 537 l 1
 337 530.786796564 l 1
 332.606601718 526.393398282 l 1
 252.606601718 446.393398282 l 1
 249.243638385 443.03043495 l 1
 413.576166893 279.636949462 l 1
 418 275.238395401 l 1
 418 269 l 1
 418 107 l 1
 418 100.745888558 l 1
 413.557154494 96.3441805107 l 1
 305.557154494 -10.6558194893 l 1
 301.172374166 -15 l 1
 295 -15 l 1
 269 -15 l 1
 262.827625834 -15 l 1
 258.442845506 -10.6558194893 l 1
 150.442845506 96.3441805107 l 1
 139.737348806 106.950552241 l 1
 150.393398282 117.606601718 l 1
 204.393398282 171.606601718 l 1
 215 182.213203436 l 1
 225.606601718 171.606601718 l 1
 279.606601718 117.606601718 l 1
 282 115.213203436 l 1
 307 140.213203436 l 1
 307 235.786796564 l 1
 123.393398282 419.393398282 l 1
 119 423.786796564 l 1
 119 430 l 1
 119 457 l 1
 119 463.254111442 l 1
 123.442845506 467.655819489 l 1
 227 570.254111442 l 1
 227 584.786796564 l 1
 181.786796564 630 l 1
 140.295480487 630 l 1
 96 584.868755731 l 1
 96 0 l 1
 96 -15 l 1
 81 -15 l 1
 0 -15 l 1
 -15 -15 l 1
 -15 0 l 1
EndSplineSet
Validated: 1
EndChar

StartChar: agrave
Encoding: 224 224 161
Width: 537
GlyphClass: 2
Flags: MW
LayerCount: 2
Fore
SplineSet
208.786796564 96 m 1
 307 194.213203436 l 1
 307 254 l 1
 167.26784958 254 l 1
 96 181.8413023 l 1
 96 167.213203436 l 1
 167.213203436 96 l 1
 208.786796564 96 l 1
123.393398282 -10.6066017178 m 1
 -10.6066017178 123.393398282 l 1
 -15 127.786796564 l 1
 -15 134 l 1
 -15 215 l 1
 -15 221.213203436 l 1
 -10.6066017178 225.606601718 l 1
 123.393398282 359.606601718 l 1
 127.786796564 364 l 1
 134 364 l 1
 307 364 l 1
 307 396.786796564 l 1
 235.786796564 468 l 1
 167.213203436 468 l 1
 64.6066017178 365.393398282 l 1
 54 354.786796564 l 1
 44.0563108896 364.730485675 l 1
 43.3933982822 365.393398282 l 1
 -10.6066017178 419.393398282 l 1
 -21.2132034356 430 l 1
 -10.6066017178 440.606601718 l 1
 123.393398282 574.606601718 l 1
 127.786796564 579 l 1
 134 579 l 1
 269 579 l 1
 275.213203436 579 l 1
 279.606601718 574.606601718 l 1
 413.606601718 440.606601718 l 1
 418 436.213203436 l 1
 418 430 l 1
 418 0 l 1
 418 -15 l 1
 403 -15 l 1
 322 -15 l 1
 307 -15 l 1
 307 0 l 1
 307 44.4663022999 l 1
 252.672275372 -10.5405188859 l 1
 248.26784958 -15 l 1
 242 -15 l 1
 134 -15 l 1
 127.786796564 -15 l 1
 123.393398282 -10.6066017178 l 1
96.3933982822 735.606601718 m 1
 150.393398282 789.606601718 l 1
 161 800.213203436 l 1
 171.606601718 789.606601718 l 1
 279.606601718 681.606601718 l 1
 290.312793755 670.90040968 l 1
 279.507015747 660.294738673 l 1
 225.507015747 607.294738673 l 1
 214.950553319 596.933766289 l 1
 204.442845506 607.344180511 l 1
 96.442845506 714.344180511 l 1
 85.7373488058 724.950552241 l 1
 96.3933982822 735.606601718 l 1
EndSplineSet
Validated: 5
EndChar

StartChar: aacute
Encoding: 225 225 162
Width: 537
GlyphClass: 2
Flags: MW
LayerCount: 2
Fore
SplineSet
208.786796564 96 m 1
 307 194.213203436 l 1
 307 254 l 1
 167.26784958 254 l 1
 96 181.8413023 l 1
 96 167.213203436 l 1
 167.213203436 96 l 1
 208.786796564 96 l 1
123.393398282 -10.6066017178 m 1
 -10.6066017178 123.393398282 l 1
 -15 127.786796564 l 1
 -15 134 l 1
 -15 215 l 1
 -15 221.213203436 l 1
 -10.6066017178 225.606601718 l 1
 123.393398282 359.606601718 l 1
 127.786796564 364 l 1
 134 364 l 1
 307 364 l 1
 307 396.786796564 l 1
 235.786796564 468 l 1
 167.213203436 468 l 1
 64.6066017178 365.393398282 l 1
 54 354.786796564 l 1
 44.0563108896 364.730485675 l 1
 43.3933982822 365.393398282 l 1
 -10.6066017178 419.393398282 l 1
 -21.2132034356 430 l 1
 -10.6066017178 440.606601718 l 1
 123.393398282 574.606601718 l 1
 127.786796564 579 l 1
 134 579 l 1
 269 579 l 1
 275.213203436 579 l 1
 279.606601718 574.606601718 l 1
 413.606601718 440.606601718 l 1
 418 436.213203436 l 1
 418 430 l 1
 418 0 l 1
 418 -15 l 1
 403 -15 l 1
 322 -15 l 1
 307 -15 l 1
 307 0 l 1
 307 44.4663022999 l 1
 252.672275372 -10.5405188859 l 1
 248.26784958 -15 l 1
 242 -15 l 1
 134 -15 l 1
 127.786796564 -15 l 1
 123.393398282 -10.6066017178 l 1
123.393398282 681.606601718 m 1
 231.393398282 789.606601718 l 1
 242.09959032 800.312793755 l 1
 252.705261327 789.507015747 l 1
 305.705261327 735.507015747 l 1
 316.114539517 724.901336082 l 1
 305.606601718 714.393398282 l 1
 198.606601718 607.393398282 l 1
 188.098663918 596.885460483 l 1
 177.492984253 607.294738673 l 1
 123.492984253 660.294738673 l 1
 112.687206245 670.90040968 l 1
 123.393398282 681.606601718 l 1
EndSplineSet
Validated: 5
EndChar

StartChar: acircumflex
Encoding: 226 226 163
Width: 537
GlyphClass: 2
Flags: MW
LayerCount: 2
Fore
SplineSet
208.786796564 96 m 1
 307 194.213203436 l 1
 307 254 l 1
 167.26784958 254 l 1
 96 181.8413023 l 1
 96 167.213203436 l 1
 167.213203436 96 l 1
 208.786796564 96 l 1
123.393398282 -10.6066017178 m 1
 -10.6066017178 123.393398282 l 1
 -15 127.786796564 l 1
 -15 134 l 1
 -15 215 l 1
 -15 221.213203436 l 1
 -10.6066017178 225.606601718 l 1
 123.393398282 359.606601718 l 1
 127.786796564 364 l 1
 134 364 l 1
 307 364 l 1
 307 396.786796564 l 1
 235.786796564 468 l 1
 167.213203436 468 l 1
 64.6066017178 365.393398282 l 1
 54 354.786796564 l 1
 44.0563108896 364.730485675 l 1
 43.3933982822 365.393398282 l 1
 -10.6066017178 419.393398282 l 1
 -21.2132034356 430 l 1
 -10.6066017178 440.606601718 l 1
 123.393398282 574.606601718 l 1
 127.786796564 579 l 1
 134 579 l 1
 269 579 l 1
 275.213203436 579 l 1
 279.606601718 574.606601718 l 1
 413.606601718 440.606601718 l 1
 418 436.213203436 l 1
 418 430 l 1
 418 0 l 1
 418 -15 l 1
 403 -15 l 1
 322 -15 l 1
 307 -15 l 1
 307 0 l 1
 307 44.4663022999 l 1
 252.672275372 -10.5405188859 l 1
 248.26784958 -15 l 1
 242 -15 l 1
 134 -15 l 1
 127.786796564 -15 l 1
 123.393398282 -10.6066017178 l 1
70.3441805107 681.557154494 m 1
 177.344180511 789.557154494 l 1
 181.745888558 794 l 1
 188 794 l 1
 215 794 l 1
 221.254111442 794 l 1
 225.655819489 789.557154494 l 1
 332.655819489 681.557154494 l 1
 343.163985132 670.950781696 l 1
 332.606601718 660.393398282 l 1
 279.606601718 607.393398282 l 1
 269.098663918 596.885460483 l 1
 258.492984253 607.294738673 l 1
 204.442960759 660.343835805 l 1
 201 663.786796564 l 1
 144.606601718 607.393398282 l 1
 134 596.786796564 l 1
 123.393398282 607.393398282 l 1
 70.3933982822 660.393398282 l 1
 59.8360148683 670.950781696 l 1
 70.3441805107 681.557154494 l 1
EndSplineSet
Validated: 5
EndChar

StartChar: atilde
Encoding: 227 227 164
Width: 537
GlyphClass: 2
Flags: MW
LayerCount: 2
Fore
SplineSet
208.786796564 96 m 1
 307 194.213203436 l 1
 307 254 l 1
 167.26784958 254 l 1
 96 181.8413023 l 1
 96 167.213203436 l 1
 167.213203436 96 l 1
 208.786796564 96 l 1
123.393398282 -10.6066017178 m 1
 -10.6066017178 123.393398282 l 1
 -15 127.786796564 l 1
 -15 134 l 1
 -15 215 l 1
 -15 221.213203436 l 1
 -10.6066017178 225.606601718 l 1
 123.393398282 359.606601718 l 1
 127.786796564 364 l 1
 134 364 l 1
 307 364 l 1
 307 396.786796564 l 1
 235.786796564 468 l 1
 167.213203436 468 l 1
 64.6066017178 365.393398282 l 1
 54 354.786796564 l 1
 44.0563108896 364.730485675 l 1
 43.3933982822 365.393398282 l 1
 -10.6066017178 419.393398282 l 1
 -21.2132034356 430 l 1
 -10.6066017178 440.606601718 l 1
 123.393398282 574.606601718 l 1
 127.786796564 579 l 1
 134 579 l 1
 269 579 l 1
 275.213203436 579 l 1
 279.606601718 574.606601718 l 1
 413.606601718 440.606601718 l 1
 418 436.213203436 l 1
 418 430 l 1
 418 0 l 1
 418 -15 l 1
 403 -15 l 1
 322 -15 l 1
 307 -15 l 1
 307 0 l 1
 307 44.4663022999 l 1
 252.672275372 -10.5405188859 l 1
 248.26784958 -15 l 1
 242 -15 l 1
 134 -15 l 1
 127.786796564 -15 l 1
 123.393398282 -10.6066017178 l 1
16.327724628 681.540518886 m 1
 96.327724628 762.540518886 l 1
 100.73215042 767 l 1
 107 767 l 1
 188 767 l 1
 194.213203436 767 l 1
 198.606601718 762.606601718 l 1
 248.213203436 713 l 1
 262.704519513 713 l 1
 311.294738673 762.507015747 l 1
 321.90040968 773.312793755 l 1
 332.606601718 762.606601718 l 1
 386.606601718 708.606601718 l 1
 397.279287542 697.933915893 l 1
 386.540518886 687.327724628 l 1
 305.540518886 607.327724628 l 1
 301.1586977 603 l 1
 295 603 l 1
 215 603 l 1
 208.868755731 603 l 1
 204.492984253 607.294738673 l 1
 154.868755731 656 l 1
 140.213203436 656 l 1
 91.6066017178 607.393398282 l 1
 81.0986639181 596.885460483 l 1
 70.4929842528 607.294738673 l 1
 16.4929842528 660.294738673 l 1
 5.75411542062 670.834739563 l 1
 16.327724628 681.540518886 l 1
EndSplineSet
Validated: 5
EndChar

StartChar: adieresis
Encoding: 228 228 165
Width: 537
GlyphClass: 2
Flags: MW
LayerCount: 2
Fore
SplineSet
208.786796564 96 m 1
 307 194.213203436 l 1
 307 254 l 1
 167.26784958 254 l 1
 96 181.8413023 l 1
 96 167.213203436 l 1
 167.213203436 96 l 1
 208.786796564 96 l 1
123.393398282 -10.6066017178 m 1
 -10.6066017178 123.393398282 l 1
 -15 127.786796564 l 1
 -15 134 l 1
 -15 215 l 1
 -15 221.213203436 l 1
 -10.6066017178 225.606601718 l 1
 123.393398282 359.606601718 l 1
 127.786796564 364 l 1
 134 364 l 1
 307 364 l 1
 307 396.786796564 l 1
 235.786796564 468 l 1
 167.213203436 468 l 1
 64.6066017178 365.393398282 l 1
 54 354.786796564 l 1
 44.0563108896 364.730485675 l 1
 43.3933982822 365.393398282 l 1
 -10.6066017178 419.393398282 l 1
 -21.2132034356 430 l 1
 -10.6066017178 440.606601718 l 1
 123.393398282 574.606601718 l 1
 127.786796564 579 l 1
 134 579 l 1
 269 579 l 1
 275.213203436 579 l 1
 279.606601718 574.606601718 l 1
 413.606601718 440.606601718 l 1
 418 436.213203436 l 1
 418 430 l 1
 418 0 l 1
 418 -15 l 1
 403 -15 l 1
 322 -15 l 1
 307 -15 l 1
 307 0 l 1
 307 44.4663022999 l 1
 252.672275372 -10.5405188859 l 1
 248.26784958 -15 l 1
 242 -15 l 1
 134 -15 l 1
 127.786796564 -15 l 1
 123.393398282 -10.6066017178 l 1
39 645 m 1
 39 725 l 1
 39 740 l 1
 54 740 l 1
 134 740 l 1
 149 740 l 1
 149 725 l 1
 149 645 l 1
 149 630 l 1
 134 630 l 1
 54 630 l 1
 39 630 l 1
 39 645 l 1
254 645 m 1
 254 725 l 1
 254 740 l 1
 269 740 l 1
 349 740 l 1
 364 740 l 1
 364 725 l 1
 364 645 l 1
 364 630 l 1
 349 630 l 1
 269 630 l 1
 254 630 l 1
 254 645 l 1
EndSplineSet
Validated: 1
EndChar

StartChar: aring
Encoding: 229 229 166
Width: 537
GlyphClass: 2
Flags: MW
LayerCount: 2
Fore
SplineSet
208.786796564 96 m 1
 307 194.213203436 l 1
 307 254 l 1
 167.26784958 254 l 1
 96 181.8413023 l 1
 96 167.213203436 l 1
 167.213203436 96 l 1
 208.786796564 96 l 1
123.393398282 -10.6066017178 m 1
 -10.6066017178 123.393398282 l 1
 -15 127.786796564 l 1
 -15 134 l 1
 -15 215 l 1
 -15 221.213203436 l 1
 -10.6066017178 225.606601718 l 1
 123.393398282 359.606601718 l 1
 127.786796564 364 l 1
 134 364 l 1
 307 364 l 1
 307 396.786796564 l 1
 235.786796564 468 l 1
 167.213203436 468 l 1
 64.6066017178 365.393398282 l 1
 54 354.786796564 l 1
 44.0563108896 364.730485675 l 1
 43.3933982822 365.393398282 l 1
 -10.6066017178 419.393398282 l 1
 -21.2132034356 430 l 1
 -10.6066017178 440.606601718 l 1
 123.393398282 574.606601718 l 1
 127.786796564 579 l 1
 134 579 l 1
 269 579 l 1
 275.213203436 579 l 1
 279.606601718 574.606601718 l 1
 413.606601718 440.606601718 l 1
 418 436.213203436 l 1
 418 430 l 1
 418 0 l 1
 418 -15 l 1
 403 -15 l 1
 322 -15 l 1
 307 -15 l 1
 307 0 l 1
 307 44.4663022999 l 1
 252.672275372 -10.5405188859 l 1
 248.26784958 -15 l 1
 242 -15 l 1
 134 -15 l 1
 127.786796564 -15 l 1
 123.393398282 -10.6066017178 l 1
208.786796564 686 m 1
 227 704.213203436 l 1
 227 718.786796564 l 1
 208.786796564 737 l 1
 194.213203436 737 l 1
 176 718.786796564 l 1
 176 704.213203436 l 1
 194.213203436 686 l 1
 208.786796564 686 l 1
150.492984253 607.294738673 m 1
 96.4929842528 660.294738673 l 1
 92 664.704519513 l 1
 92 671 l 1
 92 752 l 1
 92 758.213203436 l 1
 96.3933982822 762.606601718 l 1
 150.393398282 816.606601718 l 1
 154.786796564 821 l 1
 161 821 l 1
 242 821 l 1
 248.295480487 821 l 1
 252.705261327 816.507015747 l 1
 305.705261327 762.507015747 l 1
 310 758.131244269 l 1
 310 752 l 1
 310 671 l 1
 310 664.786796564 l 1
 305.606601718 660.393398282 l 1
 252.606601718 607.393398282 l 1
 248.213203436 603 l 1
 242 603 l 1
 161 603 l 1
 154.868755731 603 l 1
 150.492984253 607.294738673 l 1
EndSplineSet
Validated: 1
EndChar

StartChar: ae
Encoding: 230 230 167
Width: 537
GlyphClass: 2
Flags: MW
LayerCount: 2
Fore
SplineSet
146 140.213203436 m 1
 146 254 l 1
 140.295480487 254 l 1
 96 208.868755731 l 1
 96 140.048074785 l 1
 117.804803202 117.404625306 l 1
 120.447295379 114.660498815 l 1
 146 140.213203436 l 1
307 337 m 1
 307 423.786796564 l 1
 284.393398282 446.393398282 l 1
 282 448.786796564 l 1
 257 423.786796564 l 1
 257 337 l 1
 307 337 l 1
96.3933982822 -10.6066017178 m 1
 -10.6066017178 96.3933982822 l 1
 -15 100.786796564 l 1
 -15 107 l 1
 -15 242 l 1
 -15 248.213203436 l 1
 -10.6066017178 252.606601718 l 1
 96.3933982822 359.606601718 l 1
 100.786796564 364 l 1
 107 364 l 1
 146 364 l 1
 146 423.786796564 l 1
 123.393398282 446.393398282 l 1
 121 448.786796564 l 1
 64.6066017178 392.393398282 l 1
 54 381.786796564 l 1
 44.0563108896 391.730485675 l 1
 43.3933982822 392.393398282 l 1
 -10.6066017178 446.393398282 l 1
 -21.2132034356 457 l 1
 -10.6066017178 467.606601718 l 1
 96.3933982822 574.606601718 l 1
 100.786796564 579 l 1
 107 579 l 1
 134 579 l 1
 140.213203436 579 l 1
 144.606601718 574.606601718 l 1
 198.606601718 520.606601718 l 1
 201.078276434 518.134927002 l 1
 258.472254525 574.684876004 l 1
 262.851783357 579 l 1
 269 579 l 1
 295 579 l 1
 301.172374166 579 l 1
 305.557154494 574.655819489 l 1
 413.557154494 467.655819489 l 1
 418 463.254111442 l 1
 418 457 l 1
 418 242 l 1
 418 227 l 1
 403 227 l 1
 257 227 l 1
 257 140.213203436 l 1
 279.606601718 117.606601718 l 1
 282 115.213203436 l 1
 338.393398282 171.606601718 l 1
 349 182.213203436 l 1
 358.94368911 172.269514325 l 1
 359.606601718 171.606601718 l 1
 413.606601718 117.606601718 l 1
 424.262651194 106.950552241 l 1
 413.557154494 96.3441805107 l 1
 305.557154494 -10.6558194893 l 1
 301.172374166 -15 l 1
 295 -15 l 1
 269 -15 l 1
 262.786796564 -15 l 1
 258.393398282 -10.6066017178 l 1
 204.58974952 43.1970470446 l 1
 201.385564833 46.172361397 l 1
 144.606601718 -10.6066017178 l 1
 140.213203436 -15 l 1
 134 -15 l 1
 107 -15 l 1
 100.786796564 -15 l 1
 96.3933982822 -10.6066017178 l 1
EndSplineSet
Validated: 5
EndChar

StartChar: ccedilla
Encoding: 231 231 168
Width: 537
GlyphClass: 2
Flags: MW
LayerCount: 2
Fore
SplineSet
96.4929842528 -96.2947386726 m 1
 146 -47.7045195133 l 1
 146 -15 l 1
 134 -15 l 1
 127.786796564 -15 l 1
 123.393398282 -10.6066017178 l 1
 -10.6066017178 123.393398282 l 1
 -15 127.786796564 l 1
 -15 134 l 1
 -15 430 l 1
 -15 436.213203436 l 1
 -10.6066017178 440.606601718 l 1
 123.393398282 574.606601718 l 1
 127.786796564 579 l 1
 134 579 l 1
 269 579 l 1
 275.213203436 579 l 1
 279.606601718 574.606601718 l 1
 413.606601718 440.606601718 l 1
 424.213203436 430 l 1
 414.269514325 420.05631089 l 1
 413.606601718 419.393398282 l 1
 359.606601718 365.393398282 l 1
 349 354.786796564 l 1
 338.393398282 365.393398282 l 1
 235.786796564 468 l 1
 167.213203436 468 l 1
 96 396.786796564 l 1
 96 167.213203436 l 1
 167.213203436 96 l 1
 235.786796564 96 l 1
 338.393398282 198.606601718 l 1
 349 209.213203436 l 1
 358.94368911 199.269514325 l 1
 359.606601718 198.606601718 l 1
 413.606601718 144.606601718 l 1
 424.213203436 134 l 1
 413.606601718 123.393398282 l 1
 279.606601718 -10.6066017178 l 1
 275.213203436 -15 l 1
 269 -15 l 1
 257 -15 l 1
 257 -81 l 1
 257 -87.2678495803 l 1
 252.540518886 -91.672275372 l 1
 171.540518886 -171.672275372 l 1
 160.934325079 -182.147528515 l 1
 150.393398282 -171.606601718 l 1
 96.3933982822 -117.606601718 l 1
 85.6872062448 -106.90040968 l 1
 96.4929842528 -96.2947386726 l 1
EndSplineSet
Validated: 5
EndChar

StartChar: egrave
Encoding: 232 232 169
Width: 537
GlyphClass: 2
Flags: MW
LayerCount: 2
Fore
SplineSet
307 337 m 1
 307 396.786796564 l 1
 235.786796564 468 l 1
 167.213203436 468 l 1
 96 396.786796564 l 1
 96 337 l 1
 307 337 l 1
123.393398282 -10.6066017178 m 1
 -10.6066017178 123.393398282 l 1
 -15 127.786796564 l 1
 -15 134 l 1
 -15 430 l 1
 -15 436.213203436 l 1
 -10.6066017178 440.606601718 l 1
 123.393398282 574.606601718 l 1
 127.786796564 579 l 1
 134 579 l 1
 269 579 l 1
 275.213203436 579 l 1
 279.606601718 574.606601718 l 1
 413.606601718 440.606601718 l 1
 418 436.213203436 l 1
 418 430 l 1
 418 242 l 1
 418 227 l 1
 403 227 l 1
 96 227 l 1
 96 167.213203436 l 1
 167.213203436 96 l 1
 235.786796564 96 l 1
 338.393398282 198.606601718 l 1
 349 209.213203436 l 1
 358.94368911 199.269514325 l 1
 359.606601718 198.606601718 l 1
 413.606601718 144.606601718 l 1
 424.213203436 134 l 1
 413.606601718 123.393398282 l 1
 279.606601718 -10.6066017178 l 1
 275.213203436 -15 l 1
 269 -15 l 1
 134 -15 l 1
 127.786796564 -15 l 1
 123.393398282 -10.6066017178 l 1
96.3933982822 735.606601718 m 1
 150.393398282 789.606601718 l 1
 161 800.213203436 l 1
 171.606601718 789.606601718 l 1
 279.606601718 681.606601718 l 1
 290.312793755 670.90040968 l 1
 279.507015747 660.294738673 l 1
 225.507015747 607.294738673 l 1
 214.950553319 596.933766289 l 1
 204.442845506 607.344180511 l 1
 96.442845506 714.344180511 l 1
 85.7373488058 724.950552241 l 1
 96.3933982822 735.606601718 l 1
EndSplineSet
Validated: 5
EndChar

StartChar: eacute
Encoding: 233 233 170
Width: 537
GlyphClass: 2
Flags: MW
LayerCount: 2
Fore
SplineSet
307 337 m 1
 307 396.786796564 l 1
 235.786796564 468 l 1
 167.213203436 468 l 1
 96 396.786796564 l 1
 96 337 l 1
 307 337 l 1
123.393398282 -10.6066017178 m 1
 -10.6066017178 123.393398282 l 1
 -15 127.786796564 l 1
 -15 134 l 1
 -15 430 l 1
 -15 436.213203436 l 1
 -10.6066017178 440.606601718 l 1
 123.393398282 574.606601718 l 1
 127.786796564 579 l 1
 134 579 l 1
 269 579 l 1
 275.213203436 579 l 1
 279.606601718 574.606601718 l 1
 413.606601718 440.606601718 l 1
 418 436.213203436 l 1
 418 430 l 1
 418 242 l 1
 418 227 l 1
 403 227 l 1
 96 227 l 1
 96 167.213203436 l 1
 167.213203436 96 l 1
 235.786796564 96 l 1
 338.393398282 198.606601718 l 1
 349 209.213203436 l 1
 358.94368911 199.269514325 l 1
 359.606601718 198.606601718 l 1
 413.606601718 144.606601718 l 1
 424.213203436 134 l 1
 413.606601718 123.393398282 l 1
 279.606601718 -10.6066017178 l 1
 275.213203436 -15 l 1
 269 -15 l 1
 134 -15 l 1
 127.786796564 -15 l 1
 123.393398282 -10.6066017178 l 1
123.393398282 681.606601718 m 1
 231.393398282 789.606601718 l 1
 242.09959032 800.312793755 l 1
 252.705261327 789.507015747 l 1
 305.705261327 735.507015747 l 1
 316.114539517 724.901336082 l 1
 305.606601718 714.393398282 l 1
 198.606601718 607.393398282 l 1
 188.098663918 596.885460483 l 1
 177.492984253 607.294738673 l 1
 123.492984253 660.294738673 l 1
 112.687206245 670.90040968 l 1
 123.393398282 681.606601718 l 1
EndSplineSet
Validated: 5
EndChar

StartChar: ecircumflex
Encoding: 234 234 171
Width: 537
GlyphClass: 2
Flags: MW
LayerCount: 2
Fore
SplineSet
307 337 m 1
 307 396.786796564 l 1
 235.786796564 468 l 1
 167.213203436 468 l 1
 96 396.786796564 l 1
 96 337 l 1
 307 337 l 1
123.393398282 -10.6066017178 m 1
 -10.6066017178 123.393398282 l 1
 -15 127.786796564 l 1
 -15 134 l 1
 -15 430 l 1
 -15 436.213203436 l 1
 -10.6066017178 440.606601718 l 1
 123.393398282 574.606601718 l 1
 127.786796564 579 l 1
 134 579 l 1
 269 579 l 1
 275.213203436 579 l 1
 279.606601718 574.606601718 l 1
 413.606601718 440.606601718 l 1
 418 436.213203436 l 1
 418 430 l 1
 418 242 l 1
 418 227 l 1
 403 227 l 1
 96 227 l 1
 96 167.213203436 l 1
 167.213203436 96 l 1
 235.786796564 96 l 1
 338.393398282 198.606601718 l 1
 349 209.213203436 l 1
 358.94368911 199.269514325 l 1
 359.606601718 198.606601718 l 1
 413.606601718 144.606601718 l 1
 424.213203436 134 l 1
 413.606601718 123.393398282 l 1
 279.606601718 -10.6066017178 l 1
 275.213203436 -15 l 1
 269 -15 l 1
 134 -15 l 1
 127.786796564 -15 l 1
 123.393398282 -10.6066017178 l 1
70.3441805107 681.557154494 m 1
 177.344180511 789.557154494 l 1
 181.745888558 794 l 1
 188 794 l 1
 215 794 l 1
 221.254111442 794 l 1
 225.655819489 789.557154494 l 1
 332.655819489 681.557154494 l 1
 343.163985132 670.950781696 l 1
 332.606601718 660.393398282 l 1
 279.606601718 607.393398282 l 1
 269.098663918 596.885460483 l 1
 258.492984253 607.294738673 l 1
 204.442960759 660.343835805 l 1
 201 663.786796564 l 1
 144.606601718 607.393398282 l 1
 134 596.786796564 l 1
 123.393398282 607.393398282 l 1
 70.3933982822 660.393398282 l 1
 59.8360148683 670.950781696 l 1
 70.3441805107 681.557154494 l 1
EndSplineSet
Validated: 5
EndChar

StartChar: edieresis
Encoding: 235 235 172
Width: 537
GlyphClass: 2
Flags: MW
LayerCount: 2
Fore
SplineSet
307 337 m 1
 307 396.786796564 l 1
 235.786796564 468 l 1
 167.213203436 468 l 1
 96 396.786796564 l 1
 96 337 l 1
 307 337 l 1
123.393398282 -10.6066017178 m 1
 -10.6066017178 123.393398282 l 1
 -15 127.786796564 l 1
 -15 134 l 1
 -15 430 l 1
 -15 436.213203436 l 1
 -10.6066017178 440.606601718 l 1
 123.393398282 574.606601718 l 1
 127.786796564 579 l 1
 134 579 l 1
 269 579 l 1
 275.213203436 579 l 1
 279.606601718 574.606601718 l 1
 413.606601718 440.606601718 l 1
 418 436.213203436 l 1
 418 430 l 1
 418 242 l 1
 418 227 l 1
 403 227 l 1
 96 227 l 1
 96 167.213203436 l 1
 167.213203436 96 l 1
 235.786796564 96 l 1
 338.393398282 198.606601718 l 1
 349 209.213203436 l 1
 358.94368911 199.269514325 l 1
 359.606601718 198.606601718 l 1
 413.606601718 144.606601718 l 1
 424.213203436 134 l 1
 413.606601718 123.393398282 l 1
 279.606601718 -10.6066017178 l 1
 275.213203436 -15 l 1
 269 -15 l 1
 134 -15 l 1
 127.786796564 -15 l 1
 123.393398282 -10.6066017178 l 1
39 645 m 1
 39 725 l 1
 39 740 l 1
 54 740 l 1
 134 740 l 1
 149 740 l 1
 149 725 l 1
 149 645 l 1
 149 630 l 1
 134 630 l 1
 54 630 l 1
 39 630 l 1
 39 645 l 1
254 645 m 1
 254 725 l 1
 254 740 l 1
 269 740 l 1
 349 740 l 1
 364 740 l 1
 364 725 l 1
 364 645 l 1
 364 630 l 1
 349 630 l 1
 269 630 l 1
 254 630 l 1
 254 645 l 1
EndSplineSet
Validated: 1
EndChar

StartChar: igrave
Encoding: 236 236 173
Width: 537
GlyphClass: 2
Flags: MW
LayerCount: 2
Fore
SplineSet
66 0 m 1
 66 81 l 1
 66 96 l 1
 81 96 l 1
 146 96 l 1
 146 468 l 1
 81 468 l 1
 66 468 l 1
 66 483 l 1
 66 564 l 1
 66 579 l 1
 81 579 l 1
 242 579 l 1
 257 579 l 1
 257 564 l 1
 257 96 l 1
 322 96 l 1
 337 96 l 1
 337 81 l 1
 337 0 l 1
 337 -15 l 1
 322 -15 l 1
 81 -15 l 1
 66 -15 l 1
 66 0 l 1
96.3933982822 735.606601718 m 1
 150.393398282 789.606601718 l 1
 161 800.213203436 l 1
 171.606601718 789.606601718 l 1
 279.606601718 681.606601718 l 1
 290.312793755 670.90040968 l 1
 279.507015747 660.294738673 l 1
 225.507015747 607.294738673 l 1
 214.950553319 596.933766289 l 1
 204.442845506 607.344180511 l 1
 96.442845506 714.344180511 l 1
 85.7373488058 724.950552241 l 1
 96.3933982822 735.606601718 l 1
EndSplineSet
Validated: 5
EndChar

StartChar: iacute
Encoding: 237 237 174
Width: 537
GlyphClass: 2
Flags: MW
LayerCount: 2
Fore
SplineSet
66 0 m 1
 66 81 l 1
 66 96 l 1
 81 96 l 1
 146 96 l 1
 146 468 l 1
 81 468 l 1
 66 468 l 1
 66 483 l 1
 66 564 l 1
 66 579 l 1
 81 579 l 1
 242 579 l 1
 257 579 l 1
 257 564 l 1
 257 96 l 1
 322 96 l 1
 337 96 l 1
 337 81 l 1
 337 0 l 1
 337 -15 l 1
 322 -15 l 1
 81 -15 l 1
 66 -15 l 1
 66 0 l 1
123.393398282 681.606601718 m 1
 231.393398282 789.606601718 l 1
 242.09959032 800.312793755 l 1
 252.705261327 789.507015747 l 1
 305.705261327 735.507015747 l 1
 316.114539517 724.901336082 l 1
 305.606601718 714.393398282 l 1
 198.606601718 607.393398282 l 1
 188.098663918 596.885460483 l 1
 177.492984253 607.294738673 l 1
 123.492984253 660.294738673 l 1
 112.687206245 670.90040968 l 1
 123.393398282 681.606601718 l 1
EndSplineSet
Validated: 5
EndChar

StartChar: icircumflex
Encoding: 238 238 175
Width: 537
GlyphClass: 2
Flags: MW
LayerCount: 2
Fore
SplineSet
66 0 m 1
 66 81 l 1
 66 96 l 1
 81 96 l 1
 146 96 l 1
 146 468 l 1
 81 468 l 1
 66 468 l 1
 66 483 l 1
 66 564 l 1
 66 579 l 1
 81 579 l 1
 242 579 l 1
 257 579 l 1
 257 564 l 1
 257 96 l 1
 322 96 l 1
 337 96 l 1
 337 81 l 1
 337 0 l 1
 337 -15 l 1
 322 -15 l 1
 81 -15 l 1
 66 -15 l 1
 66 0 l 1
70.3441805107 681.557154494 m 1
 177.344180511 789.557154494 l 1
 181.745888558 794 l 1
 188 794 l 1
 215 794 l 1
 221.254111442 794 l 1
 225.655819489 789.557154494 l 1
 332.655819489 681.557154494 l 1
 343.163985132 670.950781696 l 1
 332.606601718 660.393398282 l 1
 279.606601718 607.393398282 l 1
 269.098663918 596.885460483 l 1
 258.492984253 607.294738673 l 1
 204.442960759 660.343835805 l 1
 201 663.786796564 l 1
 144.606601718 607.393398282 l 1
 134 596.786796564 l 1
 123.393398282 607.393398282 l 1
 70.3933982822 660.393398282 l 1
 59.8360148683 670.950781696 l 1
 70.3441805107 681.557154494 l 1
EndSplineSet
Validated: 5
EndChar

StartChar: idieresis
Encoding: 239 239 176
Width: 537
GlyphClass: 2
Flags: MW
LayerCount: 2
Fore
SplineSet
66 0 m 1
 66 81 l 1
 66 96 l 1
 81 96 l 1
 146 96 l 1
 146 468 l 1
 81 468 l 1
 66 468 l 1
 66 483 l 1
 66 564 l 1
 66 579 l 1
 81 579 l 1
 242 579 l 1
 257 579 l 1
 257 564 l 1
 257 96 l 1
 322 96 l 1
 337 96 l 1
 337 81 l 1
 337 0 l 1
 337 -15 l 1
 322 -15 l 1
 81 -15 l 1
 66 -15 l 1
 66 0 l 1
39 645 m 1
 39 725 l 1
 39 740 l 1
 54 740 l 1
 134 740 l 1
 149 740 l 1
 149 725 l 1
 149 645 l 1
 149 630 l 1
 134 630 l 1
 54 630 l 1
 39 630 l 1
 39 645 l 1
254 645 m 1
 254 725 l 1
 254 740 l 1
 269 740 l 1
 349 740 l 1
 364 740 l 1
 364 725 l 1
 364 645 l 1
 364 630 l 1
 349 630 l 1
 269 630 l 1
 254 630 l 1
 254 645 l 1
EndSplineSet
Validated: 1
EndChar

StartChar: eth
Encoding: 240 240 177
Width: 537
GlyphClass: 2
Flags: MW
LayerCount: 2
Fore
SplineSet
235.786796564 96 m 1
 307 167.213203436 l 1
 307 315.8413023 l 1
 235.73215042 388 l 1
 167.26784958 388 l 1
 96 315.8413023 l 1
 96 167.213203436 l 1
 167.213203436 96 l 1
 235.786796564 96 l 1
123.393398282 -10.6066017178 m 1
 -10.6066017178 123.393398282 l 1
 -15 127.786796564 l 1
 -15 134 l 1
 -15 349 l 1
 -15 355.213203436 l 1
 -10.6066017178 359.606601718 l 1
 123.393398282 493.606601718 l 1
 127.786796564 498 l 1
 134 498 l 1
 269 498 l 1
 275.213203436 498 l 1
 279.606601718 493.606601718 l 1
 307 466.213203436 l 1
 307 479.458980338 l 1
 267.229395527 559.000189284 l 1
 194.582529478 523.52148726 l 1
 181.229395527 517.000189284 l 1
 174.583592135 530.291796068 l 1
 147.583592135 584.291796068 l 1
 146 587.458980338 l 1
 146 591 l 1
 146 604 l 1
 146 613.219529887 l 1
 154.225787581 617.383200144 l 1
 221.807845273 651.591402186 l 1
 201.634407547 691.191113279 l 1
 194.774133731 704.657576697 l 1
 208.291796068 711.416407865 l 1
 262.291796068 738.416407865 l 1
 265.458980338 740 l 1
 269 740 l 1
 282 740 l 1
 291.270509831 740 l 1
 295.416407865 731.708203932 l 1
 312.735866511 697.06928664 l 1
 396.347292568 738.444012936 l 1
 409.735866511 745.06928664 l 1
 416.416407865 731.708203932 l 1
 443.416407865 677.708203932 l 1
 445 674.541019662 l 1
 445 671 l 1
 445 658 l 1
 445 648.77391493 l 1
 436.76572277 644.612506008 l 1
 357.262500615 604.433458252 l 1
 416.332047511 489.874336998 l 1
 418 486.63952005 l 1
 418 483 l 1
 418 134 l 1
 418 127.786796564 l 1
 413.606601718 123.393398282 l 1
 279.606601718 -10.6066017178 l 1
 275.213203436 -15 l 1
 269 -15 l 1
 134 -15 l 1
 127.786796564 -15 l 1
 123.393398282 -10.6066017178 l 1
EndSplineSet
Validated: 1
EndChar

StartChar: ntilde
Encoding: 241 241 178
Width: 537
GlyphClass: 2
Flags: MW
LayerCount: 2
Fore
SplineSet
-15 0 m 1
 -15 564 l 1
 -15 579 l 1
 0 579 l 1
 81 579 l 1
 96 579 l 1
 96 564 l 1
 96 519.5336977 l 1
 150.327724628 574.540518886 l 1
 154.73215042 579 l 1
 161 579 l 1
 269 579 l 1
 275.213203436 579 l 1
 279.606601718 574.606601718 l 1
 413.606601718 440.606601718 l 1
 418 436.213203436 l 1
 418 430 l 1
 418 0 l 1
 418 -15 l 1
 403 -15 l 1
 322 -15 l 1
 307 -15 l 1
 307 0 l 1
 307 396.786796564 l 1
 235.786796564 468 l 1
 194.213203436 468 l 1
 96 369.786796564 l 1
 96 0 l 1
 96 -15 l 1
 81 -15 l 1
 0 -15 l 1
 -15 -15 l 1
 -15 0 l 1
16.327724628 681.540518886 m 1
 96.327724628 762.540518886 l 1
 100.73215042 767 l 1
 107 767 l 1
 188 767 l 1
 194.213203436 767 l 1
 198.606601718 762.606601718 l 1
 248.213203436 713 l 1
 262.704519513 713 l 1
 311.294738673 762.507015747 l 1
 321.90040968 773.312793755 l 1
 332.606601718 762.606601718 l 1
 386.606601718 708.606601718 l 1
 397.279287542 697.933915893 l 1
 386.540518886 687.327724628 l 1
 305.540518886 607.327724628 l 1
 301.1586977 603 l 1
 295 603 l 1
 215 603 l 1
 208.868755731 603 l 1
 204.492984253 607.294738673 l 1
 154.868755731 656 l 1
 140.213203436 656 l 1
 91.6066017178 607.393398282 l 1
 81.0986639181 596.885460483 l 1
 70.4929842528 607.294738673 l 1
 16.4929842528 660.294738673 l 1
 5.75411542062 670.834739563 l 1
 16.327724628 681.540518886 l 1
EndSplineSet
Validated: 5
EndChar

StartChar: ograve
Encoding: 242 242 179
Width: 537
GlyphClass: 2
Flags: MW
LayerCount: 2
Fore
SplineSet
235.786796564 96 m 1
 307 167.213203436 l 1
 307 396.786796564 l 1
 235.786796564 468 l 1
 167.213203436 468 l 1
 96 396.786796564 l 1
 96 167.213203436 l 1
 167.213203436 96 l 1
 235.786796564 96 l 1
123.393398282 -10.6066017178 m 1
 -10.6066017178 123.393398282 l 1
 -15 127.786796564 l 1
 -15 134 l 1
 -15 430 l 1
 -15 436.213203436 l 1
 -10.6066017178 440.606601718 l 1
 123.393398282 574.606601718 l 1
 127.786796564 579 l 1
 134 579 l 1
 269 579 l 1
 275.213203436 579 l 1
 279.606601718 574.606601718 l 1
 413.606601718 440.606601718 l 1
 418 436.213203436 l 1
 418 430 l 1
 418 134 l 1
 418 127.786796564 l 1
 413.606601718 123.393398282 l 1
 279.606601718 -10.6066017178 l 1
 275.213203436 -15 l 1
 269 -15 l 1
 134 -15 l 1
 127.786796564 -15 l 1
 123.393398282 -10.6066017178 l 1
96.3933982822 735.606601718 m 1
 150.393398282 789.606601718 l 1
 161 800.213203436 l 1
 171.606601718 789.606601718 l 1
 279.606601718 681.606601718 l 1
 290.312793755 670.90040968 l 1
 279.507015747 660.294738673 l 1
 225.507015747 607.294738673 l 1
 214.950553319 596.933766289 l 1
 204.442845506 607.344180511 l 1
 96.442845506 714.344180511 l 1
 85.7373488058 724.950552241 l 1
 96.3933982822 735.606601718 l 1
EndSplineSet
Validated: 5
EndChar

StartChar: oacute
Encoding: 243 243 180
Width: 537
GlyphClass: 2
Flags: MW
LayerCount: 2
Fore
SplineSet
235.786796564 96 m 1
 307 167.213203436 l 1
 307 396.786796564 l 1
 235.786796564 468 l 1
 167.213203436 468 l 1
 96 396.786796564 l 1
 96 167.213203436 l 1
 167.213203436 96 l 1
 235.786796564 96 l 1
123.393398282 -10.6066017178 m 1
 -10.6066017178 123.393398282 l 1
 -15 127.786796564 l 1
 -15 134 l 1
 -15 430 l 1
 -15 436.213203436 l 1
 -10.6066017178 440.606601718 l 1
 123.393398282 574.606601718 l 1
 127.786796564 579 l 1
 134 579 l 1
 269 579 l 1
 275.213203436 579 l 1
 279.606601718 574.606601718 l 1
 413.606601718 440.606601718 l 1
 418 436.213203436 l 1
 418 430 l 1
 418 134 l 1
 418 127.786796564 l 1
 413.606601718 123.393398282 l 1
 279.606601718 -10.6066017178 l 1
 275.213203436 -15 l 1
 269 -15 l 1
 134 -15 l 1
 127.786796564 -15 l 1
 123.393398282 -10.6066017178 l 1
123.393398282 681.606601718 m 1
 231.393398282 789.606601718 l 1
 242.09959032 800.312793755 l 1
 252.705261327 789.507015747 l 1
 305.705261327 735.507015747 l 1
 316.114539517 724.901336082 l 1
 305.606601718 714.393398282 l 1
 198.606601718 607.393398282 l 1
 188.098663918 596.885460483 l 1
 177.492984253 607.294738673 l 1
 123.492984253 660.294738673 l 1
 112.687206245 670.90040968 l 1
 123.393398282 681.606601718 l 1
EndSplineSet
Validated: 5
EndChar

StartChar: ocircumflex
Encoding: 244 244 181
Width: 537
GlyphClass: 2
Flags: MW
LayerCount: 2
Fore
SplineSet
235.786796564 96 m 1
 307 167.213203436 l 1
 307 396.786796564 l 1
 235.786796564 468 l 1
 167.213203436 468 l 1
 96 396.786796564 l 1
 96 167.213203436 l 1
 167.213203436 96 l 1
 235.786796564 96 l 1
123.393398282 -10.6066017178 m 1
 -10.6066017178 123.393398282 l 1
 -15 127.786796564 l 1
 -15 134 l 1
 -15 430 l 1
 -15 436.213203436 l 1
 -10.6066017178 440.606601718 l 1
 123.393398282 574.606601718 l 1
 127.786796564 579 l 1
 134 579 l 1
 269 579 l 1
 275.213203436 579 l 1
 279.606601718 574.606601718 l 1
 413.606601718 440.606601718 l 1
 418 436.213203436 l 1
 418 430 l 1
 418 134 l 1
 418 127.786796564 l 1
 413.606601718 123.393398282 l 1
 279.606601718 -10.6066017178 l 1
 275.213203436 -15 l 1
 269 -15 l 1
 134 -15 l 1
 127.786796564 -15 l 1
 123.393398282 -10.6066017178 l 1
70.3441805107 681.557154494 m 1
 177.344180511 789.557154494 l 1
 181.745888558 794 l 1
 188 794 l 1
 215 794 l 1
 221.254111442 794 l 1
 225.655819489 789.557154494 l 1
 332.655819489 681.557154494 l 1
 343.163985132 670.950781696 l 1
 332.606601718 660.393398282 l 1
 279.606601718 607.393398282 l 1
 269.098663918 596.885460483 l 1
 258.492984253 607.294738673 l 1
 204.442960759 660.343835805 l 1
 201 663.786796564 l 1
 144.606601718 607.393398282 l 1
 134 596.786796564 l 1
 123.393398282 607.393398282 l 1
 70.3933982822 660.393398282 l 1
 59.8360148683 670.950781696 l 1
 70.3441805107 681.557154494 l 1
EndSplineSet
Validated: 5
EndChar

StartChar: otilde
Encoding: 245 245 182
Width: 537
GlyphClass: 2
Flags: MW
LayerCount: 2
Fore
SplineSet
235.786796564 96 m 1
 307 167.213203436 l 1
 307 396.786796564 l 1
 235.786796564 468 l 1
 167.213203436 468 l 1
 96 396.786796564 l 1
 96 167.213203436 l 1
 167.213203436 96 l 1
 235.786796564 96 l 1
123.393398282 -10.6066017178 m 1
 -10.6066017178 123.393398282 l 1
 -15 127.786796564 l 1
 -15 134 l 1
 -15 430 l 1
 -15 436.213203436 l 1
 -10.6066017178 440.606601718 l 1
 123.393398282 574.606601718 l 1
 127.786796564 579 l 1
 134 579 l 1
 269 579 l 1
 275.213203436 579 l 1
 279.606601718 574.606601718 l 1
 413.606601718 440.606601718 l 1
 418 436.213203436 l 1
 418 430 l 1
 418 134 l 1
 418 127.786796564 l 1
 413.606601718 123.393398282 l 1
 279.606601718 -10.6066017178 l 1
 275.213203436 -15 l 1
 269 -15 l 1
 134 -15 l 1
 127.786796564 -15 l 1
 123.393398282 -10.6066017178 l 1
16.327724628 681.540518886 m 1
 96.327724628 762.540518886 l 1
 100.73215042 767 l 1
 107 767 l 1
 188 767 l 1
 194.213203436 767 l 1
 198.606601718 762.606601718 l 1
 248.213203436 713 l 1
 262.704519513 713 l 1
 311.294738673 762.507015747 l 1
 321.90040968 773.312793755 l 1
 332.606601718 762.606601718 l 1
 386.606601718 708.606601718 l 1
 397.279287542 697.933915893 l 1
 386.540518886 687.327724628 l 1
 305.540518886 607.327724628 l 1
 301.1586977 603 l 1
 295 603 l 1
 215 603 l 1
 208.868755731 603 l 1
 204.492984253 607.294738673 l 1
 154.868755731 656 l 1
 140.213203436 656 l 1
 91.6066017178 607.393398282 l 1
 81.0986639181 596.885460483 l 1
 70.4929842528 607.294738673 l 1
 16.4929842528 660.294738673 l 1
 5.75411542062 670.834739563 l 1
 16.327724628 681.540518886 l 1
EndSplineSet
Validated: 5
EndChar

StartChar: odieresis
Encoding: 246 246 183
Width: 537
GlyphClass: 2
Flags: MW
LayerCount: 2
Fore
SplineSet
235.786796564 96 m 1
 307 167.213203436 l 1
 307 396.786796564 l 1
 235.786796564 468 l 1
 167.213203436 468 l 1
 96 396.786796564 l 1
 96 167.213203436 l 1
 167.213203436 96 l 1
 235.786796564 96 l 1
123.393398282 -10.6066017178 m 1
 -10.6066017178 123.393398282 l 1
 -15 127.786796564 l 1
 -15 134 l 1
 -15 430 l 1
 -15 436.213203436 l 1
 -10.6066017178 440.606601718 l 1
 123.393398282 574.606601718 l 1
 127.786796564 579 l 1
 134 579 l 1
 269 579 l 1
 275.213203436 579 l 1
 279.606601718 574.606601718 l 1
 413.606601718 440.606601718 l 1
 418 436.213203436 l 1
 418 430 l 1
 418 134 l 1
 418 127.786796564 l 1
 413.606601718 123.393398282 l 1
 279.606601718 -10.6066017178 l 1
 275.213203436 -15 l 1
 269 -15 l 1
 134 -15 l 1
 127.786796564 -15 l 1
 123.393398282 -10.6066017178 l 1
39 645 m 1
 39 725 l 1
 39 740 l 1
 54 740 l 1
 134 740 l 1
 149 740 l 1
 149 725 l 1
 149 645 l 1
 149 630 l 1
 134 630 l 1
 54 630 l 1
 39 630 l 1
 39 645 l 1
254 645 m 1
 254 725 l 1
 254 740 l 1
 269 740 l 1
 349 740 l 1
 364 740 l 1
 364 725 l 1
 364 645 l 1
 364 630 l 1
 349 630 l 1
 269 630 l 1
 254 630 l 1
 254 645 l 1
EndSplineSet
Validated: 1
EndChar

StartChar: divide
Encoding: 247 247 184
Width: 537
GlyphClass: 2
Flags: MW
LayerCount: 2
Fore
SplineSet
146 161 m 1
 146 242 l 1
 146 257 l 1
 161 257 l 1
 242 257 l 1
 257 257 l 1
 257 242 l 1
 257 161 l 1
 257 146 l 1
 242 146 l 1
 161 146 l 1
 146 146 l 1
 146 161 l 1
-15 322 m 1
 -15 403 l 1
 -15 418 l 1
 0 418 l 1
 403 418 l 1
 418 418 l 1
 418 403 l 1
 418 322 l 1
 418 307 l 1
 403 307 l 1
 0 307 l 1
 -15 307 l 1
 -15 322 l 1
146 483 m 1
 146 564 l 1
 146 579 l 1
 161 579 l 1
 242 579 l 1
 257 579 l 1
 257 564 l 1
 257 483 l 1
 257 468 l 1
 242 468 l 1
 161 468 l 1
 146 468 l 1
 146 483 l 1
EndSplineSet
Validated: 1
EndChar

StartChar: oslash
Encoding: 248 248 185
Width: 537
GlyphClass: 2
Flags: MW
LayerCount: 2
Fore
SplineSet
235.786796564 96 m 1
 307 167.213203436 l 1
 307 367.458980338 l 1
 171.270509831 96 l 1
 235.786796564 96 l 1
240.873651168 462.346572169 m 1
 235.534302661 468 l 1
 167.213203436 468 l 1
 96 396.786796564 l 1
 96 174.387833427 l 1
 240.873651168 462.346572169 l 1
47.2917960675 -94.416407865 m 1
 -6.7082039325 -67.416407865 l 1
 -20.0816794024 -60.72967013 l 1
 -13.4378394964 -47.3348316098 l 1
 43.8146913953 68.0936580911 l 1
 -10.6911124214 123.478587776 l 1
 -15 127.856973541 l 1
 -15 134 l 1
 -15 430 l 1
 -15 436.213203436 l 1
 -10.6066017178 440.606601718 l 1
 123.393398282 574.606601718 l 1
 127.786796564 579 l 1
 134 579 l 1
 269 579 l 1
 275.379627571 579 l 1
 279.804803202 574.404625306 l 1
 291.154969741 562.6179139 l 1
 322.616799856 624.774212419 l 1
 326.780470113 633 l 1
 336 633 l 1
 349 633 l 1
 352.541019662 633 l 1
 355.708203932 631.416407865 l 1
 409.708203932 604.416407865 l 1
 423.124611797 597.708203932 l 1
 416.416407865 584.291796068 l 1
 367.299198808 486.057377953 l 1
 413.507015747 440.705261327 l 1
 418 436.295480487 l 1
 418 430 l 1
 418 134 l 1
 418 127.786796564 l 1
 413.606601718 123.393398282 l 1
 279.606601718 -10.6066017178 l 1
 275.213203436 -15 l 1
 269 -15 l 1
 134 -15 l 1
 128.036320465 -15 l 1
 123.700647006 -10.9051972882 l 1
 120.384071733 -7.77287619719 l 1
 80.416407865 -87.7082039325 l 1
 76.2705098312 -96 l 1
 67 -96 l 1
 54 -96 l 1
 50.4589803375 -96 l 1
 47.2917960675 -94.416407865 l 1
EndSplineSet
Validated: 5
EndChar

StartChar: ugrave
Encoding: 249 249 186
Width: 537
GlyphClass: 2
Flags: MW
LayerCount: 2
Fore
SplineSet
123.393398282 -10.6066017178 m 1
 -10.6066017178 123.393398282 l 1
 -15 127.786796564 l 1
 -15 134 l 1
 -15 564 l 1
 -15 579 l 1
 0 579 l 1
 81 579 l 1
 96 579 l 1
 96 564 l 1
 96 167.213203436 l 1
 167.213203436 96 l 1
 208.786796564 96 l 1
 307 194.213203436 l 1
 307 564 l 1
 307 579 l 1
 322 579 l 1
 403 579 l 1
 418 579 l 1
 418 564 l 1
 418 0 l 1
 418 -15 l 1
 403 -15 l 1
 322 -15 l 1
 307 -15 l 1
 307 0 l 1
 307 44.4663022999 l 1
 252.672275372 -10.5405188859 l 1
 248.26784958 -15 l 1
 242 -15 l 1
 134 -15 l 1
 127.786796564 -15 l 1
 123.393398282 -10.6066017178 l 1
96.3933982822 735.606601718 m 1
 150.393398282 789.606601718 l 1
 161 800.213203436 l 1
 171.606601718 789.606601718 l 1
 279.606601718 681.606601718 l 1
 290.312793755 670.90040968 l 1
 279.507015747 660.294738673 l 1
 225.507015747 607.294738673 l 1
 214.950553319 596.933766289 l 1
 204.442845506 607.344180511 l 1
 96.442845506 714.344180511 l 1
 85.7373488058 724.950552241 l 1
 96.3933982822 735.606601718 l 1
EndSplineSet
Validated: 5
EndChar

StartChar: uacute
Encoding: 250 250 187
Width: 537
GlyphClass: 2
Flags: MW
LayerCount: 2
Fore
SplineSet
123.393398282 -10.6066017178 m 1
 -10.6066017178 123.393398282 l 1
 -15 127.786796564 l 1
 -15 134 l 1
 -15 564 l 1
 -15 579 l 1
 0 579 l 1
 81 579 l 1
 96 579 l 1
 96 564 l 1
 96 167.213203436 l 1
 167.213203436 96 l 1
 208.786796564 96 l 1
 307 194.213203436 l 1
 307 564 l 1
 307 579 l 1
 322 579 l 1
 403 579 l 1
 418 579 l 1
 418 564 l 1
 418 0 l 1
 418 -15 l 1
 403 -15 l 1
 322 -15 l 1
 307 -15 l 1
 307 0 l 1
 307 44.4663022999 l 1
 252.672275372 -10.5405188859 l 1
 248.26784958 -15 l 1
 242 -15 l 1
 134 -15 l 1
 127.786796564 -15 l 1
 123.393398282 -10.6066017178 l 1
123.393398282 681.606601718 m 1
 231.393398282 789.606601718 l 1
 242.09959032 800.312793755 l 1
 252.705261327 789.507015747 l 1
 305.705261327 735.507015747 l 1
 316.114539517 724.901336082 l 1
 305.606601718 714.393398282 l 1
 198.606601718 607.393398282 l 1
 188.098663918 596.885460483 l 1
 177.492984253 607.294738673 l 1
 123.492984253 660.294738673 l 1
 112.687206245 670.90040968 l 1
 123.393398282 681.606601718 l 1
EndSplineSet
Validated: 5
EndChar

StartChar: ucircumflex
Encoding: 251 251 188
Width: 537
GlyphClass: 2
Flags: MW
LayerCount: 2
Fore
SplineSet
123.393398282 -10.6066017178 m 1
 -10.6066017178 123.393398282 l 1
 -15 127.786796564 l 1
 -15 134 l 1
 -15 564 l 1
 -15 579 l 1
 0 579 l 1
 81 579 l 1
 96 579 l 1
 96 564 l 1
 96 167.213203436 l 1
 167.213203436 96 l 1
 208.786796564 96 l 1
 307 194.213203436 l 1
 307 564 l 1
 307 579 l 1
 322 579 l 1
 403 579 l 1
 418 579 l 1
 418 564 l 1
 418 0 l 1
 418 -15 l 1
 403 -15 l 1
 322 -15 l 1
 307 -15 l 1
 307 0 l 1
 307 44.4663022999 l 1
 252.672275372 -10.5405188859 l 1
 248.26784958 -15 l 1
 242 -15 l 1
 134 -15 l 1
 127.786796564 -15 l 1
 123.393398282 -10.6066017178 l 1
70.3441805107 681.557154494 m 1
 177.344180511 789.557154494 l 1
 181.745888558 794 l 1
 188 794 l 1
 215 794 l 1
 221.254111442 794 l 1
 225.655819489 789.557154494 l 1
 332.655819489 681.557154494 l 1
 343.163985132 670.950781696 l 1
 332.606601718 660.393398282 l 1
 279.606601718 607.393398282 l 1
 269.098663918 596.885460483 l 1
 258.492984253 607.294738673 l 1
 204.442960759 660.343835805 l 1
 201 663.786796564 l 1
 144.606601718 607.393398282 l 1
 134 596.786796564 l 1
 123.393398282 607.393398282 l 1
 70.3933982822 660.393398282 l 1
 59.8360148683 670.950781696 l 1
 70.3441805107 681.557154494 l 1
EndSplineSet
Validated: 5
EndChar

StartChar: udieresis
Encoding: 252 252 189
Width: 537
GlyphClass: 2
Flags: MW
LayerCount: 2
Fore
SplineSet
123.393398282 -10.6066017178 m 1
 -10.6066017178 123.393398282 l 1
 -15 127.786796564 l 1
 -15 134 l 1
 -15 564 l 1
 -15 579 l 1
 0 579 l 1
 81 579 l 1
 96 579 l 1
 96 564 l 1
 96 167.213203436 l 1
 167.213203436 96 l 1
 208.786796564 96 l 1
 307 194.213203436 l 1
 307 564 l 1
 307 579 l 1
 322 579 l 1
 403 579 l 1
 418 579 l 1
 418 564 l 1
 418 0 l 1
 418 -15 l 1
 403 -15 l 1
 322 -15 l 1
 307 -15 l 1
 307 0 l 1
 307 44.4663022999 l 1
 252.672275372 -10.5405188859 l 1
 248.26784958 -15 l 1
 242 -15 l 1
 134 -15 l 1
 127.786796564 -15 l 1
 123.393398282 -10.6066017178 l 1
39 645 m 1
 39 725 l 1
 39 740 l 1
 54 740 l 1
 134 740 l 1
 149 740 l 1
 149 725 l 1
 149 645 l 1
 149 630 l 1
 134 630 l 1
 54 630 l 1
 39 630 l 1
 39 645 l 1
254 645 m 1
 254 725 l 1
 254 740 l 1
 269 740 l 1
 349 740 l 1
 364 740 l 1
 364 725 l 1
 364 645 l 1
 364 630 l 1
 349 630 l 1
 269 630 l 1
 254 630 l 1
 254 645 l 1
EndSplineSet
Validated: 1
EndChar

StartChar: yacute
Encoding: 253 253 190
Width: 537
GlyphClass: 2
Flags: MW
LayerCount: 2
Fore
SplineSet
127.191113279 -174.365592453 m 1
 74.1911132787 -147.365592453 l 1
 60.9585951079 -140.62449829 l 1
 67.5669466221 -127.325190868 l 1
 144.239913092 26.979154153 l 1
 -13.416407865 342.291796068 l 1
 -15 345.458980338 l 1
 -15 349 l 1
 -15 564 l 1
 -15 579 l 1
 0 579 l 1
 81 579 l 1
 96 579 l 1
 96 564 l 1
 96 352.514811565 l 1
 201.055715826 140.652451315 l 1
 307 352.541019662 l 1
 307 564 l 1
 307 579 l 1
 322 579 l 1
 403 579 l 1
 418 579 l 1
 418 564 l 1
 418 349 l 1
 418 345.458980338 l 1
 416.416407865 342.291796068 l 1
 161.416407865 -167.708203932 l 1
 157.270509831 -176 l 1
 148 -176 l 1
 134 -176 l 1
 130.39939476 -176 l 1
 127.191113279 -174.365592453 l 1
123.393398282 681.606601718 m 1
 231.393398282 789.606601718 l 1
 242.09959032 800.312793755 l 1
 252.705261327 789.507015747 l 1
 305.705261327 735.507015747 l 1
 316.114539517 724.901336082 l 1
 305.606601718 714.393398282 l 1
 198.606601718 607.393398282 l 1
 188.098663918 596.885460483 l 1
 177.492984253 607.294738673 l 1
 123.492984253 660.294738673 l 1
 112.687206245 670.90040968 l 1
 123.393398282 681.606601718 l 1
EndSplineSet
Validated: 5
EndChar

StartChar: thorn
Encoding: 254 254 191
Width: 537
GlyphClass: 2
Flags: MW
LayerCount: 2
Fore
SplineSet
235.786796564 96 m 1
 307 167.213203436 l 1
 307 396.786796564 l 1
 235.786796564 468 l 1
 194.213203436 468 l 1
 96 369.786796564 l 1
 96 167.213203436 l 1
 167.213203436 96 l 1
 235.786796564 96 l 1
-15 -161 m 1
 -15 725 l 1
 -15 740 l 1
 0 740 l 1
 81 740 l 1
 96 740 l 1
 96 725 l 1
 96 519.5336977 l 1
 150.327724628 574.540518886 l 1
 154.73215042 579 l 1
 161 579 l 1
 269 579 l 1
 275.213203436 579 l 1
 279.606601718 574.606601718 l 1
 413.606601718 440.606601718 l 1
 418 436.213203436 l 1
 418 430 l 1
 418 134 l 1
 418 127.786796564 l 1
 413.606601718 123.393398282 l 1
 279.606601718 -10.6066017178 l 1
 275.213203436 -15 l 1
 269 -15 l 1
 134 -15 l 1
 127.704519513 -15 l 1
 123.294738673 -10.5070157472 l 1
 96 17.3027179947 l 1
 96 -161 l 1
 96 -176 l 1
 81 -176 l 1
 0 -176 l 1
 -15 -176 l 1
 -15 -161 l 1
EndSplineSet
Validated: 1
EndChar

StartChar: ydieresis
Encoding: 255 255 192
Width: 537
GlyphClass: 2
Flags: MW
LayerCount: 2
Fore
SplineSet
127.191113279 -174.365592453 m 1
 74.1911132787 -147.365592453 l 1
 60.9585951079 -140.62449829 l 1
 67.5669466221 -127.325190868 l 1
 144.239913092 26.979154153 l 1
 -13.416407865 342.291796068 l 1
 -15 345.458980338 l 1
 -15 349 l 1
 -15 564 l 1
 -15 579 l 1
 0 579 l 1
 81 579 l 1
 96 579 l 1
 96 564 l 1
 96 352.514811565 l 1
 201.055715826 140.652451315 l 1
 307 352.541019662 l 1
 307 564 l 1
 307 579 l 1
 322 579 l 1
 403 579 l 1
 418 579 l 1
 418 564 l 1
 418 349 l 1
 418 345.458980338 l 1
 416.416407865 342.291796068 l 1
 161.416407865 -167.708203932 l 1
 157.270509831 -176 l 1
 148 -176 l 1
 134 -176 l 1
 130.39939476 -176 l 1
 127.191113279 -174.365592453 l 1
39 645 m 1
 39 725 l 1
 39 740 l 1
 54 740 l 1
 134 740 l 1
 149 740 l 1
 149 725 l 1
 149 645 l 1
 149 630 l 1
 134 630 l 1
 54 630 l 1
 39 630 l 1
 39 645 l 1
254 645 m 1
 254 725 l 1
 254 740 l 1
 269 740 l 1
 349 740 l 1
 364 740 l 1
 364 725 l 1
 364 645 l 1
 364 630 l 1
 349 630 l 1
 269 630 l 1
 254 630 l 1
 254 645 l 1
EndSplineSet
Validated: 1
EndChar

